<svg version="1.1" xmlns="http://www.w3.org/2000/svg" viewBox="0 0 1139.0000000000027 693.75" width="2278.0000000000055" height="1387.5">
  <!-- svg-source:excalidraw -->
  
  <defs>
    <style class="style-fonts">
      @font-face {
        font-family: "Virgil";
        src: url("https://excalidraw.com/Virgil.woff2");
      }
      @font-face {
        font-family: "Cascadia";
        src: url("https://excalidraw.com/Cascadia.woff2");
      }
    </style>
  </defs>
  <rect x="0" y="0" width="1139.0000000000027" height="693.75" fill="#ffffff"></rect><g stroke-linecap="round" transform="translate(10 10) rotate(0 144 125)"><path d="M32 0 M32 0 C90.52 0, 149.04 0, 256 0 M32 0 C91.22 0, 150.45 0, 256 0 M256 0 C277.33 0, 288 10.67, 288 32 M256 0 C277.33 0, 288 10.67, 288 32 M288 32 C288 100.65, 288 169.29, 288 218 M288 32 C288 91.5, 288 150.99, 288 218 M288 218 C288 239.33, 277.33 250, 256 250 M288 218 C288 239.33, 277.33 250, 256 250 M256 250 C207.83 250, 159.65 250, 32 250 M256 250 C204.07 250, 152.15 250, 32 250 M32 250 C10.67 250, 0 239.33, 0 218 M32 250 C10.67 250, 0 239.33, 0 218 M0 218 C0 166.47, 0 114.94, 0 32 M0 218 C0 174.33, 0 130.67, 0 32 M0 32 C0 10.67, 10.67 0, 32 0 M0 32 C0 10.67, 10.67 0, 32 0" stroke="#000000" stroke-width="4" fill="none"></path></g><g transform="translate(136 114.30000000000001) rotate(0 18 20.700000000000003)"><text x="18" y="0" font-family="Helvetica, Segoe UI Emoji" font-size="36px" fill="#000000" text-anchor="middle" style="white-space: pre;" direction="ltr" dominant-baseline="text-before-edge">UI</text></g><g stroke-linecap="round" transform="translate(623.5000000000027 11.249999999999716) rotate(0 144 125)"><path d="M32 0 M32 0 C112.64 0, 193.29 0, 256 0 M32 0 C83.51 0, 135.02 0, 256 0 M256 0 C277.33 0, 288 10.67, 288 32 M256 0 C277.33 0, 288 10.67, 288 32 M288 32 C288 78.38, 288 124.75, 288 218 M288 32 C288 86.66, 288 141.33, 288 218 M288 218 C288 239.33, 277.33 250, 256 250 M288 218 C288 239.33, 277.33 250, 256 250 M256 250 C190.49 250, 124.99 250, 32 250 M256 250 C175.71 250, 95.42 250, 32 250 M32 250 C10.67 250, 0 239.33, 0 218 M32 250 C10.67 250, 0 239.33, 0 218 M0 218 C0 160.61, 0 103.21, 0 32 M0 218 C0 171.1, 0 124.2, 0 32 M0 32 C0 10.67, 10.67 0, 32 0 M0 32 C0 10.67, 10.67 0, 32 0" stroke="#000000" stroke-width="4" fill="none"></path></g><g transform="translate(660.0537109375027 94.84999999999971) rotate(0 107.4462890625 41.39999999999999)"><text x="107.4462890625" y="0" font-family="Helvetica, Segoe UI Emoji" font-size="36px" fill="#000000" text-anchor="middle" style="white-space: pre;" direction="ltr" dominant-baseline="text-before-edge">Interactor </text><text x="107.4462890625" y="41.4" font-family="Helvetica, Segoe UI Emoji" font-size="36px" fill="#000000" text-anchor="middle" style="white-space: pre;" direction="ltr" dominant-baseline="text-before-edge">("Workflows")</text></g><g stroke-linecap="round" transform="translate(841.0000000000027 431.24999999999983) rotate(0 144 125)"><path d="M32 0 M32 0 C82.02 0, 132.04 0, 256 0 M32 0 C104.67 0, 177.34 0, 256 0 M256 0 C277.33 0, 288 10.67, 288 32 M256 0 C277.33 0, 288 10.67, 288 32 M288 32 C288 96.59, 288 161.17, 288 218 M288 32 C288 91.41, 288 150.83, 288 218 M288 218 C288 239.33, 277.33 250, 256 250 M288 218 C288 239.33, 277.33 250, 256 250 M256 250 C210.28 250, 164.55 250, 32 250 M256 250 C189.76 250, 123.51 250, 32 250 M32 250 C10.67 250, 0 239.33, 0 218 M32 250 C10.67 250, 0 239.33, 0 218 M0 218 C0 150.19, 0 82.38, 0 32 M0 218 C0 151.29, 0 84.57, 0 32 M0 32 C0 10.67, 10.67 0, 32 0 M0 32 C0 10.67, 10.67 0, 32 0" stroke="#000000" stroke-width="4" fill="none"></path></g><g transform="translate(888.9531250000027 535.5499999999997) rotate(0 96.046875 20.69999999999999)"><text x="96.046875" y="0" font-family="Helvetica, Segoe UI Emoji" font-size="36px" fill="#000000" text-anchor="middle" style="white-space: pre;" direction="ltr" dominant-baseline="text-before-edge">Ressourcen</text></g><g stroke-linecap="round"><g transform="translate(305.83333333333485 199.58333333333314) rotate(0 156.33333333333394 1.521967284960553)"><path d="M0 0 C52.11 0.51, 260.56 2.54, 312.67 3.04 M0 0 C52.11 0.51, 260.56 2.54, 312.67 3.04" stroke="#000000" stroke-width="4" fill="none"></path></g><g transform="translate(305.83333333333485 199.58333333333314) rotate(0 156.33333333333394 1.521967284960553)"><path d="M322.17 3.04 C322.17 3.59, 322.12 4.15, 322.02 4.69 C321.93 5.24, 321.78 5.78, 321.59 6.29 C321.41 6.81, 321.17 7.32, 320.89 7.79 C320.62 8.27, 320.3 8.73, 319.94 9.15 C319.59 9.57, 319.19 9.97, 318.77 10.32 C318.35 10.67, 317.89 11, 317.42 11.27 C316.94 11.55, 316.43 11.78, 315.92 11.97 C315.4 12.16, 314.86 12.3, 314.32 12.4 C313.77 12.5, 313.22 12.54, 312.67 12.54 C312.12 12.54, 311.56 12.5, 311.02 12.4 C310.48 12.3, 309.93 12.16, 309.42 11.97 C308.9 11.78, 308.39 11.55, 307.92 11.27 C307.44 11, 306.98 10.67, 306.56 10.32 C306.14 9.97, 305.74 9.57, 305.39 9.15 C305.04 8.73, 304.71 8.27, 304.44 7.79 C304.16 7.32, 303.93 6.81, 303.74 6.29 C303.55 5.78, 303.41 5.24, 303.31 4.69 C303.22 4.15, 303.17 3.59, 303.17 3.04 C303.17 2.49, 303.22 1.94, 303.31 1.39 C303.41 0.85, 303.55 0.31, 303.74 -0.21 C303.93 -0.72, 304.16 -1.23, 304.44 -1.71 C304.71 -2.18, 305.04 -2.64, 305.39 -3.06 C305.74 -3.48, 306.14 -3.88, 306.56 -4.23 C306.98 -4.59, 307.44 -4.91, 307.92 -5.18 C308.39 -5.46, 308.9 -5.7, 309.42 -5.88 C309.93 -6.07, 310.48 -6.22, 311.02 -6.31 C311.56 -6.41, 312.12 -6.46, 312.67 -6.46 C313.22 -6.46, 313.77 -6.41, 314.32 -6.31 C314.86 -6.22, 315.4 -6.07, 315.92 -5.88 C316.43 -5.7, 316.94 -5.46, 317.42 -5.18 C317.89 -4.91, 318.35 -4.59, 318.77 -4.23 C319.19 -3.88, 319.59 -3.48, 319.94 -3.06 C320.3 -2.64, 320.62 -2.18, 320.89 -1.71 C321.17 -1.23, 321.41 -0.72, 321.59 -0.21 C321.78 0.31, 321.93 0.85, 322.02 1.39 C322.12 1.94, 322.14 2.77, 322.17 3.04 C322.19 3.32, 322.19 2.77, 322.17 3.04" stroke="none" stroke-width="0" fill="#000000"></path></g></g><mask></mask><g stroke-linecap="round"><g transform="translate(839.4804889001543 262.91666666666634) rotate(0 42.31770731256347 83.33333333333348)"><path d="M0 0 C14.11 27.78, 70.53 138.89, 84.64 166.67 M0 0 C14.11 27.78, 70.53 138.89, 84.64 166.67" stroke="#000000" stroke-width="4" fill="none"></path></g><g transform="translate(839.4804889001543 262.91666666666634) rotate(0 42.31770731256347 83.33333333333348)"><path d="M94.14 166.67 C94.14 167.22, 94.09 167.77, 93.99 168.32 C93.9 168.86, 93.75 169.4, 93.56 169.92 C93.37 170.43, 93.14 170.94, 92.86 171.42 C92.59 171.89, 92.27 172.35, 91.91 172.77 C91.56 173.19, 91.16 173.59, 90.74 173.94 C90.32 174.3, 89.86 174.62, 89.39 174.89 C88.91 175.17, 88.4 175.41, 87.88 175.59 C87.37 175.78, 86.83 175.93, 86.29 176.02 C85.74 176.12, 85.19 176.17, 84.64 176.17 C84.09 176.17, 83.53 176.12, 82.99 176.02 C82.44 175.93, 81.9 175.78, 81.39 175.59 C80.87 175.41, 80.36 175.17, 79.89 174.89 C79.41 174.62, 78.95 174.3, 78.53 173.94 C78.11 173.59, 77.71 173.19, 77.36 172.77 C77 172.35, 76.68 171.89, 76.41 171.42 C76.13 170.94, 75.9 170.43, 75.71 169.92 C75.52 169.4, 75.38 168.86, 75.28 168.32 C75.18 167.77, 75.14 167.22, 75.14 166.67 C75.14 166.12, 75.18 165.56, 75.28 165.02 C75.38 164.48, 75.52 163.93, 75.71 163.42 C75.9 162.9, 76.13 162.39, 76.41 161.92 C76.68 161.44, 77 160.98, 77.36 160.56 C77.71 160.14, 78.11 159.74, 78.53 159.39 C78.95 159.04, 79.41 158.71, 79.89 158.44 C80.36 158.16, 80.87 157.93, 81.39 157.74 C81.9 157.55, 82.44 157.41, 82.99 157.31 C83.53 157.22, 84.09 157.17, 84.64 157.17 C85.19 157.17, 85.74 157.22, 86.29 157.31 C86.83 157.41, 87.37 157.55, 87.88 157.74 C88.4 157.93, 88.91 158.16, 89.39 158.44 C89.86 158.71, 90.32 159.04, 90.74 159.39 C91.16 159.74, 91.56 160.14, 91.91 160.56 C92.27 160.98, 92.59 161.44, 92.86 161.92 C93.14 162.39, 93.37 162.9, 93.56 163.42 C93.75 163.93, 93.9 164.48, 93.99 165.02 C94.09 165.56, 94.11 166.39, 94.14 166.67 C94.16 166.94, 94.16 166.39, 94.14 166.67" stroke="none" stroke-width="0" fill="#000000"></path></g></g><mask></mask><g mask="url(#mask-yq7Zt0-xTFo0WcFa3CmwG)" stroke-linecap="round"><g transform="translate(300.91666666666697 54.12338316163819) rotate(0 158.79166666666788 0.7362947344366333)"><path d="M0 0 C52.93 0.25, 264.65 1.23, 317.58 1.47 M0 0 C52.93 0.25, 264.65 1.23, 317.58 1.47" stroke="#000000" stroke-width="4" fill="none"></path></g><g transform="translate(300.91666666666697 54.12338316163819) rotate(0 158.79166666666788 0.7362947344366333)"><path d="M317.58 1.47 L303.96 7.75 L304.02 -4.93 L317.58 1.47" stroke="none" stroke-width="0" fill="#000000" fill-rule="evenodd"></path><path d="M317.58 1.47 C313.9 3.17, 310.21 4.87, 303.96 7.75 M317.58 1.47 C312.23 3.94, 306.88 6.4, 303.96 7.75 M303.96 7.75 C303.98 2.84, 304.01 -2.08, 304.02 -4.93 M303.96 7.75 C303.98 3.28, 304 -1.19, 304.02 -4.93 M304.02 -4.93 C307.52 -3.28, 311.02 -1.62, 317.58 1.47 M304.02 -4.93 C307.94 -3.08, 311.87 -1.22, 317.58 1.47 M317.58 1.47 C317.58 1.47, 317.58 1.47, 317.58 1.47 M317.58 1.47 C317.58 1.47, 317.58 1.47, 317.58 1.47" stroke="#000000" stroke-width="4" fill="none"></path></g></g><mask id="mask-yq7Zt0-xTFo0WcFa3CmwG"><rect x="0" y="0" fill="#fff" width="718.5000000000027" height="155.59597263051145"></rect><rect x="358.63411458333485" y="13.459677896074822" fill="#000" width="202.1484375" height="82.8" opacity="1"></rect></mask><g transform="translate(358.63411458333485 13.459677896074822) rotate(0 101.07421875 41.4)"><text x="101.07421875" y="0" font-family="Helvetica, Segoe UI Emoji" font-size="36px" fill="#000000" text-anchor="middle" style="white-space: pre;" direction="ltr" dominant-baseline="text-before-edge">Dependency</text><text x="101.07421875" y="41.4" font-family="Helvetica, Segoe UI Emoji" font-size="36px" fill="#000000" text-anchor="middle" style="white-space: pre;" direction="ltr" dominant-baseline="text-before-edge">Injection</text></g><g stroke-linecap="round" transform="translate(451.0000000000009 433.75000000000006) rotate(0 144 125)"><path d="M32 0 M32 0 C111.23 0, 190.47 0, 256 0 M32 0 C81.07 0, 130.14 0, 256 0 M256 0 C277.33 0, 288 10.67, 288 32 M256 0 C277.33 0, 288 10.67, 288 32 M288 32 C288 81.51, 288 131.02, 288 218 M288 32 C288 72.97, 288 113.95, 288 218 M288 218 C288 239.33, 277.33 250, 256 250 M288 218 C288 239.33, 277.33 250, 256 250 M256 250 C181.02 250, 106.04 250, 32 250 M256 250 C171.63 250, 87.25 250, 32 250 M32 250 C10.67 250, 0 239.33, 0 218 M32 250 C10.67 250, 0 239.33, 0 218 M0 218 C0 148.96, 0 79.93, 0 32 M0 218 C0 153.82, 0 89.65, 0 32 M0 32 C0 10.67, 10.67 0, 32 0 M0 32 C0 10.67, 10.67 0, 32 0" stroke="#000000" stroke-width="4" fill="none"></path></g><g transform="translate(551.9687500000009 538.05) rotate(0 43.03125 20.69999999999999)"><text x="43.03125" y="0" font-family="Helvetica, Segoe UI Emoji" font-size="36px" fill="#000000" text-anchor="middle" style="white-space: pre;" direction="ltr" dominant-baseline="text-before-edge">Logik</text></g><g stroke-linecap="round"><g transform="translate(677.3686420630884 262.2499999999997) rotate(0 -50.57581079551528 84.08333333333354)"><path d="M0 0 C-16.86 28.03, -84.29 140.14, -101.15 168.17 M0 0 C-16.86 28.03, -84.29 140.14, -101.15 168.17" stroke="#000000" stroke-width="4" fill="none"></path></g><g transform="translate(677.3686420630884 262.2499999999997) rotate(0 -50.57581079551528 84.08333333333354)"><path d="M-91.65 168.17 C-91.65 168.72, -91.7 169.27, -91.8 169.82 C-91.89 170.36, -92.04 170.9, -92.22 171.42 C-92.41 171.93, -92.65 172.44, -92.92 172.92 C-93.2 173.39, -93.52 173.85, -93.87 174.27 C-94.23 174.69, -94.62 175.09, -95.05 175.44 C-95.47 175.8, -95.93 176.12, -96.4 176.39 C-96.88 176.67, -97.39 176.91, -97.9 177.09 C-98.42 177.28, -98.96 177.43, -99.5 177.52 C-100.04 177.62, -100.6 177.67, -101.15 177.67 C-101.7 177.67, -102.26 177.62, -102.8 177.52 C-103.34 177.43, -103.88 177.28, -104.4 177.09 C-104.92 176.91, -105.43 176.67, -105.9 176.39 C-106.38 176.12, -106.84 175.8, -107.26 175.44 C-107.68 175.09, -108.08 174.69, -108.43 174.27 C-108.78 173.85, -109.1 173.39, -109.38 172.92 C-109.65 172.44, -109.89 171.93, -110.08 171.42 C-110.27 170.9, -110.41 170.36, -110.51 169.82 C-110.6 169.27, -110.65 168.72, -110.65 168.17 C-110.65 167.62, -110.6 167.06, -110.51 166.52 C-110.41 165.98, -110.27 165.43, -110.08 164.92 C-109.89 164.4, -109.65 163.89, -109.38 163.42 C-109.1 162.94, -108.78 162.48, -108.43 162.06 C-108.08 161.64, -107.68 161.24, -107.26 160.89 C-106.84 160.54, -106.38 160.21, -105.9 159.94 C-105.43 159.66, -104.92 159.43, -104.4 159.24 C-103.88 159.05, -103.34 158.91, -102.8 158.81 C-102.26 158.72, -101.7 158.67, -101.15 158.67 C-100.6 158.67, -100.04 158.72, -99.5 158.81 C-98.96 158.91, -98.42 159.05, -97.9 159.24 C-97.39 159.43, -96.88 159.66, -96.4 159.94 C-95.93 160.21, -95.47 160.54, -95.05 160.89 C-94.62 161.24, -94.23 161.64, -93.87 162.06 C-93.52 162.48, -93.2 162.94, -92.92 163.42 C-92.65 163.89, -92.41 164.4, -92.22 164.92 C-92.04 165.43, -91.89 165.98, -91.8 166.52 C-91.7 167.06, -91.68 167.89, -91.65 168.17 C-91.63 168.44, -91.63 167.89, -91.65 168.17" stroke="none" stroke-width="0" fill="#000000"></path></g></g><mask></mask></svg>