<svg version="1.1" xmlns="http://www.w3.org/2000/svg" viewBox="0 0 1525.6666666666688 282.91666666666634" width="3051.3333333333376" height="565.8333333333327">
  <!-- svg-source:excalidraw -->
  
  <defs>
    <style class="style-fonts">
      @font-face {
        font-family: "Virgil";
        src: url("https://excalidraw.com/Virgil.woff2");
      }
      @font-face {
        font-family: "Cascadia";
        src: url("https://excalidraw.com/Cascadia.woff2");
      }
    </style>
  </defs>
  <rect x="0" y="0" width="1525.6666666666688" height="282.91666666666634" fill="#ffffff"></rect><g stroke-linecap="round" transform="translate(10 10) rotate(0 144 125)"><path d="M32 0 M32 0 C90.52 0, 149.04 0, 256 0 M32 0 C91.22 0, 150.45 0, 256 0 M256 0 C277.33 0, 288 10.67, 288 32 M256 0 C277.33 0, 288 10.67, 288 32 M288 32 C288 100.65, 288 169.29, 288 218 M288 32 C288 91.5, 288 150.99, 288 218 M288 218 C288 239.33, 277.33 250, 256 250 M288 218 C288 239.33, 277.33 250, 256 250 M256 250 C207.83 250, 159.65 250, 32 250 M256 250 C204.07 250, 152.15 250, 32 250 M32 250 C10.67 250, 0 239.33, 0 218 M32 250 C10.67 250, 0 239.33, 0 218 M0 218 C0 166.47, 0 114.94, 0 32 M0 218 C0 174.33, 0 130.67, 0 32 M0 32 C0 10.67, 10.67 0, 32 0 M0 32 C0 10.67, 10.67 0, 32 0" stroke="#000000" stroke-width="4" fill="none"></path></g><g transform="translate(136 114.30000000000001) rotate(0 18 20.700000000000003)"><text x="18" y="0" font-family="Helvetica, Segoe UI Emoji" font-size="36px" fill="#000000" text-anchor="middle" style="white-space: pre;" direction="ltr" dominant-baseline="text-before-edge">UI</text></g><g stroke-linecap="round" transform="translate(675.0000000000027 20.249999999999716) rotate(0 144 125)"><path d="M32 0 M32 0 C112.64 0, 193.29 0, 256 0 M32 0 C83.51 0, 135.02 0, 256 0 M256 0 C277.33 0, 288 10.67, 288 32 M256 0 C277.33 0, 288 10.67, 288 32 M288 32 C288 78.38, 288 124.75, 288 218 M288 32 C288 86.66, 288 141.33, 288 218 M288 218 C288 239.33, 277.33 250, 256 250 M288 218 C288 239.33, 277.33 250, 256 250 M256 250 C190.49 250, 124.99 250, 32 250 M256 250 C175.71 250, 95.42 250, 32 250 M32 250 C10.67 250, 0 239.33, 0 218 M32 250 C10.67 250, 0 239.33, 0 218 M0 218 C0 160.61, 0 103.21, 0 32 M0 218 C0 171.1, 0 124.2, 0 32 M0 32 C0 10.67, 10.67 0, 32 0 M0 32 C0 10.67, 10.67 0, 32 0" stroke="#000000" stroke-width="4" fill="none"></path></g><g transform="translate(775.9687500000027 124.54999999999967) rotate(0 43.03125 20.700000000000003)"><text x="43.03125" y="0" font-family="Helvetica, Segoe UI Emoji" font-size="36px" fill="#000000" text-anchor="middle" style="white-space: pre;" direction="ltr" dominant-baseline="text-before-edge">Logik</text></g><g stroke-linecap="round" transform="translate(1227.6666666666688 22.916666666666345) rotate(0 144 125)"><path d="M32 0 M32 0 C82.02 0, 132.04 0, 256 0 M32 0 C104.67 0, 177.34 0, 256 0 M256 0 C277.33 0, 288 10.67, 288 32 M256 0 C277.33 0, 288 10.67, 288 32 M288 32 C288 96.59, 288 161.17, 288 218 M288 32 C288 91.41, 288 150.83, 288 218 M288 218 C288 239.33, 277.33 250, 256 250 M288 218 C288 239.33, 277.33 250, 256 250 M256 250 C210.28 250, 164.55 250, 32 250 M256 250 C189.76 250, 123.51 250, 32 250 M32 250 C10.67 250, 0 239.33, 0 218 M32 250 C10.67 250, 0 239.33, 0 218 M0 218 C0 150.19, 0 82.38, 0 32 M0 218 C0 151.29, 0 84.57, 0 32 M0 32 C0 10.67, 10.67 0, 32 0 M0 32 C0 10.67, 10.67 0, 32 0" stroke="#000000" stroke-width="4" fill="none"></path></g><g transform="translate(1275.6197916666688 127.2166666666663) rotate(0 96.046875 20.700000000000003)"><text x="96.046875" y="0" font-family="Helvetica, Segoe UI Emoji" font-size="36px" fill="#000000" text-anchor="middle" style="white-space: pre;" direction="ltr" dominant-baseline="text-before-edge">Ressourcen</text></g><g stroke-linecap="round"><g transform="translate(301.33333333333485 207.58333333333314) rotate(0 184.3333333333344 0.08709974654217945)"><path d="M0 0 C61.44 0.03, 307.22 0.15, 368.67 0.17 M0 0 C61.44 0.03, 307.22 0.15, 368.67 0.17" stroke="#000000" stroke-width="4" fill="none"></path></g><g transform="translate(301.33333333333485 207.58333333333314) rotate(0 184.3333333333344 0.08709974654217945)"><path d="M378.17 0.17 C378.17 0.72, 378.12 1.28, 378.02 1.82 C377.93 2.37, 377.78 2.91, 377.59 3.42 C377.41 3.94, 377.17 4.45, 376.89 4.92 C376.62 5.4, 376.3 5.86, 375.94 6.28 C375.59 6.7, 375.19 7.1, 374.77 7.45 C374.35 7.81, 373.89 8.13, 373.42 8.4 C372.94 8.68, 372.43 8.91, 371.92 9.1 C371.4 9.29, 370.86 9.43, 370.32 9.53 C369.77 9.63, 369.22 9.67, 368.67 9.67 C368.12 9.67, 367.56 9.63, 367.02 9.53 C366.48 9.43, 365.93 9.29, 365.42 9.1 C364.9 8.91, 364.39 8.68, 363.92 8.4 C363.44 8.13, 362.98 7.81, 362.56 7.45 C362.14 7.1, 361.74 6.7, 361.39 6.28 C361.04 5.86, 360.71 5.4, 360.44 4.92 C360.16 4.45, 359.93 3.94, 359.74 3.42 C359.55 2.91, 359.41 2.37, 359.31 1.82 C359.22 1.28, 359.17 0.72, 359.17 0.17 C359.17 -0.38, 359.22 -0.93, 359.31 -1.48 C359.41 -2.02, 359.55 -2.56, 359.74 -3.07 C359.93 -3.59, 360.16 -4.1, 360.44 -4.58 C360.71 -5.05, 361.04 -5.51, 361.39 -5.93 C361.74 -6.35, 362.14 -6.75, 362.56 -7.1 C362.98 -7.46, 363.44 -7.78, 363.92 -8.05 C364.39 -8.33, 364.9 -8.56, 365.42 -8.75 C365.93 -8.94, 366.48 -9.09, 367.02 -9.18 C367.56 -9.28, 368.12 -9.33, 368.67 -9.33 C369.22 -9.33, 369.77 -9.28, 370.32 -9.18 C370.86 -9.09, 371.4 -8.94, 371.92 -8.75 C372.43 -8.56, 372.94 -8.33, 373.42 -8.05 C373.89 -7.78, 374.35 -7.46, 374.77 -7.1 C375.19 -6.75, 375.59 -6.35, 375.94 -5.93 C376.3 -5.51, 376.62 -5.05, 376.89 -4.58 C377.17 -4.1, 377.41 -3.59, 377.59 -3.07 C377.78 -2.56, 377.93 -2.02, 378.02 -1.48 C378.12 -0.93, 378.14 -0.1, 378.17 0.17 C378.19 0.45, 378.19 -0.1, 378.17 0.17" stroke="none" stroke-width="0" fill="#000000"></path></g></g><mask></mask><g stroke-linecap="round"><g transform="translate(964.6666666666688 143.15878909861084) rotate(0 130.66666666666697 0.857329447528528)"><path d="M0 0 C43.56 0.29, 217.78 1.43, 261.33 1.71 M0 0 C43.56 0.29, 217.78 1.43, 261.33 1.71" stroke="#000000" stroke-width="4" fill="none"></path></g><g transform="translate(964.6666666666688 143.15878909861084) rotate(0 130.66666666666697 0.857329447528528)"><path d="M270.83 1.71 C270.83 2.26, 270.78 2.82, 270.69 3.36 C270.59 3.91, 270.45 4.45, 270.26 4.96 C270.07 5.48, 269.84 5.99, 269.56 6.46 C269.29 6.94, 268.96 7.4, 268.61 7.82 C268.26 8.24, 267.86 8.64, 267.44 8.99 C267.02 9.35, 266.56 9.67, 266.08 9.94 C265.61 10.22, 265.1 10.45, 264.58 10.64 C264.07 10.83, 263.52 10.97, 262.98 11.07 C262.44 11.17, 261.88 11.21, 261.33 11.21 C260.78 11.21, 260.23 11.17, 259.68 11.07 C259.14 10.97, 258.6 10.83, 258.08 10.64 C257.57 10.45, 257.06 10.22, 256.58 9.94 C256.11 9.67, 255.65 9.35, 255.23 8.99 C254.81 8.64, 254.41 8.24, 254.06 7.82 C253.7 7.4, 253.38 6.94, 253.11 6.46 C252.83 5.99, 252.59 5.48, 252.41 4.96 C252.22 4.45, 252.07 3.91, 251.98 3.36 C251.88 2.82, 251.83 2.26, 251.83 1.71 C251.83 1.16, 251.88 0.61, 251.98 0.07 C252.07 -0.48, 252.22 -1.02, 252.41 -1.53 C252.59 -2.05, 252.83 -2.56, 253.11 -3.04 C253.38 -3.51, 253.7 -3.97, 254.06 -4.39 C254.41 -4.81, 254.81 -5.21, 255.23 -5.56 C255.65 -5.92, 256.11 -6.24, 256.58 -6.51 C257.06 -6.79, 257.57 -7.02, 258.08 -7.21 C258.6 -7.4, 259.14 -7.55, 259.68 -7.64 C260.23 -7.74, 260.78 -7.79, 261.33 -7.79 C261.88 -7.79, 262.44 -7.74, 262.98 -7.64 C263.52 -7.55, 264.07 -7.4, 264.58 -7.21 C265.1 -7.02, 265.61 -6.79, 266.08 -6.51 C266.56 -6.24, 267.02 -5.92, 267.44 -5.56 C267.86 -5.21, 268.26 -4.81, 268.61 -4.39 C268.96 -3.97, 269.29 -3.51, 269.56 -3.04 C269.84 -2.56, 270.07 -2.05, 270.26 -1.53 C270.45 -1.02, 270.59 -0.48, 270.69 0.07 C270.78 0.61, 270.81 1.44, 270.83 1.71 C270.86 1.99, 270.86 1.44, 270.83 1.71" stroke="none" stroke-width="0" fill="#000000"></path></g></g><mask></mask><g mask="url(#mask-yq7Zt0-xTFo0WcFa3CmwG)" stroke-linecap="round"><g transform="translate(300.91666666666697 60.132768588812766) rotate(0 184.54166666666788 0.8656464787210822)"><path d="M0 0 C61.51 0.29, 307.57 1.44, 369.08 1.73 M0 0 C61.51 0.29, 307.57 1.44, 369.08 1.73" stroke="#000000" stroke-width="4" fill="none"></path></g><g transform="translate(300.91666666666697 60.132768588812766) rotate(0 184.54166666666788 0.8656464787210822)"><path d="M369.08 1.73 L355.46 8.01 L355.52 -4.67 L369.08 1.73" stroke="none" stroke-width="0" fill="#000000" fill-rule="evenodd"></path><path d="M369.08 1.73 C365.4 3.43, 361.71 5.13, 355.46 8.01 M369.08 1.73 C363.73 4.2, 358.38 6.66, 355.46 8.01 M355.46 8.01 C355.48 3.09, 355.51 -1.82, 355.52 -4.67 M355.46 8.01 C355.48 3.54, 355.5 -0.93, 355.52 -4.67 M355.52 -4.67 C359.02 -3.02, 362.52 -1.37, 369.08 1.73 M355.52 -4.67 C359.44 -2.82, 363.37 -0.97, 369.08 1.73 M369.08 1.73 C369.08 1.73, 369.08 1.73, 369.08 1.73 M369.08 1.73 C369.08 1.73, 369.08 1.73, 369.08 1.73" stroke="#000000" stroke-width="4" fill="none"></path></g></g><mask id="mask-yq7Zt0-xTFo0WcFa3CmwG"><rect x="0" y="0" fill="#fff" width="770.0000000000027" height="161.86406154625493"></rect><rect x="384.38411458333485" y="19.59841506753385" fill="#000" width="202.1484375" height="82.8" opacity="1"></rect></mask><g transform="translate(384.38411458333485 19.598415067533836) rotate(0 101.07421875 41.40000000000001)"><text x="101.07421875" y="0" font-family="Helvetica, Segoe UI Emoji" font-size="36px" fill="#000000" text-anchor="middle" style="white-space: pre;" direction="ltr" dominant-baseline="text-before-edge">Dependency</text><text x="101.07421875" y="41.4" font-family="Helvetica, Segoe UI Emoji" font-size="36px" fill="#000000" text-anchor="middle" style="white-space: pre;" direction="ltr" dominant-baseline="text-before-edge">Injection</text></g></svg>