<svg version="1.1" xmlns="http://www.w3.org/2000/svg" viewBox="0 0 1547 1251.5499999999997" width="3094" height="2503.0999999999995">
  <!-- svg-source:excalidraw -->
  
  <defs>
    <style class="style-fonts">
      @font-face {
        font-family: "Virgil";
        src: url("https://excalidraw.com/Virgil.woff2");
      }
      @font-face {
        font-family: "Cascadia";
        src: url("https://excalidraw.com/Cascadia.woff2");
      }
    </style>
  </defs>
  <rect x="0" y="0" width="1547" height="1251.5499999999997" fill="#ffffff"></rect><g stroke-linecap="round" transform="translate(10 258.3333333333333) rotate(0 97 89.5)"><path d="M32 0 M32 0 C73.42 0, 114.85 0, 162 0 M32 0 C63.27 0, 94.55 0, 162 0 M162 0 C183.33 0, 194 10.67, 194 32 M162 0 C183.33 0, 194 10.67, 194 32 M194 32 C194 58.91, 194 85.83, 194 147 M194 32 C194 76.55, 194 121.1, 194 147 M194 147 C194 168.33, 183.33 179, 162 179 M194 147 C194 168.33, 183.33 179, 162 179 M162 179 C128.17 179, 94.33 179, 32 179 M162 179 C128.03 179, 94.06 179, 32 179 M32 179 C10.67 179, 0 168.33, 0 147 M32 179 C10.67 179, 0 168.33, 0 147 M0 147 C0 114.31, 0 81.61, 0 32 M0 147 C0 111.21, 0 75.42, 0 32 M0 32 C0 10.67, 10.67 0, 32 0 M0 32 C0 10.67, 10.67 0, 32 0" stroke="#000000" stroke-width="4" fill="none"></path></g><g transform="translate(89 327.1333333333333) rotate(0 18 20.700000000000003)"><text x="18" y="0" font-family="Helvetica, Segoe UI Emoji" font-size="36px" fill="#000000" text-anchor="middle" style="white-space: pre;" direction="ltr" dominant-baseline="text-before-edge">UI</text></g><g stroke-linecap="round" transform="translate(606.666666666667 244.99999999999994) rotate(0 197.5 96)"><path d="M395 96 C395 98.51, 394.8 101.03, 394.39 103.53 C393.99 106.04, 393.38 108.54, 392.57 111.02 C391.76 113.5, 390.75 115.97, 389.54 118.41 C388.34 120.85, 386.93 123.28, 385.33 125.67 C383.74 128.05, 381.94 130.42, 379.97 132.74 C377.99 135.06, 375.82 137.35, 373.47 139.58 C371.13 141.82, 368.6 144.02, 365.9 146.16 C363.2 148.3, 360.32 150.4, 357.28 152.43 C354.24 154.46, 351.03 156.44, 347.68 158.35 C344.33 160.26, 340.81 162.11, 337.15 163.88 C333.5 165.66, 329.69 167.37, 325.77 169 C321.84 170.63, 317.77 172.19, 313.59 173.67 C309.41 175.14, 305.1 176.54, 300.69 177.85 C296.29 179.17, 291.77 180.4, 287.16 181.54 C282.56 182.68, 277.85 183.73, 273.08 184.69 C268.31 185.65, 263.44 186.53, 258.53 187.3 C253.62 188.08, 248.63 188.76, 243.61 189.35 C238.58 189.93, 233.5 190.43, 228.4 190.82 C223.29 191.21, 218.14 191.51, 213 191.7 C207.85 191.9, 202.67 192, 197.5 192 C192.33 192, 187.15 191.9, 182 191.7 C176.86 191.51, 171.71 191.21, 166.6 190.82 C161.5 190.43, 156.42 189.93, 151.39 189.35 C146.37 188.76, 141.38 188.08, 136.47 187.3 C131.56 186.53, 126.69 185.65, 121.92 184.69 C117.15 183.73, 112.44 182.68, 107.84 181.54 C103.23 180.4, 98.71 179.17, 94.31 177.85 C89.9 176.54, 85.59 175.14, 81.41 173.67 C77.23 172.19, 73.16 170.63, 69.23 169 C65.31 167.37, 61.5 165.66, 57.85 163.88 C54.19 162.11, 50.67 160.26, 47.32 158.35 C43.97 156.44, 40.76 154.46, 37.72 152.43 C34.68 150.4, 31.8 148.3, 29.1 146.16 C26.4 144.02, 23.87 141.82, 21.53 139.58 C19.18 137.35, 17.01 135.06, 15.03 132.74 C13.06 130.42, 11.26 128.05, 9.67 125.67 C8.07 123.28, 6.66 120.85, 5.46 118.41 C4.25 115.97, 3.24 113.5, 2.43 111.02 C1.62 108.54, 1.01 106.04, 0.61 103.53 C0.2 101.03, 0 98.51, 0 96 C0 93.49, 0.2 90.97, 0.61 88.47 C1.01 85.96, 1.62 83.46, 2.43 80.98 C3.24 78.5, 4.25 76.03, 5.46 73.59 C6.66 71.15, 8.07 68.72, 9.67 66.33 C11.26 63.95, 13.06 61.58, 15.03 59.26 C17.01 56.94, 19.18 54.65, 21.53 52.42 C23.87 50.18, 26.4 47.98, 29.1 45.84 C31.8 43.7, 34.68 41.6, 37.72 39.57 C40.76 37.54, 43.97 35.56, 47.32 33.65 C50.67 31.74, 54.19 29.89, 57.85 28.12 C61.5 26.34, 65.31 24.63, 69.23 23 C73.16 21.37, 77.23 19.81, 81.41 18.33 C85.59 16.86, 89.9 15.46, 94.31 14.15 C98.71 12.83, 103.23 11.6, 107.84 10.46 C112.44 9.32, 117.15 8.27, 121.92 7.31 C126.69 6.35, 131.56 5.47, 136.47 4.7 C141.38 3.92, 146.37 3.24, 151.39 2.65 C156.42 2.07, 161.5 1.57, 166.6 1.18 C171.71 0.79, 176.86 0.49, 182 0.3 C187.15 0.1, 192.33 0, 197.5 0 C202.67 0, 207.85 0.1, 213 0.3 C218.14 0.49, 223.29 0.79, 228.4 1.18 C233.5 1.57, 238.58 2.07, 243.61 2.65 C248.63 3.24, 253.62 3.92, 258.53 4.7 C263.44 5.47, 268.31 6.35, 273.08 7.31 C277.85 8.27, 282.56 9.32, 287.16 10.46 C291.77 11.6, 296.29 12.83, 300.69 14.15 C305.1 15.46, 309.41 16.86, 313.59 18.33 C317.77 19.81, 321.84 21.37, 325.77 23 C329.69 24.63, 333.5 26.34, 337.15 28.12 C340.81 29.89, 344.33 31.74, 347.68 33.65 C351.03 35.56, 354.24 37.54, 357.28 39.57 C360.32 41.6, 363.2 43.7, 365.9 45.84 C368.6 47.98, 371.13 50.18, 373.47 52.42 C375.82 54.65, 377.99 56.94, 379.97 59.26 C381.94 61.58, 383.74 63.95, 385.33 66.33 C386.93 68.72, 388.34 71.15, 389.54 73.59 C390.75 76.03, 391.76 78.5, 392.57 80.98 C393.38 83.46, 393.99 85.96, 394.39 88.47 C394.8 90.97, 395 93.49, 395 96" stroke="#000000" stroke-width="4" fill="none"></path></g><g transform="translate(669.9710851948239 320.41774900609136) rotate(0 134.0419921875 20.700000000000003)"><text x="134.0419921875" y="0" font-family="Helvetica, Segoe UI Emoji" font-size="36px" fill="#000000" text-anchor="middle" style="white-space: pre;" direction="ltr" dominant-baseline="text-before-edge">Withdraw Money</text></g><g stroke-linecap="round" transform="translate(1341.333333333334 258.83333333333326) rotate(0 97 89.5)"><path d="M32 0 M32 0 C83.66 0, 135.32 0, 162 0 M32 0 C61.66 0, 91.31 0, 162 0 M162 0 C183.33 0, 194 10.67, 194 32 M162 0 C183.33 0, 194 10.67, 194 32 M194 32 C194 77.7, 194 123.4, 194 147 M194 32 C194 63.79, 194 95.59, 194 147 M194 147 C194 168.33, 183.33 179, 162 179 M194 147 C194 168.33, 183.33 179, 162 179 M162 179 C111.6 179, 61.2 179, 32 179 M162 179 C118.91 179, 75.83 179, 32 179 M32 179 C10.67 179, 0 168.33, 0 147 M32 179 C10.67 179, 0 168.33, 0 147 M0 147 C0 101.53, 0 56.06, 0 32 M0 147 C0 119.2, 0 91.41, 0 32 M0 32 C0 10.67, 10.67 0, 32 0 M0 32 C0 10.67, 10.67 0, 32 0" stroke="#000000" stroke-width="4" fill="none"></path></g><g transform="translate(1420.333333333334 327.63333333333327) rotate(0 18 20.700000000000003)"><text x="18" y="0" font-family="Helvetica, Segoe UI Emoji" font-size="36px" fill="#000000" text-anchor="middle" style="white-space: pre;" direction="ltr" dominant-baseline="text-before-edge">UI</text></g><g mask="url(#mask-scuVtF1lkvNY1kaAVtVkw)" stroke-linecap="round"><g transform="translate(205 342.67456912986785) rotate(0 199.11988580123443 -2.355848125960577)"><path d="M0 0 C66.37 -0.79, 331.87 -3.93, 398.24 -4.71 M0 0 C66.37 -0.79, 331.87 -3.93, 398.24 -4.71" stroke="#000000" stroke-width="4" fill="none"></path></g><g transform="translate(205 342.67456912986785) rotate(0 199.11988580123443 -2.355848125960577)"><path d="M370.17 5.88 C376.56 3.47, 382.95 1.06, 398.24 -4.71 M370.17 5.88 C377.84 2.99, 385.5 0.1, 398.24 -4.71" stroke="#000000" stroke-width="4" fill="none"></path></g><g transform="translate(205 342.67456912986785) rotate(0 199.11988580123443 -2.355848125960577)"><path d="M369.93 -14.64 C376.38 -12.38, 382.82 -10.12, 398.24 -4.71 M369.93 -14.64 C377.66 -11.93, 385.39 -9.22, 398.24 -4.71" stroke="#000000" stroke-width="4" fill="none"></path></g></g><mask id="mask-scuVtF1lkvNY1kaAVtVkw"><rect x="0" y="0" fill="#fff" width="703.2397716024689" height="447.38626538178903"></rect><rect x="246.0573858012349" y="319.61872100390724" fill="#000" width="316.125" height="41.4" opacity="1"></rect></mask><g transform="translate(246.0573858012349 319.61872100390724) rotate(0 158.06249999999955 20.700000000000003)"><text x="158.0625" y="0" font-family="Helvetica, Segoe UI Emoji" font-size="36px" fill="#000000" text-anchor="middle" style="white-space: pre;" direction="ltr" dominant-baseline="text-before-edge">( Amount, Session )</text></g><g mask="url(#mask-Q5vRwjBagbBIo-zAcBJPt)" stroke-linecap="round"><g transform="translate(1006.6666666666679 342.5) rotate(0 162.5 -0.8333333333333428)"><path d="M0 0 C54.17 -0.28, 270.83 -1.39, 325 -1.67 M0 0 C54.17 -0.28, 270.83 -1.39, 325 -1.67" stroke="#000000" stroke-width="4" fill="none"></path></g><g transform="translate(1006.6666666666679 342.5) rotate(0 162.5 -0.8333333333333428)"><path d="M296.86 8.74 C303.21 6.39, 309.57 4.04, 325 -1.67 M296.86 8.74 C304.58 5.89, 312.29 3.03, 325 -1.67" stroke="#000000" stroke-width="4" fill="none"></path></g><g transform="translate(1006.6666666666679 342.5) rotate(0 162.5 -0.8333333333333428)"><path d="M296.76 -11.78 C303.13 -9.5, 309.51 -7.22, 325 -1.67 M296.76 -11.78 C304.5 -9.01, 312.25 -6.23, 325 -1.67" stroke="#000000" stroke-width="4" fill="none"></path></g></g><mask id="mask-Q5vRwjBagbBIo-zAcBJPt"><rect x="0" y="0" fill="#fff" width="1431.6666666666679" height="444.1666666666667"></rect><rect x="1066.1236979166679" y="320.9666666666667" fill="#000" width="206.0859375" height="41.4" opacity="1"></rect></mask><g transform="translate(1066.1236979166679 320.96666666666664) rotate(0 103.04296875 20.69999999999999)"><text x="103.04296875" y="0" font-family="Helvetica, Segoe UI Emoji" font-size="36px" fill="#000000" text-anchor="middle" style="white-space: pre;" direction="ltr" dominant-baseline="text-before-edge">( Response )</text></g><g transform="translate(1031.666666666667 10) rotate(0 149.853515625 82.80000000000001)"><text x="0" y="0" font-family="Helvetica, Segoe UI Emoji" font-size="36px" fill="#000000" text-anchor="start" style="white-space: pre;" direction="ltr" dominant-baseline="text-before-edge">Response</text><text x="0" y="41.4" font-family="Helvetica, Segoe UI Emoji" font-size="36px" fill="#000000" text-anchor="start" style="white-space: pre;" direction="ltr" dominant-baseline="text-before-edge">-------------------------</text><text x="0" y="82.8" font-family="Helvetica, Segoe UI Emoji" font-size="36px" fill="#000000" text-anchor="start" style="white-space: pre;" direction="ltr" dominant-baseline="text-before-edge">success: bool</text><text x="0" y="124.19999999999999" font-family="Helvetica, Segoe UI Emoji" font-size="36px" fill="#000000" text-anchor="start" style="white-space: pre;" direction="ltr" dominant-baseline="text-before-edge">messages: string*</text></g><g transform="translate(316.81315104166424 43.86666666666656) rotate(0 149.853515625 82.8)"><text x="0" y="0" font-family="Helvetica, Segoe UI Emoji" font-size="36px" fill="#000000" text-anchor="start" style="white-space: pre;" direction="ltr" dominant-baseline="text-before-edge">Session</text><text x="0" y="41.4" font-family="Helvetica, Segoe UI Emoji" font-size="36px" fill="#000000" text-anchor="start" style="white-space: pre;" direction="ltr" dominant-baseline="text-before-edge">-------------------------</text><text x="0" y="82.8" font-family="Helvetica, Segoe UI Emoji" font-size="36px" fill="#000000" text-anchor="start" style="white-space: pre;" direction="ltr" dominant-baseline="text-before-edge">userId: Guid</text><text x="0" y="124.19999999999999" font-family="Helvetica, Segoe UI Emoji" font-size="36px" fill="#000000" text-anchor="start" style="white-space: pre;" direction="ltr" dominant-baseline="text-before-edge">token: string</text></g><g stroke-linecap="round" transform="translate(10 524.5000000000002) rotate(0 97 89.5)"><path d="M32 0 M32 0 C72.05 0, 112.11 0, 162 0 M32 0 C62 0, 91.99 0, 162 0 M162 0 C183.33 0, 194 10.67, 194 32 M162 0 C183.33 0, 194 10.67, 194 32 M194 32 C194 71, 194 110, 194 147 M194 32 C194 67.19, 194 102.38, 194 147 M194 147 C194 168.33, 183.33 179, 162 179 M194 147 C194 168.33, 183.33 179, 162 179 M162 179 C123.58 179, 85.16 179, 32 179 M162 179 C118.18 179, 74.37 179, 32 179 M32 179 C10.67 179, 0 168.33, 0 147 M32 179 C10.67 179, 0 168.33, 0 147 M0 147 C0 111.68, 0 76.35, 0 32 M0 147 C0 104.57, 0 62.14, 0 32 M0 32 C0 10.67, 10.67 0, 32 0 M0 32 C0 10.67, 10.67 0, 32 0" stroke="#000000" stroke-width="4" fill="none"></path></g><g transform="translate(89 593.3000000000002) rotate(0 18 20.700000000000003)"><text x="18" y="0" font-family="Helvetica, Segoe UI Emoji" font-size="36px" fill="#000000" text-anchor="middle" style="white-space: pre;" direction="ltr" dominant-baseline="text-before-edge">UI</text></g><g stroke-linecap="round" transform="translate(606.6666666666661 511.1666666666668) rotate(0 197.5 96)"><path d="M395 96 C395 98.51, 394.8 101.03, 394.39 103.53 C393.99 106.04, 393.38 108.54, 392.57 111.02 C391.76 113.5, 390.75 115.97, 389.54 118.41 C388.34 120.85, 386.93 123.28, 385.33 125.67 C383.74 128.05, 381.94 130.42, 379.97 132.74 C377.99 135.06, 375.82 137.35, 373.47 139.58 C371.13 141.82, 368.6 144.02, 365.9 146.16 C363.2 148.3, 360.32 150.4, 357.28 152.43 C354.24 154.46, 351.03 156.44, 347.68 158.35 C344.33 160.26, 340.81 162.11, 337.15 163.88 C333.5 165.66, 329.69 167.37, 325.77 169 C321.84 170.63, 317.77 172.19, 313.59 173.67 C309.41 175.14, 305.1 176.54, 300.69 177.85 C296.29 179.17, 291.77 180.4, 287.16 181.54 C282.56 182.68, 277.85 183.73, 273.08 184.69 C268.31 185.65, 263.44 186.53, 258.53 187.3 C253.62 188.08, 248.63 188.76, 243.61 189.35 C238.58 189.93, 233.5 190.43, 228.4 190.82 C223.29 191.21, 218.14 191.51, 213 191.7 C207.85 191.9, 202.67 192, 197.5 192 C192.33 192, 187.15 191.9, 182 191.7 C176.86 191.51, 171.71 191.21, 166.6 190.82 C161.5 190.43, 156.42 189.93, 151.39 189.35 C146.37 188.76, 141.38 188.08, 136.47 187.3 C131.56 186.53, 126.69 185.65, 121.92 184.69 C117.15 183.73, 112.44 182.68, 107.84 181.54 C103.23 180.4, 98.71 179.17, 94.31 177.85 C89.9 176.54, 85.59 175.14, 81.41 173.67 C77.23 172.19, 73.16 170.63, 69.23 169 C65.31 167.37, 61.5 165.66, 57.85 163.88 C54.19 162.11, 50.67 160.26, 47.32 158.35 C43.97 156.44, 40.76 154.46, 37.72 152.43 C34.68 150.4, 31.8 148.3, 29.1 146.16 C26.4 144.02, 23.87 141.82, 21.53 139.58 C19.18 137.35, 17.01 135.06, 15.03 132.74 C13.06 130.42, 11.26 128.05, 9.67 125.67 C8.07 123.28, 6.66 120.85, 5.46 118.41 C4.25 115.97, 3.24 113.5, 2.43 111.02 C1.62 108.54, 1.01 106.04, 0.61 103.53 C0.2 101.03, 0 98.51, 0 96 C0 93.49, 0.2 90.97, 0.61 88.47 C1.01 85.96, 1.62 83.46, 2.43 80.98 C3.24 78.5, 4.25 76.03, 5.46 73.59 C6.66 71.15, 8.07 68.72, 9.67 66.33 C11.26 63.95, 13.06 61.58, 15.03 59.26 C17.01 56.94, 19.18 54.65, 21.53 52.42 C23.87 50.18, 26.4 47.98, 29.1 45.84 C31.8 43.7, 34.68 41.6, 37.72 39.57 C40.76 37.54, 43.97 35.56, 47.32 33.65 C50.67 31.74, 54.19 29.89, 57.85 28.12 C61.5 26.34, 65.31 24.63, 69.23 23 C73.16 21.37, 77.23 19.81, 81.41 18.33 C85.59 16.86, 89.9 15.46, 94.31 14.15 C98.71 12.83, 103.23 11.6, 107.84 10.46 C112.44 9.32, 117.15 8.27, 121.92 7.31 C126.69 6.35, 131.56 5.47, 136.47 4.7 C141.38 3.92, 146.37 3.24, 151.39 2.65 C156.42 2.07, 161.5 1.57, 166.6 1.18 C171.71 0.79, 176.86 0.49, 182 0.3 C187.15 0.1, 192.33 0, 197.5 0 C202.67 0, 207.85 0.1, 213 0.3 C218.14 0.49, 223.29 0.79, 228.4 1.18 C233.5 1.57, 238.58 2.07, 243.61 2.65 C248.63 3.24, 253.62 3.92, 258.53 4.7 C263.44 5.47, 268.31 6.35, 273.08 7.31 C277.85 8.27, 282.56 9.32, 287.16 10.46 C291.77 11.6, 296.29 12.83, 300.69 14.15 C305.1 15.46, 309.41 16.86, 313.59 18.33 C317.77 19.81, 321.84 21.37, 325.77 23 C329.69 24.63, 333.5 26.34, 337.15 28.12 C340.81 29.89, 344.33 31.74, 347.68 33.65 C351.03 35.56, 354.24 37.54, 357.28 39.57 C360.32 41.6, 363.2 43.7, 365.9 45.84 C368.6 47.98, 371.13 50.18, 373.47 52.42 C375.82 54.65, 377.99 56.94, 379.97 59.26 C381.94 61.58, 383.74 63.95, 385.33 66.33 C386.93 68.72, 388.34 71.15, 389.54 73.59 C390.75 76.03, 391.76 78.5, 392.57 80.98 C393.38 83.46, 393.99 85.96, 394.39 88.47 C394.8 90.97, 395 93.49, 395 96" stroke="#000000" stroke-width="4" fill="none"></path></g><g transform="translate(683.954483632323 586.5844156727583) rotate(0 120.05859375 20.699999999999996)"><text x="120.05859375" y="0" font-family="Helvetica, Segoe UI Emoji" font-size="36px" fill="#000000" text-anchor="middle" style="white-space: pre;" direction="ltr" dominant-baseline="text-before-edge">Deposit Money</text></g><g stroke-linecap="round" transform="translate(1341.3333333333321 525.0000000000001) rotate(0 97 89.5)"><path d="M32 0 M32 0 C74 0, 116.01 0, 162 0 M32 0 C63.66 0, 95.33 0, 162 0 M162 0 C183.33 0, 194 10.67, 194 32 M162 0 C183.33 0, 194 10.67, 194 32 M194 32 C194 67.53, 194 103.06, 194 147 M194 32 C194 69.21, 194 106.42, 194 147 M194 147 C194 168.33, 183.33 179, 162 179 M194 147 C194 168.33, 183.33 179, 162 179 M162 179 C126.67 179, 91.34 179, 32 179 M162 179 C115.17 179, 68.33 179, 32 179 M32 179 C10.67 179, 0 168.33, 0 147 M32 179 C10.67 179, 0 168.33, 0 147 M0 147 C0 110.66, 0 74.32, 0 32 M0 147 C0 109, 0 71, 0 32 M0 32 C0 10.67, 10.67 0, 32 0 M0 32 C0 10.67, 10.67 0, 32 0" stroke="#000000" stroke-width="4" fill="none"></path></g><g transform="translate(1420.3333333333321 593.8000000000002) rotate(0 18 20.700000000000003)"><text x="18" y="0" font-family="Helvetica, Segoe UI Emoji" font-size="36px" fill="#000000" text-anchor="middle" style="white-space: pre;" direction="ltr" dominant-baseline="text-before-edge">UI</text></g><g mask="url(#mask-i_0UNRvyRzYIXEXSJBhdu)" stroke-linecap="round"><g transform="translate(205 608.8412357965346) rotate(0 199.11988580123443 -2.355848125960577)"><path d="M0 0 C66.37 -0.79, 331.87 -3.93, 398.24 -4.71 M0 0 C66.37 -0.79, 331.87 -3.93, 398.24 -4.71" stroke="#000000" stroke-width="4" fill="none"></path></g><g transform="translate(205 608.8412357965346) rotate(0 199.11988580123443 -2.355848125960577)"><path d="M370.17 5.88 C377.99 2.93, 385.8 -0.02, 398.24 -4.71 M370.17 5.88 C377.24 3.21, 384.31 0.54, 398.24 -4.71" stroke="#000000" stroke-width="4" fill="none"></path></g><g transform="translate(205 608.8412357965346) rotate(0 199.11988580123443 -2.355848125960577)"><path d="M369.93 -14.64 C377.81 -11.87, 385.69 -9.11, 398.24 -4.71 M369.93 -14.64 C377.06 -12.14, 384.19 -9.64, 398.24 -4.71" stroke="#000000" stroke-width="4" fill="none"></path></g></g><mask id="mask-i_0UNRvyRzYIXEXSJBhdu"><rect x="0" y="0" fill="#fff" width="703.2397716024689" height="713.5529320484558"></rect><rect x="246.0573858012349" y="585.785387670574" fill="#000" width="316.125" height="41.4" opacity="1"></rect></mask><g transform="translate(246.0573858012349 585.7853876705742) rotate(0 158.06249999999955 20.69999999999999)"><text x="158.0625" y="0" font-family="Helvetica, Segoe UI Emoji" font-size="36px" fill="#000000" text-anchor="middle" style="white-space: pre;" direction="ltr" dominant-baseline="text-before-edge">( Amount, Session )</text></g><g mask="url(#mask-Ikq3l-VRs02lG-MNKOcCh)" stroke-linecap="round"><g transform="translate(1006.6666666666679 608.6666666666669) rotate(0 162.5 -0.8333333333333428)"><path d="M0 0 C54.17 -0.28, 270.83 -1.39, 325 -1.67 M0 0 C54.17 -0.28, 270.83 -1.39, 325 -1.67" stroke="#000000" stroke-width="4" fill="none"></path></g><g transform="translate(1006.6666666666679 608.6666666666669) rotate(0 162.5 -0.8333333333333428)"><path d="M296.86 8.74 C305.4 5.58, 313.94 2.42, 325 -1.67 M296.86 8.74 C305.75 5.45, 314.65 2.16, 325 -1.67" stroke="#000000" stroke-width="4" fill="none"></path></g><g transform="translate(1006.6666666666679 608.6666666666669) rotate(0 162.5 -0.8333333333333428)"><path d="M296.76 -11.78 C305.33 -8.71, 313.9 -5.64, 325 -1.67 M296.76 -11.78 C305.68 -8.59, 314.61 -5.39, 325 -1.67" stroke="#000000" stroke-width="4" fill="none"></path></g></g><mask id="mask-Ikq3l-VRs02lG-MNKOcCh"><rect x="0" y="0" fill="#fff" width="1431.6666666666679" height="710.3333333333335"></rect><rect x="1066.1236979166679" y="587.1333333333336" fill="#000" width="206.0859375" height="41.4" opacity="1"></rect></mask><g transform="translate(1066.1236979166679 587.1333333333334) rotate(0 103.04296875 20.700000000000003)"><text x="103.04296875" y="0" font-family="Helvetica, Segoe UI Emoji" font-size="36px" fill="#000000" text-anchor="middle" style="white-space: pre;" direction="ltr" dominant-baseline="text-before-edge">( Response )</text></g><g stroke-linecap="round" transform="translate(11.66666666666788 793.666666666667) rotate(0 97 89.5)"><path d="M32 0 M32 0 C67.58 0, 103.16 0, 162 0 M32 0 C71.83 0, 111.66 0, 162 0 M162 0 C183.33 0, 194 10.67, 194 32 M162 0 C183.33 0, 194 10.67, 194 32 M194 32 C194 56.87, 194 81.75, 194 147 M194 32 C194 63.78, 194 95.56, 194 147 M194 147 C194 168.33, 183.33 179, 162 179 M194 147 C194 168.33, 183.33 179, 162 179 M162 179 C133.71 179, 105.41 179, 32 179 M162 179 C130.21 179, 98.42 179, 32 179 M32 179 C10.67 179, 0 168.33, 0 147 M32 179 C10.67 179, 0 168.33, 0 147 M0 147 C0 121.2, 0 95.4, 0 32 M0 147 C0 101.33, 0 55.65, 0 32 M0 32 C0 10.67, 10.67 0, 32 0 M0 32 C0 10.67, 10.67 0, 32 0" stroke="#000000" stroke-width="4" fill="none"></path></g><g transform="translate(90.66666666666788 862.4666666666669) rotate(0 18 20.69999999999999)"><text x="18" y="0" font-family="Helvetica, Segoe UI Emoji" font-size="36px" fill="#000000" text-anchor="middle" style="white-space: pre;" direction="ltr" dominant-baseline="text-before-edge">UI</text></g><g stroke-linecap="round" transform="translate(608.3333333333339 780.3333333333336) rotate(0 197.5 96)"><path d="M395 96 C395 98.51, 394.8 101.03, 394.39 103.53 C393.99 106.04, 393.38 108.54, 392.57 111.02 C391.76 113.5, 390.75 115.97, 389.54 118.41 C388.34 120.85, 386.93 123.28, 385.33 125.67 C383.74 128.05, 381.94 130.42, 379.97 132.74 C377.99 135.06, 375.82 137.35, 373.47 139.58 C371.13 141.82, 368.6 144.02, 365.9 146.16 C363.2 148.3, 360.32 150.4, 357.28 152.43 C354.24 154.46, 351.03 156.44, 347.68 158.35 C344.33 160.26, 340.81 162.11, 337.15 163.88 C333.5 165.66, 329.69 167.37, 325.77 169 C321.84 170.63, 317.77 172.19, 313.59 173.67 C309.41 175.14, 305.1 176.54, 300.69 177.85 C296.29 179.17, 291.77 180.4, 287.16 181.54 C282.56 182.68, 277.85 183.73, 273.08 184.69 C268.31 185.65, 263.44 186.53, 258.53 187.3 C253.62 188.08, 248.63 188.76, 243.61 189.35 C238.58 189.93, 233.5 190.43, 228.4 190.82 C223.29 191.21, 218.14 191.51, 213 191.7 C207.85 191.9, 202.67 192, 197.5 192 C192.33 192, 187.15 191.9, 182 191.7 C176.86 191.51, 171.71 191.21, 166.6 190.82 C161.5 190.43, 156.42 189.93, 151.39 189.35 C146.37 188.76, 141.38 188.08, 136.47 187.3 C131.56 186.53, 126.69 185.65, 121.92 184.69 C117.15 183.73, 112.44 182.68, 107.84 181.54 C103.23 180.4, 98.71 179.17, 94.31 177.85 C89.9 176.54, 85.59 175.14, 81.41 173.67 C77.23 172.19, 73.16 170.63, 69.23 169 C65.31 167.37, 61.5 165.66, 57.85 163.88 C54.19 162.11, 50.67 160.26, 47.32 158.35 C43.97 156.44, 40.76 154.46, 37.72 152.43 C34.68 150.4, 31.8 148.3, 29.1 146.16 C26.4 144.02, 23.87 141.82, 21.53 139.58 C19.18 137.35, 17.01 135.06, 15.03 132.74 C13.06 130.42, 11.26 128.05, 9.67 125.67 C8.07 123.28, 6.66 120.85, 5.46 118.41 C4.25 115.97, 3.24 113.5, 2.43 111.02 C1.62 108.54, 1.01 106.04, 0.61 103.53 C0.2 101.03, 0 98.51, 0 96 C0 93.49, 0.2 90.97, 0.61 88.47 C1.01 85.96, 1.62 83.46, 2.43 80.98 C3.24 78.5, 4.25 76.03, 5.46 73.59 C6.66 71.15, 8.07 68.72, 9.67 66.33 C11.26 63.95, 13.06 61.58, 15.03 59.26 C17.01 56.94, 19.18 54.65, 21.53 52.42 C23.87 50.18, 26.4 47.98, 29.1 45.84 C31.8 43.7, 34.68 41.6, 37.72 39.57 C40.76 37.54, 43.97 35.56, 47.32 33.65 C50.67 31.74, 54.19 29.89, 57.85 28.12 C61.5 26.34, 65.31 24.63, 69.23 23 C73.16 21.37, 77.23 19.81, 81.41 18.33 C85.59 16.86, 89.9 15.46, 94.31 14.15 C98.71 12.83, 103.23 11.6, 107.84 10.46 C112.44 9.32, 117.15 8.27, 121.92 7.31 C126.69 6.35, 131.56 5.47, 136.47 4.7 C141.38 3.92, 146.37 3.24, 151.39 2.65 C156.42 2.07, 161.5 1.57, 166.6 1.18 C171.71 0.79, 176.86 0.49, 182 0.3 C187.15 0.1, 192.33 0, 197.5 0 C202.67 0, 207.85 0.1, 213 0.3 C218.14 0.49, 223.29 0.79, 228.4 1.18 C233.5 1.57, 238.58 2.07, 243.61 2.65 C248.63 3.24, 253.62 3.92, 258.53 4.7 C263.44 5.47, 268.31 6.35, 273.08 7.31 C277.85 8.27, 282.56 9.32, 287.16 10.46 C291.77 11.6, 296.29 12.83, 300.69 14.15 C305.1 15.46, 309.41 16.86, 313.59 18.33 C317.77 19.81, 321.84 21.37, 325.77 23 C329.69 24.63, 333.5 26.34, 337.15 28.12 C340.81 29.89, 344.33 31.74, 347.68 33.65 C351.03 35.56, 354.24 37.54, 357.28 39.57 C360.32 41.6, 363.2 43.7, 365.9 45.84 C368.6 47.98, 371.13 50.18, 373.47 52.42 C375.82 54.65, 377.99 56.94, 379.97 59.26 C381.94 61.58, 383.74 63.95, 385.33 66.33 C386.93 68.72, 388.34 71.15, 389.54 73.59 C390.75 76.03, 391.76 78.5, 392.57 80.98 C393.38 83.46, 393.99 85.96, 394.39 88.47 C394.8 90.97, 395 93.49, 395 96" stroke="#000000" stroke-width="4" fill="none"></path></g><g transform="translate(690.6045487364909 855.751082339425) rotate(0 115.0751953125 20.69999999999999)"><text x="115.0751953125" y="0" font-family="Helvetica, Segoe UI Emoji" font-size="36px" fill="#000000" text-anchor="middle" style="white-space: pre;" direction="ltr" dominant-baseline="text-before-edge">Show Balance</text></g><g stroke-linecap="round" transform="translate(1343 794.166666666667) rotate(0 97 89.5)"><path d="M32 0 M32 0 C73.28 0, 114.56 0, 162 0 M32 0 C72.25 0, 112.51 0, 162 0 M162 0 C183.33 0, 194 10.67, 194 32 M162 0 C183.33 0, 194 10.67, 194 32 M194 32 C194 57.9, 194 83.81, 194 147 M194 32 C194 75.8, 194 119.6, 194 147 M194 147 C194 168.33, 183.33 179, 162 179 M194 147 C194 168.33, 183.33 179, 162 179 M162 179 C126.25 179, 90.51 179, 32 179 M162 179 C134.27 179, 106.53 179, 32 179 M32 179 C10.67 179, 0 168.33, 0 147 M32 179 C10.67 179, 0 168.33, 0 147 M0 147 C0 118.21, 0 89.42, 0 32 M0 147 C0 116.82, 0 86.64, 0 32 M0 32 C0 10.67, 10.67 0, 32 0 M0 32 C0 10.67, 10.67 0, 32 0" stroke="#000000" stroke-width="4" fill="none"></path></g><g transform="translate(1422 862.9666666666669) rotate(0 18 20.69999999999999)"><text x="18" y="0" font-family="Helvetica, Segoe UI Emoji" font-size="36px" fill="#000000" text-anchor="middle" style="white-space: pre;" direction="ltr" dominant-baseline="text-before-edge">UI</text></g><g mask="url(#mask-o1fk-8wWYewWg9uXbYNNs)" stroke-linecap="round"><g transform="translate(206.66666666666788 878.0079024632015) rotate(0 199.11988580123443 -2.355848125960563)"><path d="M0 0 C66.37 -0.79, 331.87 -3.93, 398.24 -4.71 M0 0 C66.37 -0.79, 331.87 -3.93, 398.24 -4.71" stroke="#000000" stroke-width="4" fill="none"></path></g><g transform="translate(206.66666666666788 878.0079024632015) rotate(0 199.11988580123443 -2.355848125960563)"><path d="M370.17 5.88 C375.96 3.7, 381.74 1.52, 398.24 -4.71 M370.17 5.88 C379.35 2.42, 388.52 -1.04, 398.24 -4.71" stroke="#000000" stroke-width="4" fill="none"></path></g><g transform="translate(206.66666666666788 878.0079024632015) rotate(0 199.11988580123443 -2.355848125960563)"><path d="M369.93 -14.64 C375.76 -12.59, 381.6 -10.55, 398.24 -4.71 M369.93 -14.64 C379.18 -11.39, 388.43 -8.15, 398.24 -4.71" stroke="#000000" stroke-width="4" fill="none"></path></g></g><mask id="mask-o1fk-8wWYewWg9uXbYNNs"><rect x="0" y="0" fill="#fff" width="704.9064382691367" height="982.7195987151226"></rect><rect x="319.75920871790277" y="854.9520543372408" fill="#000" width="172.0546875" height="41.4" opacity="1"></rect></mask><g transform="translate(319.75920871790277 854.952054337241) rotate(0 86.02734374999955 20.69999999999999)"><text x="86.02734375" y="0" font-family="Helvetica, Segoe UI Emoji" font-size="36px" fill="#000000" text-anchor="middle" style="white-space: pre;" direction="ltr" dominant-baseline="text-before-edge">( Session )</text></g><g mask="url(#mask-4VnbptjSpM4QZJyYjCkQX)" stroke-linecap="round"><g transform="translate(1008.3333333333358 877.8333333333337) rotate(0 162.5 -0.8333333333333428)"><path d="M0 0 C54.17 -0.28, 270.83 -1.39, 325 -1.67 M0 0 C54.17 -0.28, 270.83 -1.39, 325 -1.67" stroke="#000000" stroke-width="4" fill="none"></path></g><g transform="translate(1008.3333333333358 877.8333333333337) rotate(0 162.5 -0.8333333333333428)"><path d="M296.86 8.74 C306.79 5.07, 316.72 1.4, 325 -1.67 M296.86 8.74 C302.59 6.62, 308.31 4.51, 325 -1.67" stroke="#000000" stroke-width="4" fill="none"></path></g><g transform="translate(1008.3333333333358 877.8333333333337) rotate(0 162.5 -0.8333333333333428)"><path d="M296.76 -11.78 C306.72 -8.21, 316.69 -4.64, 325 -1.67 M296.76 -11.78 C302.5 -9.72, 308.25 -7.67, 325 -1.67" stroke="#000000" stroke-width="4" fill="none"></path></g></g><mask id="mask-4VnbptjSpM4QZJyYjCkQX"><rect x="0" y="0" fill="#fff" width="1433.3333333333358" height="979.5000000000005"></rect><rect x="1083.7864583333358" y="835.6000000000004" fill="#000" width="174.09375" height="82.8" opacity="1"></rect></mask><g transform="translate(1083.7864583333358 835.6000000000004) rotate(0 87.046875 41.39999999999995)"><text x="87.046875" y="0" font-family="Helvetica, Segoe UI Emoji" font-size="36px" fill="#000000" text-anchor="middle" style="white-space: pre;" direction="ltr" dominant-baseline="text-before-edge">(Balance</text><text x="87.046875" y="41.4" font-family="Helvetica, Segoe UI Emoji" font-size="36px" fill="#000000" text-anchor="middle" style="white-space: pre;" direction="ltr" dominant-baseline="text-before-edge">Response)</text></g><g transform="translate(713.8131510416688 1015.2833333333333) rotate(0 207.4306640625 103.5)"><text x="0" y="0" font-family="Helvetica, Segoe UI Emoji" font-size="36px" fill="#000000" text-anchor="start" style="white-space: pre;" direction="ltr" dominant-baseline="text-before-edge">BalanceResponse</text><text x="0" y="41.4" font-family="Helvetica, Segoe UI Emoji" font-size="36px" fill="#000000" text-anchor="start" style="white-space: pre;" direction="ltr" dominant-baseline="text-before-edge">-------------------------</text><text x="0" y="82.8" font-family="Helvetica, Segoe UI Emoji" font-size="36px" fill="#000000" text-anchor="start" style="white-space: pre;" direction="ltr" dominant-baseline="text-before-edge">success: bool</text><text x="0" y="124.19999999999999" font-family="Helvetica, Segoe UI Emoji" font-size="36px" fill="#000000" text-anchor="start" style="white-space: pre;" direction="ltr" dominant-baseline="text-before-edge">transactions: Transaction*</text><text x="0" y="165.6" font-family="Helvetica, Segoe UI Emoji" font-size="36px" fill="#000000" text-anchor="start" style="white-space: pre;" direction="ltr" dominant-baseline="text-before-edge">balance: Decimal?</text></g><g transform="translate(1146.9026692708358 1075.9499999999996) rotate(0 149.853515625 82.80000000000001)"><text x="0" y="0" font-family="Helvetica, Segoe UI Emoji" font-size="36px" fill="#000000" text-anchor="start" style="white-space: pre;" direction="ltr" dominant-baseline="text-before-edge">Transaction</text><text x="0" y="41.4" font-family="Helvetica, Segoe UI Emoji" font-size="36px" fill="#000000" text-anchor="start" style="white-space: pre;" direction="ltr" dominant-baseline="text-before-edge">-------------------------</text><text x="0" y="82.8" font-family="Helvetica, Segoe UI Emoji" font-size="36px" fill="#000000" text-anchor="start" style="white-space: pre;" direction="ltr" dominant-baseline="text-before-edge">date: DateTime</text><text x="0" y="124.19999999999999" font-family="Helvetica, Segoe UI Emoji" font-size="36px" fill="#000000" text-anchor="start" style="white-space: pre;" direction="ltr" dominant-baseline="text-before-edge">amount: Decimal</text></g></svg>