<?xml version="1.0" encoding="UTF-8" standalone="no"?>
<svg
   xmlns:dc="http://purl.org/dc/elements/1.1/"
   xmlns:cc="http://creativecommons.org/ns#"
   xmlns:rdf="http://www.w3.org/1999/02/22-rdf-syntax-ns#"
   xmlns:svg="http://www.w3.org/2000/svg"
   xmlns="http://www.w3.org/2000/svg"
   xmlns:sodipodi="http://sodipodi.sourceforge.net/DTD/sodipodi-0.dtd"
   xmlns:inkscape="http://www.inkscape.org/namespaces/inkscape"
   version="1.1"
   id="Ebene_1"
   x="0px"
   y="0px"
   viewBox="0 0 507.89977 704.33953"
   xml:space="preserve"
   sodipodi:docname="dcn.svg"
   width="507.89978"
   height="704.33954"
   inkscape:version="1.0 (4035a4fb49, 2020-05-01)"><metadata
   id="metadata107"><rdf:RDF><cc:Work
       rdf:about=""><dc:format>image/svg+xml</dc:format><dc:type
         rdf:resource="http://purl.org/dc/dcmitype/StillImage" /><dc:title></dc:title></cc:Work></rdf:RDF></metadata><defs
   id="defs105" /><sodipodi:namedview
   pagecolor="#ffffff"
   bordercolor="#666666"
   borderopacity="1"
   objecttolerance="10"
   gridtolerance="10"
   guidetolerance="10"
   inkscape:pageopacity="0"
   inkscape:pageshadow="2"
   inkscape:window-width="2560"
   inkscape:window-height="1377"
   id="namedview103"
   showgrid="false"
   inkscape:zoom="1.197306"
   inkscape:cx="696.74344"
   inkscape:cy="455.3004"
   inkscape:window-x="-8"
   inkscape:window-y="-8"
   inkscape:window-maximized="1"
   inkscape:current-layer="Ebene_1"
   inkscape:document-rotation="0"
   fit-margin-top="50"
   fit-margin-left="50"
   fit-margin-bottom="50"
   fit-margin-right="50" />
<style
   type="text/css"
   id="style2">
	.st0{fill:#FFFFFF;}
	.st1{fill:#8C5E12;}
</style>
<path
   d="m 417.48762,408.24955 c 1.2,0.5 4.76,-0.29 5.72,-0.86 7.89,-7.06 11.83,-14.46 11.83,-22.2 v -43.54 c 0,-6.83 3.36,-11.61 10.07,-14.34 1.7,-0.8 2.56,-3.87 2.56,-9.22 0,-5.35 -0.85,-8.54 -2.56,-9.56 -2.88,-1.37 -5.28,-3.47 -7.19,-6.32 -1.92,-2.85 -2.88,-5.64 -2.88,-8.37 v -40.98 c 0,-4.1 -0.64,-7.85 -1.92,-11.27 -1.28,-3.42 -2.58,-5.94 -3.92,-7.6 -1.33,-1.65 -3.12,-3.61 -5.35,-5.89 -0.56,-0.52 -1.37,-0.78 -2.3,-0.9 -0.19,-0.05 -0.38,-0.13 -0.59,-0.13 h -163.73 c -2.58,0 -4.67,2.22 -4.67,4.95 v 166.73 c 0,5.24 4.01,9.49 8.96,9.49 h 155.97 z"
   id="path4" />
<path
   d="m 75.027614,392.00955 c -0.14,3.22 0.38,6.06 0.92,7.02 6.66,7.89 13.54,10.53 20.85,10.53 h 41.110006 c 6.45,0 10.96,3.36 13.54,10.07 0.75,1.7 3.66,2.56 8.71,2.56 5.05,0 8.06,-0.85 9.03,-2.56 1.29,-2.88 3.28,-5.28 5.96,-7.19 2.69,-1.92 5.32,-2.88 7.9,-2.88 h 38.69 c 3.87,0 7.42,-0.64 10.64,-1.92 3.22,-1.28 5.61,-2.58 7.17,-3.92 1.55,-1.33 3.41,-3.12 5.56,-5.35 0.49,-0.56 0.73,-1.37 0.85,-2.3 0.05,-0.19 0.12,-0.38 0.12,-0.59 v -163.74 c 0,-2.58 -2.09,-4.67 -4.67,-4.67 H 83.987614 c -4.95,0 -8.96,4.01 -8.96,8.96 z"
   id="path6" />
<path
   d="m 81.147614,50.14955 c -1.2,-0.47 -4.76,0.27 -5.72,0.81 -7.89,6.66 -11.83,13.65 -11.83,20.96 v 41.11 c 0,6.45 -3.36,10.96 -10.07,13.54 -1.7,0.75 -2.56,3.66 -2.56,8.71 0,5.05 0.85,8.06 2.56,9.03 2.88,1.29 5.28,3.28 7.19,5.96 1.92,2.69 2.88,5.32 2.88,7.9 v 38.69 c 0,3.87 0.64,7.42 1.92,10.64 1.28,3.22 2.58,5.61 3.92,7.17 1.33,1.55 3.12,3.41 5.35,5.56 0.56,0.49 1.37,0.73 2.3,0.85 0.19,0.05 0.38,0.12 0.59,0.12 H 241.41762 c 2.58,0 4.67,-2.09 4.67,-4.67 v -157.42 c 0,-4.95 -4.01,-8.96 -8.96,-8.96 z"
   id="path8" />
<g
   id="g12"
   transform="translate(-44.062386,-69.21045)">
	<path
   class="st0"
   d="m 270.58,178.6 c -2.87,-13.42 -8.56,-27.57 -24,-33.1 -1.57,-2.69 -4.41,-2.85 -7.05,-3.4 -4.05,-5.84 -10.45,-6.47 -16.77,-7.9 -13.03,-2.96 -26.47,-2.19 -39.12,-0.87 -13.16,1.38 -25.89,-1.66 -38.8,-0.06 -7.5,0.93 -9.76,5.05 -9.68,12.16 0.31,26.91 -0.55,53.86 0.77,80.71 0.61,12.43 -2.44,24.59 -0.58,36.99 0.11,0.74 0.34,1.41 0.64,2.03 -0.4,1.68 -0.36,3.47 0.21,5.1 0.9,2.59 2.5,4.57 4.69,6.17 0.63,0.46 1.33,0.81 2.06,1.1 -0.02,0.11 -0.02,0.2 -0.04,0.31 -0.14,0.71 2.14,0.83 4.74,0.72 0.24,0.02 0.49,0.05 0.72,0.06 1.87,0.08 3.75,-0.16 5.6,-0.47 1.69,0.22 3.83,0.82 4.12,-1.63 0.24,-0.26 0.46,-0.53 0.62,-0.79 0.13,-0.22 0.24,-0.47 0.33,-0.73 16.07,-0.06 32.13,-0.11 48.2,-0.17 3.6,1.81 8.28,1.96 14.31,0.68 -2.53,-2.15 -6.32,-4.25 -3.64,-8.03 3.57,-5.03 8.51,-2.01 9.96,1.58 3.14,7.76 7.62,5.5 12.7,3.32 15.25,-6.55 24.47,-18.52 29.64,-33.84 6.7,-19.86 4.56,-40.35 0.37,-59.94 z m -84.46,75.92 c 0,0.28 0,0.56 0,0.83 0,0.31 0.07,0.61 0.09,0.92 -2.7,-0.22 -5.41,-0.44 -8.11,-0.67 0.57,-0.44 1.09,-0.96 1.54,-1.55 z m 10.39,0.75 c 0.47,0.6 0.81,1.25 1.08,1.93 -2.76,-0.23 -5.51,-0.45 -8.27,-0.68 0.01,-0.62 0.07,-1.22 0.27,-1.75 z m -5.85,-1.99 c 1.42,-1.29 2.82,-0.62 4.11,0.37 -1.36,-0.14 -2.73,-0.27 -4.11,-0.37 z M 172.29,172.7 c 3.2,0.68 2.58,3.38 3.4,5.11 1.05,2.23 -0.65,3.38 -2.3,2.78 -1.29,-0.47 -2.62,-2.37 -2.85,-3.8 -0.21,-1.25 1.11,-2.74 1.75,-4.09 z m -1.74,42.53 c 0.43,0.18 0.87,0.35 1.31,0.53 -0.59,0.46 -1.18,0.92 -1.76,1.38 -0.25,-0.38 -0.49,-0.76 -0.74,-1.14 0.4,-0.26 0.8,-0.51 1.19,-0.77 z m -18.57,-70.38 0.39,1.17 -0.77,-0.01 z m -0.53,59.88 c -0.35,-0.08 -0.89,-0.05 -1,-0.26 -0.11,-0.19 -0.15,-0.42 -0.19,-0.66 0.4,0.31 0.8,0.62 1.19,0.92 z m -1.76,-1.77 c -0.48,-0.07 -0.69,0.05 -0.77,0.2 -0.03,-0.15 -0.08,-0.36 -0.17,-0.64 -0.27,-0.85 0.57,-0.86 0.94,0.44 z m -2.53,31.17 c -0.3,-0.41 0.84,-1.86 1.49,-3.17 1.25,1.37 2.58,2.52 3.5,3.93 0.77,1.2 -0.07,2.84 -1.21,2.48 -1.49,-0.48 -2.82,-1.91 -3.78,-3.24 z m 5.68,35.16 c -0.47,0.08 -0.94,0.16 -1.41,0.23 -0.51,0.06 -1.01,0.1 -1.52,0.12 -2.27,-1.33 -1.05,-2.81 0.81,-4.36 1.47,0.26 2.97,0.39 4.41,0.61 0.46,0.07 0.92,0.15 1.38,0.22 -2.02,0.25 -3.24,1.59 -3.67,3.18 z m 8.37,-11.41 c 0.71,-0.46 1.29,-1.12 1.63,-1.95 2.36,-0.34 4.95,0.02 7.7,0.7 1.12,0.28 2.12,0.39 3.04,0.39 4.36,0.76 8.71,1.57 13.04,2.44 0.07,0.4 0.14,0.8 0.19,1.19 0.82,-0.15 1.33,-0.44 1.7,-0.8 0.5,0.1 1,0.21 1.49,0.31 -2.29,0.32 -4.53,0.93 -6.67,1.8 -5.41,-1.16 -10.84,-2.23 -16.3,-3.18 -1.93,-0.33 -3.88,-0.62 -5.82,-0.9 z m 37.27,8.02 c -0.47,-0.39 -1.05,-0.71 -1.78,-0.89 -1.87,-0.46 -3.75,-0.85 -5.62,-1.28 2.68,-0.15 5.34,-0.48 7.98,-0.91 0.3,1.09 0.62,2.12 0.98,3.07 -0.52,0.01 -1.04,0.01 -1.56,0.01 z m 27.32,-38.86 c -2.22,11.26 -8.13,18.81 -20.7,19.03 -4.73,0.09 -9.48,0.56 -14.18,1.16 -3.8,0.48 -4.6,2.99 -4.75,5.8 -1.92,-0.08 -3.85,-0.14 -5.77,-0.15 0.98,-1.72 1.63,-3.8 2.14,-5.95 0.66,-2.8 -0.23,-5.94 -0.24,-8.93 -0.07,-19.75 -0.2,-39.5 -0.04,-59.24 0.03,-3.88 -1.31,-8.58 3.55,-11.06 14.85,-7.57 31.92,-0.62 37.82,15.37 5.32,14.43 5.07,29.18 2.17,43.97 z m 9.28,-73.36 c -0.26,0.96 -1.54,0.67 -1.72,-0.68 -0.21,-1.6 0.62,-2.8 2.05,-3.49 -0.03,1.41 0.03,2.84 -0.33,4.17 z m 3.01,96.72 c -0.39,-0.17 -1.09,-0.32 -1.1,-0.51 -0.03,-0.49 0.25,-1 0.4,-1.51 0.39,0.16 1.09,0.31 1.1,0.49 0.02,0.51 -0.25,1.02 -0.4,1.53 z m -1.21,-59.32 0.61,-0.9 0.37,1.03 z m -1.14,-42.23 c -1.05,-3.43 -1.55,-6.54 3.59,-6.38 -0.27,2.66 -0.06,5.61 -3.59,6.38 z m 4.91,49.31 0.67,-0.88 0.44,1.02 z"
   id="path10" />
</g>
<path
   class="st0"
   d="m 223.15762,340.90955 c -7.24,-3.12 -16.62,-0.81 -22.35,-4.83 -9.88,-6.94 -11.45,-0.97 -13.98,6.11 -1.09,3.04 -3.55,5.6 -3.37,9.07 -6.71,6.77 -16.33,8.14 -25.6,8.45 -1.17,-1.18 -2.69,-2.03 -4.94,-2.19 -5.89,-0.42 -10.3,-3.62 -13.48,-9.17 -3.36001,-5.86 -5.85001,-4.22 -6.64001,1.82 -0.58,4.4 -4.06,4.06 -6.31,3.18 -4.64,-1.82 -1.69,-4.56 0.29,-6.25 7.46,-6.38 8.28,-14.36 6.67,-23.62 -1.09,-6.27 0.09,-12.67 1.12,-19.07 2.15,-13.4 8.39001,-22.59 21.29001,-26.52 3.72,-1.13 6.66,-4.44 10.98,-4.11 2.3,0.18 5.74,-0.66 5.12,-3.08 -3.73,-14.6 4.66,-11.13 12.45,-9.73 1.7,0.31 3.8,-1.74 5.73,-2.84 0.01,0.02 0.02,0.05 0.03,0.07 3.46,0.51 4.09,3.75 5.21,6.22 2.75,6.06 7.5,6.72 12.38,7.05 1.33,1.63 2.65,3.25 3.98,4.88 0.48,0.59 0.96,1.18 1.43,1.77 0.09,0.11 0.2,0.26 0.27,0.35 0.19,0.27 0.38,0.54 0.56,0.82 0.39,0.6 0.69,1.24 1.04,1.86 0.01,0.02 0.02,0.03 0.03,0.04 0.01,0.04 0.02,0.08 0.04,0.14 0.02,0.07 0.04,0.14 0.05,0.21 -1.51,0.4 -3.02,0.79 -4.54,1.19 -0.08,-0.06 -0.16,-0.12 -0.24,-0.19 0,0.08 0.01,0.16 0.01,0.24 -3.25,0.85 -6.51,1.7 -9.76,2.55 -0.69,0.18 -1.31,0.59 -1.81,1.11 -2.61,-1.07 -5.19,-2.24 -7.78,-3.35 1.61,3.85 3.56,7.34 7.17,8.81 0.99,1.58 2.8,2.42 4.69,1.93 3.92,-1.03 7.84,-2.05 11.76,-3.08 1.12,-0.29 2.33,-0.53 3.5,-0.87 1.68,0.21 3.63,-0.62 6,-3.12 -0.39,-0.11 -0.77,-0.24 -1.15,-0.38 0.64,-1.19 0.95,-2.57 0.89,-4 -0.19,-4.07 -2.23,-7.35 -4.62,-10.41 0.21,-0.22 0.35,-0.38 0.35,-0.38 -3.76,-4.91 -7.59,-9.78 -11.53,-14.54 -0.69,-0.84 -1.89,-1.25 -2.9,-1.78 -21.86,-11.38 -44.65,-15.06 -68.60001,-8.7 -2.13,0.57 -3.98,2.28 -6.11,2.84 -6.74,1.77 -5.37,7.12 -5.36,11.92 -3.36,0.86 -7.08,10.08 -10.02,-0.62 -0.49,-1.77 -3.39,-2.28 -4,-0.81 -4.68,11.25 -16.329996,18.5 -18.969996,30.02 -7.22,31.43 -6.94,61.89 19.829996,85.26 v 0 c 9.77,11.86 23.43,14.58 37.26001,15.65 0.8,0.06 1.55,0.11 2.28,0.14 0.78,0.87 1.84,1.44 2.99,1.29 7.41,-0.96 14.87,0.44 22.27,-0.5 1.28,0.06 2.62,-0.1 3.96,-0.35 15.51,-2.9 28.94,-9.19 37.21,-23.99 7.22,-4.18 6.18,-13.11 10.08,-19.28 2.7,-4.24 -1.81,-5.92 -4.86,-7.23 z m -6.47,-59.78 c -0.03,-0.01 -0.13,0.01 -0.25,0.04 0.09,-0.04 0.17,-0.07 0.25,-0.04 z m -1.34,1.89 c 0,-0.02 0.01,-0.06 0.02,-0.14 0,0.08 -0.01,0.12 -0.02,0.14 0.01,0 0.01,0 0,0 z m -26.16,-27.46 c 0.29,0.78 0.57,1.56 0.86,2.33 -0.77,-0.26 -1.55,-0.51 -2.32,-0.77 0.48,-0.51 0.97,-1.04 1.46,-1.56 z m -62.32001,50.72 c -0.21,0.23 -0.39,0.57 -0.65,0.67 -0.06,0.02 -0.13,0.03 -0.2,0.05 0.29,-0.24 0.57,-0.48 0.85,-0.72 z m -9.77,30.69 c -0.32,-0.15 -0.93,-0.31 -0.92,-0.44 0.08,-1.5 0.6,-1.83 1.22,-0.85 0.15,0.26 -0.19,0.86 -0.3,1.29 z m 2.04,-11.21 c -1.5,3.19 -3.48,1.09 -4.56,0.72 -1.79,-0.79 -2.82,-1.25 -3.85,-1.69 -3.52,-1.51 -4.6,5.07 -7.97,2.71 -0.83,-0.58 0.05,-3.81 1.94,-4.14 4.66,-0.82 9.63,-4.93 13.94,0.81 0.32,0.42 0.67,1.22 0.5,1.59 z m 0.94,-24.82 c -1.73,1.43 -3.6,3.03 -5.66,3.54 -1.67,0.42 -2.33,5.26 -4.67,1.49 -0.56,-0.9 0.4,-3.63 1.45,-4.6 2.01,-1.85 4.58,-3.05 6.47,-4.23 1.32,0.57 1.84,0.72 2.28,1.01 1,0.66 1.22,1.88 0.13,2.79 z m 2.68,10.45 c 0.62,-1.02 1.3,-2 1.97,-2.98 0.03,1.45 0.42,2.99 -1.29,3.9 -0.06,0.04 -0.75,-0.8 -0.68,-0.92 z m 5.86,60.98 c -1.94,0.17 -2.72,-2.31 -1.89,-3.57 1.79,-2.72 0.39,-6.94 3.96,-8.69 0.37,2.25 0.74,4.5 0.97,5.91 -0.67,3.02 0.01,6.09 -3.04,6.35 z m 56.53001,-3.6 0.3,0.97 -0.86,-0.13 z m -29.26,6.1 c -0.34,1.69 -1.2,2.74 -3.08,2.28 -0.35,-0.09 -0.86,-1.11 -0.76,-1.22 1.05,-1.28 2.4,-1.46 3.84,-1.06 z m 26.17,5.8 c 0.3,-0.39 0.6,-0.77 0.9,-1.15 0.24,0.22 0.49,0.43 0.74,0.64 -0.41,0.3 -0.85,0.57 -1.3,0.83 -0.11,-0.11 -0.22,-0.22 -0.34,-0.32 z m -18.57,2.59 c 0.12,-1.63 0.06,-3.58 -0.13,-5.86 1.37,-0.07 2.66,-0.77 3.42,-2.12 0.35,-0.62 0.52,-1.35 0.53,-2.09 0.92,-0.11 1.83,-0.25 2.69,-0.47 2.7,-0.7 5.35,-1.81 7.81,-3.2 0.13,0.86 -0.31,2.1 -1.55,3.88 -1.32,1.89 -2.53,3.88 -3.52,5.97 -0.62,1.31 -1.41,2.68 -1.93,4.07 -2.44,0.03 -4.88,-0.09 -7.32,-0.18 z m 35.35,-12.91 -0.44,-1.18 1.06,0.09 z m 7.94,-23.03 c -0.13,0.74 -0.26,1.48 -0.38,2.22 -1.23,-1.24 -0.34,-1.69 0.38,-2.22 z m 0.92,-1.26 c 0.38,-0.73 0.76,-1.46 1.15,-2.18 1.58,2.45 0.04,2.16 -1.15,2.18 z m 9.39,20.92 c -1.12,-0.18 -2.23,-0.36 -3.35,-0.53 1.9,-2.75 2.5,-0.65 3.35,0.53 z"
   id="path14" />
<g
   id="g20"
   transform="translate(-44.062386,-69.21045)">
	<path
   class="st1"
   d="m 446.71,419.22 c 0.06,-7.29 0.18,-14.58 0.36,-21.87 0.77,-1.92 1.18,-4.03 1.29,-6.16 0.18,-3.49 2.12,-7.98 -0.72,-11.61 0.77,-20.24 1.98,-40.46 3.66,-60.65 0.14,-1.62 -0.94,-3.06 -2.33,-3.79 -0.53,-0.91 -1.37,-1.59 -2.66,-1.81 -3.21,-0.54 -8,-2.25 -11.01,0.03 -3.19,0 -6.38,0 -9.57,0 -0.35,-0.21 -0.75,-0.43 -1.27,-0.64 -3.43,-1.43 -7.78,-2.28 -11.3,0.64 -2.14,1.77 -4.66,23.64 -3.15,26.47 1.93,3.62 4.94,1.25 7.32,0.94 11.55,-1.49 14.39,1.96 10.67,13.62 -0.24,0.74 -1,1.31 -1.7,1.91 0.84,-5.98 -0.65,-11.42 -7.24,-12.03 -7.35,-0.67 -8.1,5.38 -8.22,11.57 -0.14,6.69 -1.29,13.35 -1.99,20.03 -0.32,3.06 2.05,7.83 -1.8,8.65 -3.29,0.7 -4.42,-4.46 -6.31,-7.09 -8.51,-11.89 -15.23,-25.06 -24.65,-36.32 -0.1,-0.36 -0.24,-0.71 -0.46,-1.03 -0.88,-1.24 -1.75,-2.47 -2.63,-3.71 -0.49,-0.91 -1.01,-1.75 -1.61,-2.27 -3.14,-4.42 -6.27,-8.84 -9.41,-13.26 -0.71,-1 -1.41,-2.15 -2.16,-3.29 -1.02,-2.29 -2.52,-3.92 -4.44,-4.87 -0.14,-0.09 -0.27,-0.19 -0.42,-0.27 -3.19,-1.7 -7.6,-0.93 -11.08,-0.92 -3.81,0.01 -7.62,0.02 -11.42,0.03 -3.34,0.01 -7.23,-0.39 -9.84,2.19 -2.72,2.69 -2.28,7.28 -2.2,10.81 0.09,3.98 0.53,7.92 1.15,11.85 0.33,2.09 2.77,3.37 4.65,3.09 2.24,-0.34 3.42,-2.04 3.68,-4.23 0.49,-4.3 0.47,-8.58 0.03,-12.84 1.22,-0.13 2.44,-0.26 3.66,-0.36 -0.67,8.65 5.86,18.2 -3.1,25.71 3.35,9.34 6.64,18.7 10.07,28.02 1.12,3.04 2.51,5.97 3.79,8.94 3.39,-1.12 6.78,-2.24 10.17,-3.37 0.52,-1.94 2.4,-3.61 0.89,-5.95 -5.22,-8.13 -6.99,-17.28 -6.34,-26.73 0.24,-3.53 1.57,-8.77 6.78,-7.23 3.68,1.09 2.53,5.44 2.37,8.7 3.99,0.45 9.58,-0.68 6.55,6.64 -2.25,-0.91 -4.51,-1.82 -6.76,-2.74 -2.5,3.62 -1.96,7.33 0.36,10.74 3.04,4.49 6.4,8.75 9.64,13.09 -0.02,0.02 -0.04,0.04 -0.05,0.05 0.24,6.82 0.74,13.57 4.65,19.5 10.24,15.52 20.63,30.95 30.58,46.66 0.28,0.45 0.56,0.83 0.84,1.22 0.08,0.86 0.45,1.74 1.25,2.52 1.42,1.41 2.85,2.81 4.27,4.22 1.6,1.58 3.12,3.27 5.43,3.64 2.12,0.34 4.16,-0.59 6.18,-1.12 1.97,-0.51 3.98,-0.94 6,-1.21 2.25,-0.3 4.53,-0.3 6.81,-0.4 9.31,3.16 15.52,-3.3 15.58,-15.93 0.01,-2.28 -0.03,-4.57 -0.12,-6.85 -0.2,-4.29 -1.14,-7.94 -2.72,-10.93 z m -19.53,-96.98 c -1.95,1.16 -3.44,1.39 -3.56,-0.34 0.17,0.02 0.33,0.05 0.5,0.05 1.18,0 2.37,0 3.55,0 -0.16,0.1 -0.32,0.2 -0.49,0.29 z m -79.97,7.14 c -0.41,0.38 -0.81,0.76 -1.22,1.13 -0.48,-0.93 -1.03,-1.83 -1.38,-2.8 -0.05,-0.14 0.91,-0.96 1.3,-0.89 1.39,0.25 1.8,1.22 1.3,2.56 z m 19.08,31.05 c -0.29,-0.82 -0.59,-1.63 -0.88,-2.45 0.42,0.4 0.82,0.81 1.17,1.27 0.16,0.2 -0.18,0.78 -0.29,1.18 z m 12.49,24.68 c -1.37,1.29 -3.43,1.3 -4.26,-0.41 -1.17,-2.38 1.05,-2.38 2.55,-2.59 1.42,-0.2 2.85,-0.36 4.28,-0.53 -0.81,1.23 -1.53,2.55 -2.57,3.53 z m 6.66,-17.36 c 4.46,2.16 6.94,6.11 5.33,10.62 -1.13,3.17 -5.34,2.43 -8.55,2.63 1.07,-4.42 2.14,-8.83 3.22,-13.25 z m 4.72,47.37 c -1.25,-0.25 -1.72,-1.42 -1,-2.5 0.45,-0.68 1.46,-0.98 2.07,-1.36 0.72,0.68 1.98,1.31 2,1.97 0.05,2.03 -1.64,2.17 -3.07,1.89 z m 42.79,-93.16 c 1.71,0 3.42,0 5.13,0 0,1.85 -2.25,5.36 -2.96,5.23 -4.07,-0.73 -2.92,-3.01 -2.17,-5.23 z m -6.02,40.85 c 0.04,0.22 -0.2,0.49 -0.45,0.76 -0.02,-0.74 -0.04,-1.49 -0.05,-2.23 0.21,0.48 0.41,0.96 0.5,1.47 z m -1.18,-5.29 c 0.07,0.78 0.15,1.56 0.22,2.34 -0.64,-0.32 -1.28,-0.65 -1.92,-0.97 0.57,-0.45 1.14,-0.91 1.7,-1.37 z m -9.13,73.45 c 0.12,0.63 -2.89,1.19 -3.73,-0.65 -1.12,-2.45 -3.09,-5.13 -1.36,-7.82 2.22,-3.43 4.97,-6.51 7.52,-9.73 0.54,2.96 -0.25,6.1 2.08,8.9 4.81,5.77 -5.39,4.77 -4.51,9.3 z m 2.47,-18.87 c -1.77,-2.75 -6.66,-3.99 -5.65,-7.38 1.54,-5.21 4.68,-10.01 7.66,-14.64 0.81,-1.25 3.85,-0.13 3.2,1.86 -3.89,11.87 7.42,9.4 11.83,13.37 -0.87,1.12 -0.06,0.54 0.38,0.33 l -0.36,-0.36 c 0.81,-0.07 1.55,-0.21 2.27,-0.38 -0.04,2.16 -0.09,4.31 -0.12,6.47 -5.15,-2.2 -11.78,-2.1 -19.21,0.73 z m 18.16,16.65 0.19,-1.12 1.01,0.75 z m 1.34,-31.64 c -0.56,-0.56 -1.01,-1.47 -0.98,-2.11 0.05,-0.88 0.49,-1.33 1.07,-1.34 -0.02,1.15 -0.06,2.3 -0.09,3.45 z m 1.28,-33.97 c -3.17,-0.93 -4.78,-3 -0.68,-9.36 0.51,-0.79 0.94,-1.63 1.33,-2.51 -0.23,3.96 -0.45,7.92 -0.65,11.87 z"
   id="path16" />
	<path
   class="st1"
   d="m 344.55,385.12 c -2.33,-0.23 -4.65,-0.45 -6.98,-0.68 -1.69,-2.33 -3.9,-3.62 -6.87,-3.39 -7.01,-7.15 -5.69,-16.31 -5.82,-25.2 -0.03,-2.05 -0.72,-4.57 -3.75,-4.57 -3.04,0 -3.96,2.42 -3.69,4.58 1.1,8.89 2.82,19.07 1.34,26.54 -1.62,8.22 -1.58,16.04 -0.86,23.76 -2.03,1.71 -3.4,4.18 -3.83,6.9 -0.72,4.63 0.92,9.15 2.76,13.32 0.13,0.29 0.28,0.57 0.42,0.85 0.1,8.33 0.23,16.66 0.64,24.97 0.16,3.32 1.61,6.28 4.87,7.41 2.59,0.9 5.36,0.36 7.91,-0.36 6.48,-1.81 13.05,-2.55 19.77,-2.26 3.45,0.15 5.23,-4.07 3.49,-6.73 1.76,-1.62 2.69,-4.19 2.76,-7.55 0.23,-11.13 1.1,-22.4 -8.9,-30.42 -0.01,0.03 -0.02,0.06 -0.04,0.08 -2.09,-1.66 -4.21,-3.29 -6.25,-5 -1.8,-1.51 -3.68,-3.79 -2.23,-5.81 2.72,-3.77 3.73,0.2 5.87,1.53 6.23,3.89 12.15,1.23 11.36,-5.4 -0.64,-5.37 2.93,-11.48 -1.96,-16.25 -2.86,2.7 -4.85,8.12 -10.01,3.64 -0.07,-0.15 -0.14,-0.31 -0.2,-0.46 -0.08,0.03 -0.16,0.05 -0.24,0.08 z m -14.04,-3.47 c -0.28,1.39 -0.56,2.78 -0.84,4.17 -2.34,-2.25 -1.16,-3.35 0.84,-4.17 z m -1.95,31.11 c -0.17,-0.23 0.23,-0.88 0.36,-1.34 0.34,0.15 0.97,0.32 0.97,0.46 -0.03,1.55 -0.59,1.89 -1.33,0.88 z m 0.75,-10.02 c -2.37,-1.17 -2.12,-3.6 -1.13,-5.66 1.17,-2.42 3.27,-3.9 5.72,-4.85 -0.36,2.52 -0.51,5.1 -1.31,7.46 -0.44,1.33 -2.74,3.32 -3.28,3.05 z m 5.44,21.34 c 0.67,0.29 0.9,1.63 1.32,2.51 -0.59,1.2 -1.58,1.56 -2.58,0.65 -0.7,-0.64 -1.04,-1.69 -1.54,-2.56 0.95,-0.24 2.08,-0.91 2.8,-0.6 z m 1.71,13.22 c -1.22,-0.86 -2.37,-1.8 -3.46,-2.81 -0.36,-0.45 -0.72,-0.89 -1.09,-1.32 2.85,0.36 4.36,2.02 4.94,4.45 -0.13,-0.11 -0.25,-0.22 -0.39,-0.32 z m -1.86,-46.17 c 0.48,-2.19 0.61,-4.56 2.68,-5.98 -0.46,2.21 -1.01,4.37 -2.68,5.98 z m 13.8,34.33 c 0.06,-0.34 0.68,-0.57 1.04,-0.86 0.25,0.47 0.49,0.93 0.74,1.4 -0.17,0.49 -0.25,1.34 -0.54,1.42 -0.99,0.28 -1.51,-0.51 -1.24,-1.96 z m -0.89,-12.48 c -0.1,0.22 -0.21,0.42 -0.36,0.59 -0.16,0.17 -0.62,0.05 -0.95,0.06 0.44,-0.21 0.87,-0.43 1.31,-0.65 z m -1.77,-19.27 c -0.43,0.2 -0.88,0.58 -1.3,0.54 -0.4,-0.04 -0.75,-0.51 -1.12,-0.79 0.92,-0.87 1.73,-0.79 2.42,0.25 z"
   id="path18" />
</g>
<g
   id="g36"
   transform="translate(-44.062386,-69.21045)">
	<path
   d="m 126.4,576.48 v -58.97 c 0,-1.64 0.41,-2.93 1.22,-3.88 0.82,-0.95 1.87,-1.43 3.18,-1.43 h 16.33 c 10.37,0 18.24,2.62 23.62,7.87 5.38,5.24 8.07,13.5 8.07,24.77 0,24.11 -10.23,36.17 -30.71,36.17 h -16.72 c -3.33,-0.01 -4.99,-1.51 -4.99,-4.53 z m 18.78,-45.6 v 29.39 c 0,1.37 0.1,2.24 0.29,2.6 0.2,0.36 0.78,0.54 1.76,0.54 3.59,0 6.31,-1.34 8.17,-4.03 1.86,-2.69 2.79,-7.16 2.79,-13.42 0,-6.25 -0.96,-10.34 -2.89,-12.24 -1.92,-1.9 -4.97,-2.85 -9.14,-2.85 h -0.98 z"
   id="path22" />
	<path
   d="m 195.25,564.1 v -34.99 h -6.94 c -1.11,0 -1.89,-1.41 -2.35,-4.23 -0.2,-1.38 -0.29,-2.78 -0.29,-4.23 0,-1.45 0.1,-2.85 0.29,-4.23 0.46,-2.82 1.24,-4.23 2.35,-4.23 h 32.86 c 1.11,0 1.86,1.41 2.25,4.23 0.26,1.37 0.39,2.78 0.39,4.23 0,1.45 -0.13,2.85 -0.39,4.23 -0.39,2.82 -1.14,4.23 -2.25,4.23 h -6.55 v 34.99 h 6.84 c 1.11,0 1.89,1.41 2.35,4.23 0.26,1.38 0.39,2.78 0.39,4.23 0,1.44 -0.13,2.85 -0.39,4.23 -0.46,2.82 -1.24,4.23 -2.35,4.23 H 188.5 c -1.11,0 -1.86,-1.41 -2.25,-4.23 -0.26,-1.38 -0.39,-2.78 -0.39,-4.23 0,-1.44 0.13,-2.85 0.39,-4.23 0.39,-2.82 1.14,-4.23 2.25,-4.23 z"
   id="path24" />
	<path
   d="m 269.09,560.46 0.19,-13.37 c 0,-0.92 0.94,-1.52 2.83,-1.82 1.89,-0.3 3.46,-0.44 4.69,-0.44 l 3.82,0.29 c 2.47,0.39 3.71,1.08 3.71,2.06 l -0.39,30.76 c -1.31,0.92 -3.93,1.82 -7.87,2.7 -3.95,0.88 -8.46,1.33 -13.55,1.33 -9.45,0 -17.08,-3.08 -22.88,-9.24 -5.8,-6.16 -8.7,-15.2 -8.7,-27.13 0,-10.16 2.84,-18.41 8.51,-24.77 5.67,-6.35 13.53,-9.53 23.57,-9.53 4.56,0 8.69,0.44 12.37,1.33 3.68,0.88 6.21,2.08 7.58,3.59 0.06,0.53 0.1,1.51 0.1,2.95 0,1.44 -0.49,3.49 -1.47,6.14 -0.98,2.65 -2.09,4.64 -3.33,5.95 -1.24,1.31 -2.14,1.97 -2.69,1.97 -0.55,0 -1.14,-0.25 -1.76,-0.74 -0.62,-0.49 -1.84,-1.01 -3.67,-1.57 -1.83,-0.55 -3.59,-0.84 -5.28,-0.84 -4.04,0 -7.32,1.31 -9.83,3.93 -2.51,2.62 -3.77,6.68 -3.77,12.19 0,5.5 1.29,9.68 3.86,12.53 2.58,2.85 5.54,4.27 8.9,4.27 3.36,0 5.06,-0.83 5.06,-2.54 z"
   id="path26" />
	<path
   d="m 302.23,564.1 v -34.99 h -6.94 c -1.11,0 -1.89,-1.41 -2.34,-4.23 -0.2,-1.38 -0.29,-2.78 -0.29,-4.23 0,-1.45 0.1,-2.85 0.29,-4.23 0.46,-2.82 1.24,-4.23 2.34,-4.23 h 32.86 c 1.11,0 1.86,1.41 2.25,4.23 0.26,1.37 0.39,2.78 0.39,4.23 0,1.45 -0.13,2.85 -0.39,4.23 -0.39,2.82 -1.14,4.23 -2.25,4.23 h -6.55 v 34.99 h 6.84 c 1.11,0 1.89,1.41 2.35,4.23 0.26,1.38 0.39,2.78 0.39,4.23 0,1.44 -0.13,2.85 -0.39,4.23 -0.46,2.82 -1.24,4.23 -2.35,4.23 h -32.95 c -1.11,0 -1.86,-1.41 -2.25,-4.23 -0.26,-1.38 -0.39,-2.78 -0.39,-4.23 0,-1.44 0.13,-2.85 0.39,-4.23 0.39,-2.82 1.14,-4.23 2.25,-4.23 z"
   id="path28" />
	<path
   d="m 369.32,579.43 c 0,1.31 -3.22,1.97 -9.68,1.97 -6.45,0 -9.68,-0.66 -9.68,-1.97 v -49.34 h -11.74 c -1.11,0 -1.89,-1.5 -2.34,-4.52 -0.2,-1.44 -0.29,-2.91 -0.29,-4.42 0,-1.5 0.1,-2.98 0.29,-4.42 0.45,-3.02 1.24,-4.52 2.34,-4.52 h 42.54 c 1.11,0 1.89,1.51 2.35,4.52 0.2,1.44 0.29,2.92 0.29,4.42 0,1.51 -0.1,2.98 -0.29,4.42 -0.46,3.02 -1.24,4.52 -2.35,4.52 h -11.44 z"
   id="path30" />
	<path
   d="m 434.65,581.2 c -5.67,0 -8.74,-0.92 -9.19,-2.75 l -3.23,-12.68 h -15.55 l -2.83,12.19 c -0.39,2.03 -3.52,3.05 -9.38,3.05 -3.13,0 -5.45,-0.18 -6.94,-0.54 -1.5,-0.36 -2.25,-0.64 -2.25,-0.84 l 17.3,-66.54 c 0,-0.52 4.47,-0.79 13.4,-0.79 8.93,0 13.4,0.26 13.4,0.79 l 16.92,66.64 c 0,0.46 -1.5,0.82 -4.5,1.08 -3.01,0.26 -5.4,0.39 -7.15,0.39 z m -25.53,-27.91 h 10.27 l -4.4,-20.35 h -0.59 z"
   id="path32" />
	<path
   d="m 453.91,575.2 v -61.13 c 0,-1.38 3.31,-2.06 9.92,-2.06 6.61,0 9.93,0.69 9.93,2.06 v 48.16 h 15.06 c 1.17,0 1.99,1.54 2.44,4.62 0.2,1.51 0.3,3.04 0.3,4.62 0,1.57 -0.1,3.18 -0.3,4.81 -0.52,3.15 -1.36,4.72 -2.54,4.72 H 458.6 c -1.43,0 -2.57,-0.59 -3.42,-1.77 -0.84,-1.17 -1.27,-2.52 -1.27,-4.03 z"
   id="path34" />
</g>
<g
   id="g62"
   transform="translate(-44.062386,-69.21045)">
	<path
   class="st1"
   d="m 98.78,659.93 c -1.19,-0.8 -2.19,-2.14 -3.01,-4.03 -1.03,-2.66 -1.58,-5.81 -1.68,-9.46 -0.09,-3.52 0.04,-6.51 0.39,-9 0.35,-2.49 1,-5.03 1.94,-7.62 l 0.76,-1.9 c 0.89,-2.47 1.54,-4.1 1.93,-4.89 0.95,-2.35 2.66,-5.41 5.13,-9.18 2.17,-3.52 3.9,-6.08 5.17,-7.7 1.27,-1.62 2.5,-2.92 3.7,-3.9 1.2,-0.98 3.4,-2.65 6.63,-5 1.35,-1.05 2.92,-1.6 4.7,-1.65 1.49,-0.04 2.89,0.29 4.19,1.01 1.3,0.72 2.3,1.75 2.99,3.1 0.69,1.12 1.05,2.62 1.1,4.54 0.07,2.68 -0.45,5.5 -1.57,8.46 -1.11,2.96 -2.58,5.29 -4.38,7.01 -0.58,0.55 -1.14,0.83 -1.68,0.85 -0.66,0.02 -1.54,-0.43 -2.63,-1.36 -0.56,-0.99 -0.88,-1.58 -0.94,-1.77 -0.06,-0.18 0.05,-0.3 0.35,-0.36 0.52,-0.67 1.28,-1.96 2.27,-3.87 0.99,-1.91 1.66,-3.4 1.99,-4.49 0.11,-0.37 0.21,-0.96 0.31,-1.8 0.42,-2.1 0.62,-3.51 0.61,-4.22 -0.02,-0.72 -0.25,-1.27 -0.67,-1.68 -0.19,-0.17 -0.42,-0.26 -0.72,-0.25 -0.48,0.01 -1.31,0.33 -2.48,0.95 -1.41,0.63 -3.2,2.03 -5.35,4.17 -2.15,2.14 -4.09,4.46 -5.81,6.96 -2.66,3.66 -4.68,6.67 -6.08,9.02 -1.4,2.36 -2.46,4.75 -3.17,7.16 l -0.92,2.36 c 0.07,0.24 -0.01,0.84 -0.22,1.79 -0.22,0.96 -0.46,1.74 -0.75,2.35 -0.75,3.48 -1.07,6.92 -0.98,10.32 0.06,2.57 0.35,4.83 0.85,6.79 0.5,1.96 1.17,3.28 2.03,3.98 0.49,0.4 1.21,0.6 2.17,0.57 1.19,-0.03 2.66,-0.37 4.4,-1.02 1.75,-0.64 3.89,-1.56 6.42,-2.76 1.36,-0.57 2.64,-1.24 3.85,-1.98 1.2,-0.75 2.1,-1.43 2.68,-2.04 1.52,-1.17 2.75,-1.78 3.71,-1.8 0.65,-0.26 1.09,-0.39 1.33,-0.39 0.12,0 0.19,0.07 0.23,0.21 0.03,0.16 0.06,0.35 0.06,0.58 0.02,0.84 -0.4,1.76 -1.27,2.77 -0.87,1.01 -2.04,1.98 -3.5,2.91 -1.17,1.22 -2.57,2.19 -4.23,2.88 -1.87,1.43 -4.06,2.7 -6.57,3.84 -2.51,1.14 -4.81,1.73 -6.89,1.79 -0.48,0.01 -1.08,-0.03 -1.79,-0.13 -1.89,-0.6 -3.41,-1.31 -4.6,-2.12 z"
   id="path38" />
	<path
   class="st1"
   d="m 133.28,652.14 c -0.18,-0.29 -0.29,-0.74 -0.3,-1.33 -0.02,-0.54 0,-0.98 0.05,-1.34 0.12,-2.03 0.51,-4.4 1.16,-7.11 l 0.4,-1.8 c 0.14,-1.49 1.1,-4.65 2.89,-9.48 1.78,-4.82 3.25,-8.11 4.4,-9.88 0.47,-0.31 0.97,-0.47 1.51,-0.49 0.77,-0.02 1.44,0.23 1.99,0.76 0.36,0.22 0.55,0.67 0.57,1.32 0.02,0.6 -0.18,1.48 -0.6,2.66 -0.41,1.18 -1.13,2.92 -2.14,5.21 -0.23,0.49 -0.61,1.39 -1.14,2.71 -0.53,1.33 -0.79,2.12 -0.79,2.36 0,0.12 0.03,0.17 0.09,0.17 0.12,0 0.24,-0.05 0.35,-0.14 0.12,-0.09 0.24,-0.17 0.35,-0.24 0.63,-1.15 2.18,-2.75 4.66,-4.77 2.49,-2.04 4.2,-3.31 5.14,-3.81 0.4,-0.25 0.94,-0.5 1.59,-0.76 0.65,-0.25 1.09,-0.44 1.33,-0.56 0.94,-0.51 2.07,-0.77 3.39,-0.81 0.83,-0.02 1.57,0.09 2.2,0.34 0.63,0.26 1.08,0.65 1.32,1.18 0.07,0.41 0.24,0.74 0.52,0.97 0.28,0.23 0.47,0.38 0.59,0.43 0.18,0 0.3,0.06 0.36,0.21 0.06,0.15 0.1,0.26 0.1,0.32 0.01,0.41 -0.22,0.67 -0.7,0.77 -0.48,0.1 -1.34,0.2 -2.59,0.29 -0.66,0.08 -1.34,0.24 -2.05,0.5 -0.71,0.26 -1.42,0.58 -2.12,0.95 -3.29,2 -5.74,3.55 -7.36,4.67 -1.61,1.12 -3.23,2.62 -4.85,4.51 -0.64,0.73 -1.47,2.04 -2.49,3.92 -0.4,0.42 -0.81,1.53 -1.21,3.3 -0.4,1.78 -0.6,2.87 -0.59,3.29 -0.05,0.17 -0.17,0.52 -0.33,1.03 -0.16,0.52 -0.42,1.01 -0.77,1.5 -0.69,0.98 -1.27,1.47 -1.75,1.48 -0.54,0.01 -1.27,-0.44 -2.19,-1.38 -0.47,-0.34 -0.8,-0.65 -0.99,-0.95 z"
   id="path40" />
	<path
   class="st1"
   d="m 161.5,651.18 c -0.4,-0.38 -0.6,-0.63 -0.6,-0.75 -0.02,-0.65 -0.18,-1.15 -0.49,-1.5 -0.12,-0.12 -0.19,-0.39 -0.2,-0.81 -0.03,-0.95 0.4,-2.59 1.26,-4.91 0.86,-2.32 2.01,-4.84 3.43,-7.56 0.35,-0.37 0.79,-1.01 1.34,-1.92 0.54,-0.91 0.9,-1.43 1.08,-1.55 -0.01,-0.23 0.08,-0.46 0.25,-0.67 0.17,-0.21 0.38,-0.33 0.62,-0.34 l -0.01,-0.53 c -0.01,-0.54 0.94,-1.86 2.85,-3.97 1.91,-2.11 3.49,-3.57 4.72,-4.38 1.46,-1.05 2.97,-1.6 4.52,-1.64 1.08,-0.03 2.01,0.25 2.8,0.83 0.31,0.35 1.71,1.6 4.22,3.74 l 3.39,2.87 -1.49,4.51 c -0.5,1.63 -0.73,3.1 -0.69,4.41 0.06,2.27 0.77,4.43 2.14,6.48 0.31,0.65 0.93,1.26 1.84,1.83 0.91,0.57 1.81,0.91 2.71,1.01 1.32,0.2 2,0.84 2.02,1.92 0.03,1.19 -0.49,1.92 -1.55,2.19 -0.24,0.06 -0.6,0.1 -1.07,0.11 -3.52,0.09 -6.63,-2.3 -9.32,-7.19 -0.25,-0.36 -0.58,-1 -0.99,-1.94 -0.41,-0.95 -0.65,-1.6 -0.72,-1.95 -0.35,0.49 -0.78,1.07 -1.3,1.73 -0.52,0.67 -1.01,1.25 -1.47,1.74 -6.34,6.68 -11.38,10.06 -15.14,10.16 -1.2,0.03 -2.28,-0.24 -3.25,-0.81 -0.21,-0.37 -0.5,-0.73 -0.9,-1.11 z m 4.92,-3.76 c 0.62,-0.13 1.39,-0.45 2.3,-0.96 0.91,-0.5 1.84,-1.15 2.77,-1.95 5.01,-4.55 8.61,-8.49 10.79,-11.83 l 1.89,-3.28 c -0.63,-1.23 -1.28,-2.13 -1.95,-2.68 -0.67,-0.55 -1.27,-0.82 -1.81,-0.8 -1.25,0.03 -3.18,1.65 -5.78,4.85 -2.6,3.21 -4.95,6.95 -7.05,11.24 -0.51,1.03 -0.96,2.07 -1.35,3.13 -0.39,1.06 -0.64,1.74 -0.75,2.04 0,0.3 0.31,0.38 0.94,0.24 z"
   id="path42" />
	<path
   class="st1"
   d="m 199.49,663.88 c -0.42,-0.32 -1.1,-0.98 -2.02,-1.96 -0.37,-0.35 -0.62,-0.68 -0.74,-1.01 -0.13,-0.33 -0.2,-0.75 -0.22,-1.29 l 0.12,-2.25 c 0.28,-0.9 0.4,-1.94 0.37,-3.13 -0.01,-0.48 0.16,-1.99 0.51,-4.54 0.35,-2.55 0.63,-4.39 0.84,-5.53 l 0.24,-1.09 c 0.42,-1.98 0.74,-3.8 0.93,-5.48 0.43,-1.5 0.8,-2.98 1.09,-4.46 0.29,-1.47 0.43,-2.47 0.41,-3.01 -0.03,-1.08 0.37,-1.86 1.19,-2.36 0.05,-0.48 0.47,-1.48 1.26,-2.99 1.32,-4.1 2.31,-7.03 2.95,-8.8 0.64,-1.78 1.33,-3.33 2.07,-4.67 1,-3.01 1.81,-4.92 2.45,-5.7 0.39,-1.03 1.48,-2.55 3.28,-4.57 1.79,-2.01 3.39,-3.63 4.79,-4.87 1.3,-0.75 2.35,-1.23 3.14,-1.47 0.8,-0.23 1.8,-0.36 2.99,-0.39 1.01,-0.03 1.71,0.06 2.11,0.26 0.4,0.2 1.05,0.71 1.97,1.52 0.8,0.87 1.28,1.46 1.43,1.75 0.16,0.3 0.25,0.86 0.27,1.69 -0.21,1.26 -0.76,2.89 -1.67,4.88 -0.9,2 -1.59,3.03 -2.07,3.1 -0.17,0.06 -0.41,0.1 -0.71,0.11 -0.89,0.03 -1.36,-0.71 -1.4,-2.21 -0.01,-0.36 -0.11,-0.71 -0.29,-1.07 -0.19,-0.35 -0.32,-0.59 -0.38,-0.7 -0.02,-0.89 0.17,-1.64 0.57,-2.26 0.17,-0.36 0.25,-0.69 0.24,-0.99 -0.01,-0.3 -0.12,-0.49 -0.33,-0.57 -0.21,-0.09 -0.52,-0.06 -0.94,0.07 -0.53,0.31 -1.83,1.4 -3.9,3.28 -2.07,1.88 -3.1,2.99 -3.09,3.35 -0.06,0.13 -0.21,0.44 -0.47,0.95 -0.26,0.52 -0.64,1.11 -1.16,1.78 -1.04,1.52 -1.55,2.46 -1.54,2.82 0.02,0.78 -0.15,1.17 -0.51,1.18 -0.06,0.12 -0.18,0.47 -0.38,1.04 -0.19,0.57 -0.46,1.19 -0.8,1.85 -0.22,0.54 -0.51,1.15 -0.85,1.81 -0.34,0.66 -0.63,1.12 -0.86,1.36 h 0.09 c -0.17,0.61 -0.45,1.58 -0.86,2.94 -0.41,1.35 -0.73,2.45 -0.94,3.29 0.95,-0.15 2.17,-0.36 3.65,-0.63 1.66,-0.4 3.05,-0.67 4.19,-0.83 3.27,-0.44 5.93,-0.88 7.98,-1.32 2.05,-0.44 3.98,-1.1 5.81,-2 0.73,-1.92 1.65,-4.14 2.78,-6.65 1.13,-2.5 1.9,-4 2.3,-4.49 0.94,-0.51 1.59,-0.76 1.95,-0.77 0.36,-0.01 0.66,0.11 0.9,0.34 0.24,0.23 0.58,0.64 1.02,1.22 0.06,0.12 0.21,0.32 0.46,0.62 0.25,0.29 0.38,0.59 0.38,0.88 0.01,0.48 -0.19,1.2 -0.62,2.17 -0.42,0.96 -1.26,2.66 -2.51,5.07 l -1.1,2.27 c 0.18,0.06 0.6,0.08 1.25,0.06 0.65,-0.02 1.19,-0.06 1.61,-0.13 1.31,-0.27 2.53,-0.42 3.66,-0.45 0.6,-0.02 1.01,0 1.26,0.05 1.37,-0.04 2.38,0.2 3.02,0.69 0.64,0.49 1.03,1.33 1.19,2.52 0.14,0.65 0.03,1.04 -0.33,1.17 -0.36,0.13 -1.37,0.22 -3.04,0.26 -6.91,0.48 -10.4,0.84 -10.45,1.08 -0.24,0.19 -0.65,1.24 -1.26,3.17 -0.61,1.93 -1.13,3.76 -1.56,5.51 -0.68,3.59 -0.99,6.77 -0.92,9.51 0.06,2.51 0.47,4.17 1.21,4.99 0.3,0.29 0.87,0.42 1.71,0.4 0.84,-0.02 1.74,-0.21 2.72,-0.56 0.98,-0.36 1.78,-0.81 2.43,-1.36 1.05,-0.93 1.93,-1.4 2.65,-1.42 0.36,-0.01 0.64,0.09 0.86,0.29 0.22,0.2 0.33,0.45 0.34,0.75 0.02,0.66 -0.32,1.51 -1.01,2.53 -0.86,1.4 -2.02,2.56 -3.49,3.5 -1.47,0.94 -2.89,1.42 -4.26,1.45 -0.66,0.02 -1.14,-0.03 -1.44,-0.14 -0.84,-0.22 -1.53,-0.47 -2.08,-0.76 -0.54,-0.28 -1.28,-0.83 -2.19,-1.64 -1.11,-1.41 -1.85,-2.71 -2.21,-3.93 -0.36,-1.22 -0.57,-3.17 -0.64,-5.85 -0.04,-1.43 0.66,-5.39 2.11,-11.88 -0.11,0.42 0.08,-0.45 0.56,-2.61 -0.25,-0.41 -0.94,-0.6 -2.08,-0.57 -1.37,0.04 -4.43,0.47 -9.19,1.32 -1.84,0.46 -3.35,0.8 -4.54,1.01 -0.3,0.07 -1.23,0.27 -2.81,0.61 -1.57,0.34 -2.36,0.63 -2.35,0.86 -0.24,0.01 -0.44,0.14 -0.62,0.37 -0.17,0.25 -0.26,0.49 -0.25,0.73 0.02,0.84 -0.08,1.47 -0.31,1.89 -0.28,0.9 -0.75,2.87 -1.41,5.9 -0.67,3.03 -0.99,4.91 -0.97,5.62 -0.46,0.62 -0.67,1.69 -0.63,3.25 -0.34,0.66 -0.5,1.41 -0.48,2.25 0.01,0.36 -0.01,0.66 -0.06,0.9 0.01,0.3 -0.04,1.02 -0.13,2.15 -0.09,1.14 -0.12,2.18 -0.09,3.14 l -0.2,2.6 c -0.04,0.72 -0.11,1.38 -0.22,1.98 -0.11,0.6 -0.3,1.05 -0.59,1.36 -0.33,0.24 -0.71,0.21 -1.14,-0.11 z"
   id="path44" />
	<path
   class="st1"
   d="m 249.66,651.24 c -1.52,-0.79 -2.53,-1.9 -3.04,-3.32 -0.44,-1.06 -0.67,-1.66 -0.67,-1.77 -0.01,-0.36 0.19,-0.63 0.61,-0.83 0.41,-0.01 0.91,0.16 1.49,0.5 0.58,0.34 1.04,0.57 1.4,0.68 0.92,0.81 2.15,1.2 3.71,1.16 1.19,-0.03 2.28,-0.3 3.25,-0.8 0.97,-0.51 1.5,-1.08 1.61,-1.75 -0.01,-0.3 -0.34,-1.33 -0.98,-3.11 -1.55,-2.11 -2.75,-4.28 -3.61,-6.49 -0.87,-2.22 -1.32,-4.1 -1.36,-5.65 -0.03,-1.13 0.27,-2.31 0.89,-3.52 0.63,-1.21 1.49,-2.25 2.61,-3.12 1.44,-1.59 3.21,-3.04 5.3,-4.35 2.09,-1.31 3.99,-2.22 5.7,-2.74 0.72,-0.02 1.6,0.05 2.65,0.19 1.05,0.16 1.78,0.34 2.21,0.56 0.66,0.22 1.31,0.86 1.93,1.92 0.63,1.06 0.95,2.07 0.98,3.02 0.02,0.95 -0.45,2.28 -1.42,3.98 -0.11,0.42 -0.33,0.99 -0.67,1.72 -0.34,0.73 -0.51,1.18 -0.5,1.36 -0.22,0.6 -0.61,0.91 -1.14,0.93 -0.54,0.01 -1.07,-0.23 -1.59,-0.72 -0.52,-0.49 -0.94,-1.09 -1.26,-1.8 -0.19,-0.71 -0.3,-1.33 -0.32,-1.87 -0.02,-0.72 0.2,-1.44 0.66,-2.17 0.64,-0.67 0.96,-1.13 0.95,-1.37 -0.01,-0.24 -0.34,-0.35 -0.99,-0.33 -0.72,0.02 -2.07,0.62 -4.07,1.8 -2,1.19 -3.58,2.43 -4.74,3.71 -1.05,1.05 -1.69,1.82 -1.91,2.33 -0.23,0.52 -0.33,1.28 -0.3,2.3 0.02,0.89 0.24,1.94 0.66,3.16 0.42,1.21 0.85,2.02 1.27,2.42 0.13,0.24 0.39,0.74 0.8,1.5 0.41,0.77 0.89,1.5 1.44,2.2 1.27,2.66 1.92,4.73 1.96,6.23 0.05,1.73 -0.59,3 -1.91,3.81 -1.32,0.81 -3.42,1.25 -6.28,1.32 -2.03,0.08 -3.8,-0.29 -5.32,-1.09 z"
   id="path46" />
	<path
   class="st1"
   d="m 318.34,644.43 c 0.01,0.42 -0.11,0.83 -0.37,1.22 -0.26,0.4 -0.51,0.6 -0.75,0.61 -1.13,0.03 -2.24,-0.26 -3.29,-0.86 -1.06,-0.6 -1.61,-1.58 -1.65,-2.96 l -0.14,-5.55 c -0.07,-2.8 -0.32,-4.38 -0.75,-4.72 -0.91,-0.46 -2.42,0.57 -4.54,3.07 -2.11,2.51 -4.14,5.45 -6.08,8.85 -0.63,1.09 -1.15,1.94 -1.54,2.55 -0.41,0.61 -0.73,0.91 -0.97,0.92 -0.18,0 -0.48,-0.14 -0.91,-0.42 -1.87,-0.49 -2.82,-1.51 -2.86,-3.06 0,-0.17 0.05,-0.57 0.15,-1.17 0.54,-1.99 1.08,-4.2 1.62,-6.63 0.53,-2.43 0.96,-4.48 1.27,-6.16 -0.19,-0.36 -0.49,-0.52 -0.91,-0.52 -0.6,0.02 -1.28,0.33 -2.03,0.95 -1.46,1.06 -3.31,3.52 -5.54,7.39 -2.81,4.55 -4.76,7.32 -5.87,8.3 -0.4,0.73 -0.76,1.29 -1.08,1.69 -0.32,0.4 -0.63,0.6 -0.92,0.61 -0.24,0.01 -0.69,-0.16 -1.36,-0.5 -1.76,-0.97 -2.66,-2.38 -2.7,-4.23 -0.03,-0.89 0.2,-2.7 0.66,-5.39 0.47,-2.7 1,-5.22 1.59,-7.56 0.51,-1.02 0.98,-2.1 1.4,-3.21 0.42,-1.12 0.62,-1.79 0.62,-2.03 0.21,-1.26 0.47,-2.61 0.79,-4.06 0.32,-1.44 0.57,-2.25 0.74,-2.44 0.41,-0.42 0.88,-0.65 1.41,-0.67 0.9,-0.02 1.56,0.44 2.01,1.38 0.67,0.64 1.02,1.47 1.05,2.48 0.03,1.13 -0.26,2.61 -0.87,4.41 -0.96,2.24 -1.98,5.49 -3.05,9.75 1.21,-1.39 2.08,-2.49 2.6,-3.28 1.38,-2.06 3.17,-4.38 5.37,-6.95 1.79,-2.08 3.85,-3.15 6.18,-3.21 2.75,0.41 4.4,2.67 4.92,6.77 0.02,0.72 -0.02,1.6 -0.11,2.65 -0.09,1.05 -0.16,1.72 -0.21,2.02 0.23,-0.37 0.82,-1.16 1.77,-2.38 0.95,-1.22 2.13,-2.47 3.53,-3.76 1.28,-1.05 2.49,-1.59 3.63,-1.62 0.95,-0.02 1.79,0.34 2.53,1.1 1.27,0.68 2.2,1.66 2.77,2.92 0.57,1.28 0.88,2.89 0.93,4.85 0.03,1.02 0.02,1.83 -0.03,2.42 -0.09,1.2 -0.13,1.95 -0.12,2.24 0.03,1.13 0.27,2.26 0.72,3.39 0.26,0.18 0.39,0.44 0.39,0.8 z"
   id="path48" />
	<path
   class="st1"
   d="m 329.2,648.71 c -0.78,0.02 -1.5,-0.03 -2.15,-0.17 -0.66,-0.13 -1,-0.31 -1,-0.55 0,-0.18 -0.04,-0.3 -0.1,-0.36 -0.06,-0.06 -0.18,-0.08 -0.36,-0.07 -0.06,-0.06 -0.24,-0.21 -0.54,-0.44 -0.31,-0.23 -0.67,-0.43 -1.09,-0.6 -0.56,-0.82 -0.85,-1.71 -0.87,-2.67 -0.03,-1.01 0.2,-2.6 0.68,-4.77 0.13,-1.91 0.97,-4.32 2.5,-7.22 1.54,-2.91 3.36,-5.68 5.47,-8.3 2.11,-2.62 4.02,-4.46 5.72,-5.53 0.87,-0.92 2,-1.39 3.37,-1.43 1.07,-0.03 2.09,0.21 3.06,0.72 0.85,0.46 1.75,1.24 2.71,2.35 0.95,1.11 1.71,2.26 2.28,3.43 0.26,0.89 0.4,1.75 0.43,2.59 0.02,0.89 -0.06,2.3 -0.25,4.21 -0.27,1.09 -0.49,2.41 -0.66,3.95 -0.17,1.56 -0.24,2.91 -0.21,4.04 -0.1,0.84 -0.02,1.51 0.23,2.01 0.25,0.5 0.58,0.75 1,0.73 0.3,-0.01 0.62,-0.1 0.98,-0.29 0.58,-0.31 1.24,-0.48 1.95,-0.5 0.66,-0.02 1.2,0.14 1.63,0.5 0.43,0.34 0.65,0.87 0.67,1.59 0.03,1.08 -0.67,2.17 -2.11,3.28 -1.43,1.11 -2.81,1.69 -4.11,1.72 -0.89,0.02 -1.74,-0.66 -2.52,-2.04 -0.78,-1.38 -1.56,-3.17 -2.33,-5.36 l -0.6,-2.04 -3.74,3.77 -2.01,2.11 c -0.93,0.98 -1.45,1.56 -1.57,1.75 -0.63,1.15 -2.24,2.27 -4.83,3.35 -0.62,0.16 -1.15,0.23 -1.63,0.24 z m 6.9,-10.03 c 2.03,-2.14 3.71,-4.19 5.03,-6.13 1.78,-2.49 2.88,-4.94 3.3,-7.34 -0.26,-0.71 -0.67,-1.42 -1.22,-2.11 -0.56,-0.71 -1.04,-1.08 -1.46,-1.13 -1.19,0.03 -2.42,0.75 -3.7,2.16 -1.28,1.41 -2.78,3.35 -4.51,5.85 l -2.83,4.46 c -0.34,0.49 -0.94,1.78 -1.78,3.85 -0.84,2.09 -1.26,3.33 -1.25,3.75 0.04,1.31 0.44,1.96 1.22,1.94 0.6,-0.02 1.28,-0.28 2.04,-0.77 1.4,-0.88 3.13,-2.39 5.16,-4.53 z"
   id="path50" />
	<path
   class="st1"
   d="m 385.15,644.79 c -0.79,-0.49 -1.46,-1.32 -2.03,-2.5 -0.59,-1.89 -0.91,-3.79 -0.96,-5.7 -0.02,-0.89 0.05,-1.53 0.22,-1.89 0.23,-0.25 0.32,-0.77 0.27,-1.58 -0.05,-0.8 -0.08,-1.38 -0.09,-1.73 -0.1,-1.37 -0.53,-2.05 -1.31,-2.03 -0.54,0.01 -1.13,0.24 -1.78,0.67 -3.28,2.17 -6.04,4.03 -8.27,5.58 -2.23,1.55 -4.36,3.28 -6.4,5.18 -0.81,0.98 -1.41,1.83 -1.81,2.56 -0.4,0.73 -0.69,1.23 -0.86,1.5 -0.17,0.28 -0.41,0.41 -0.71,0.42 -0.36,0.13 -0.6,0.2 -0.71,0.2 -0.3,0.01 -0.65,-0.15 -1.08,-0.46 -0.43,-0.32 -0.7,-0.53 -0.82,-0.65 -0.25,-0.23 -0.64,-0.63 -1.2,-1.17 -0.55,-0.56 -0.86,-0.95 -0.93,-1.19 -0.01,-0.47 0.15,-1.59 0.49,-3.33 0.34,-1.74 0.63,-2.85 0.86,-3.33 0.17,-0.01 0.43,-0.39 0.77,-1.14 0.34,-0.75 0.65,-1.34 0.94,-1.76 0.16,-0.9 0.87,-2.98 2.16,-6.24 0.8,-1.45 1.35,-2.66 1.65,-3.62 0.3,-0.97 0.49,-2.16 0.58,-3.6 l -0.01,-0.18 c -0.01,-0.23 0.08,-0.43 0.26,-0.58 0.17,-0.16 0.35,-0.24 0.53,-0.24 0.4,-0.31 0.79,-0.47 1.15,-0.48 0.78,-0.02 1.57,0.44 2.36,1.37 0.93,1.11 1.41,2.29 1.44,3.55 0.04,1.55 -0.88,4.02 -2.76,7.42 -0.17,0.42 -0.41,1.02 -0.72,1.81 -0.3,0.79 -0.45,1.33 -0.45,1.62 l 4.92,-3.52 c 0.47,-0.55 1.72,-1.55 3.78,-2.97 2.05,-1.42 3.49,-2.24 4.32,-2.44 1.42,-0.69 2.3,-1.05 2.66,-1.06 0.71,-0.02 1.7,0.5 2.95,1.54 1.25,1.04 2.01,1.92 2.27,2.62 0.01,0.66 0.08,1.14 0.21,1.44 0.33,1.18 0.51,2.58 0.56,4.19 0.03,1.08 -0.02,2.05 -0.15,2.92 -0.12,0.87 -0.3,1.37 -0.54,1.49 0,0.06 0.03,0.15 0.09,0.26 0.06,0.12 0.18,0.17 0.36,0.17 l 0.01,0.45 c -0.48,0.01 -0.52,0.52 -0.14,1.53 0.39,1.01 0.89,1.77 1.5,2.29 0.61,0.58 0.93,1.18 0.94,1.77 0.02,0.71 -0.51,1.23 -1.57,1.56 -1.16,-0.01 -2.16,-0.24 -2.95,-0.72 z"
   id="path52" />
	<path
   class="st1"
   d="m 396.06,647.41 c -1.51,-0.8 -2.53,-1.9 -3.04,-3.32 -0.45,-1.07 -0.67,-1.66 -0.68,-1.77 -0.01,-0.36 0.19,-0.63 0.61,-0.83 0.41,-0.01 0.91,0.16 1.49,0.5 0.58,0.34 1.04,0.57 1.41,0.68 0.92,0.81 2.15,1.2 3.7,1.15 1.19,-0.03 2.28,-0.3 3.25,-0.8 0.97,-0.51 1.51,-1.09 1.61,-1.75 -0.01,-0.3 -0.34,-1.33 -0.98,-3.1 -1.54,-2.11 -2.75,-4.28 -3.62,-6.49 -0.86,-2.21 -1.32,-4.1 -1.35,-5.65 -0.03,-1.13 0.27,-2.31 0.89,-3.52 0.62,-1.21 1.49,-2.25 2.6,-3.12 1.45,-1.59 3.21,-3.04 5.3,-4.34 2.09,-1.31 3.98,-2.22 5.71,-2.74 0.71,-0.02 1.59,0.05 2.64,0.2 1.05,0.15 1.79,0.34 2.21,0.56 0.66,0.22 1.31,0.86 1.93,1.92 0.62,1.06 0.95,2.07 0.98,3.02 0.03,0.95 -0.45,2.28 -1.42,3.98 -0.11,0.42 -0.34,0.99 -0.67,1.72 -0.34,0.73 -0.51,1.18 -0.5,1.36 -0.23,0.6 -0.61,0.91 -1.14,0.92 -0.54,0.02 -1.07,-0.22 -1.59,-0.72 -0.52,-0.49 -0.94,-1.09 -1.26,-1.8 -0.19,-0.71 -0.3,-1.33 -0.32,-1.87 -0.02,-0.72 0.2,-1.44 0.66,-2.17 0.64,-0.67 0.95,-1.13 0.95,-1.37 -0.01,-0.24 -0.34,-0.35 -0.99,-0.33 -0.72,0.02 -2.07,0.62 -4.08,1.8 -2,1.19 -3.58,2.43 -4.74,3.71 -1.05,1.05 -1.68,1.82 -1.9,2.33 -0.23,0.52 -0.33,1.28 -0.3,2.3 0.03,0.89 0.25,1.95 0.67,3.16 0.42,1.21 0.84,2.02 1.28,2.42 0.12,0.24 0.39,0.74 0.8,1.5 0.41,0.77 0.89,1.5 1.44,2.2 1.26,2.66 1.92,4.73 1.96,6.22 0.05,1.73 -0.6,3 -1.92,3.81 -1.32,0.81 -3.41,1.25 -6.28,1.32 -2.03,0.08 -3.8,-0.29 -5.31,-1.09 z"
   id="path54" />
	<path
   class="st1"
   d="m 451.28,646.32 c -0.41,0.01 -0.82,-0.08 -1.21,-0.28 -0.4,-0.19 -0.9,-0.58 -1.51,-1.17 -0.19,-0.23 -0.51,-0.65 -0.98,-1.27 -0.47,-0.62 -0.81,-1.29 -1.04,-2.03 -0.23,-0.74 -0.36,-1.68 -0.39,-2.81 -0.02,-0.84 -0.01,-1.55 0.04,-2.15 0.04,-0.6 0.08,-1.07 0.14,-1.44 l 0.11,-2.59 c 0.37,-1.86 0.54,-3.5 0.5,-4.93 -0.04,-1.61 -0.27,-2.41 -0.69,-2.4 -0.9,-0.16 -2.83,1.22 -5.81,4.14 -2.97,2.9 -6.19,6.47 -9.66,10.68 l -1.55,2.37 c -0.12,0.18 -0.4,0.61 -0.86,1.28 -0.46,0.67 -0.78,1.01 -0.96,1.01 -0.65,0.07 -1.55,-0.21 -2.71,-0.87 -1.16,-0.66 -1.76,-1.26 -1.83,-1.79 -0.01,-0.36 0.4,-2.02 1.26,-5 0.84,-2.98 1.52,-5.31 2.01,-6.99 l 3.63,-11.74 c 0.44,-1.5 1.24,-3.76 2.42,-6.77 l 1.59,-4.43 1,-2.72 3.83,-11.02 -0.01,-0.36 c -0.03,-1.01 0.16,-1.74 0.57,-2.16 l 1.25,-0.12 c 0,-0.12 0.24,0.01 0.73,0.38 0.49,0.38 0.97,0.81 1.43,1.31 0.46,0.49 0.69,0.89 0.71,1.19 0.19,0.41 0.29,0.89 0.3,1.43 0.03,1.37 -0.59,3.74 -1.88,7.12 -0.51,0.79 -1.27,2.69 -2.27,5.7 -0.55,1.69 -0.97,2.86 -1.25,3.53 -0.68,1.32 -1.85,4.06 -3.5,8.19 -1.65,4.13 -2.81,7.52 -3.45,10.17 -0.45,1.15 -0.66,1.98 -0.65,2.52 0.01,0.3 0.1,0.44 0.28,0.44 0.42,-0.01 1.06,-0.59 1.92,-1.74 3.65,-4.1 6.59,-7.19 8.8,-9.28 2.22,-2.09 4,-3.09 5.38,-3.01 0.73,0.16 1.62,0.81 2.7,1.94 1.08,1.14 1.84,2.24 2.28,3.3 0.4,1.31 0.6,2.53 0.63,3.66 0.03,1.01 -0.01,2.87 -0.12,5.55 l -0.13,2.07 c -0.4,3 -0.59,4.74 -0.58,5.21 0.01,0.54 0.1,0.92 0.25,1.16 0.16,0.24 0.48,0.56 0.97,0.96 0.98,0.75 1.47,1.4 1.49,1.93 0.01,0.48 -0.4,0.96 -1.22,1.46 -0.77,0.22 -1.43,0.36 -1.96,0.37 z"
   id="path56" />
	<path
   class="st1"
   d="m 461.04,643.11 c -0.3,-0.11 -0.51,-0.19 -0.63,-0.25 -0.01,-0.18 -0.09,-0.49 -0.25,-0.93 -0.16,-0.44 -0.25,-0.73 -0.25,-0.84 -0.49,-0.23 -0.73,-0.52 -0.75,-0.88 -0.01,-0.3 0.07,-0.72 0.24,-1.26 0.74,-1.39 2.03,-4.54 3.87,-9.46 1.83,-4.92 2.86,-7.82 3.08,-8.72 -0.01,-0.24 0.08,-0.54 0.25,-0.9 0.17,-0.37 0.37,-0.67 0.6,-0.92 0.23,-0.24 0.5,-0.37 0.8,-0.38 0.66,-0.02 1.28,0.41 1.87,1.29 0.59,0.88 0.9,1.86 0.93,2.93 0.02,0.72 -0.6,2.78 -1.85,6.19 -1.26,3.4 -2.68,6.83 -4.26,10.27 -0.23,0.49 -0.55,1.18 -0.97,2.09 -0.42,0.91 -0.75,1.45 -0.98,1.64 -0.23,0.18 -0.56,0.28 -0.98,0.29 -0.18,0.01 -0.42,-0.05 -0.72,-0.16 z m 9.5,-35.84 c -1.2,-1.19 -1.81,-2.44 -1.85,-3.76 -0.01,-0.3 0.33,-0.99 1.02,-2.09 0.69,-1.09 1.04,-1.7 1.03,-1.81 0.42,-0.01 0.78,0.01 1.08,0.06 0.3,0.05 0.65,0.16 1.08,0.33 0.57,1.18 1.44,2.38 2.6,3.6 0.37,0.47 0.71,0.91 1.02,1.32 0.31,0.41 0.47,0.76 0.48,1.06 0.03,1.01 -0.01,1.7 -0.08,2.06 -0.08,0.37 -0.31,0.61 -0.7,0.74 -0.38,0.13 -1.11,0.2 -2.18,0.23 -1.14,0.03 -2.3,-0.55 -3.5,-1.74 z"
   id="path58" />
	<path
   class="st1"
   d="m 470.64,667.58 c -0.48,0.01 -0.87,-0.25 -1.19,-0.78 -0.3,-0.4 -0.47,-0.91 -0.49,-1.5 -0.01,-0.42 0.12,-1.44 0.37,-3.06 0.59,-2.52 0.87,-4.26 0.85,-5.22 -0.01,-0.3 0.04,-0.73 0.15,-1.3 0.1,-0.57 0.17,-1.09 0.22,-1.57 0.23,-0.42 0.44,-1.07 0.63,-1.94 0.18,-0.87 0.27,-1.63 0.25,-2.29 -0.01,-0.3 0.09,-0.64 0.29,-1.03 0.19,-0.4 0.45,-0.71 0.74,-0.96 -0.01,-0.36 0.06,-0.91 0.22,-1.67 0.16,-0.75 0.27,-1.27 0.32,-1.58 0.26,-1.62 1.32,-5.47 3.19,-11.55 1.87,-6.07 3.48,-10.98 4.81,-14.72 0.62,-1.51 1.06,-2.89 1.32,-4.16 0.27,-1.26 0.39,-2.24 0.37,-2.96 -0.01,-0.23 0.06,-0.46 0.2,-0.67 0.15,-0.21 0.4,-0.51 0.75,-0.87 0.4,-0.43 0.79,-0.64 1.14,-0.65 0.3,-0.01 0.63,0.1 1,0.33 0.36,0.23 0.73,0.49 1.09,0.77 0.38,0.53 0.67,1.03 0.89,1.5 0.23,0.47 0.34,0.98 0.36,1.51 0.01,0.18 -0.04,0.75 -0.14,1.71 0.03,1.25 -0.21,2.29 -0.73,3.1 -0.51,0.82 -0.71,1.2 -0.6,1.14 2.66,-1.32 5.02,-2.01 7.11,-2.07 2.51,-0.06 4.48,0.69 5.93,2.26 1.44,1.57 2.2,3.64 2.27,6.21 0.03,1.08 -0.25,2.38 -0.84,3.92 -0.59,1.54 -1.17,2.58 -1.76,3.13 -0.36,0.01 -0.82,0.64 -1.38,1.92 -0.75,0.97 -2.01,2.01 -3.77,3.1 -1.76,1.09 -3.01,1.53 -3.73,1.3 -0.06,0 -0.15,0.04 -0.27,0.1 -0.12,0.06 -0.17,0.22 -0.17,0.45 0.01,0.24 -1,0.71 -3.01,1.42 -2.01,0.71 -3.68,1.08 -4.99,1.11 -0.71,0.02 -1.25,-0.01 -1.61,-0.09 -0.36,-0.08 -0.72,-0.27 -1.09,-0.55 -0.41,0.42 -0.6,0.82 -0.6,1.18 0.02,0.65 -0.25,1.85 -0.8,3.6 -0.55,1.75 -1,2.63 -1.36,2.64 -0.06,0.06 -0.13,0.18 -0.22,0.35 -0.08,0.18 0,0.39 0.25,0.63 0,0.18 -0.02,0.6 -0.06,1.25 -0.05,0.66 -0.18,1.17 -0.41,1.54 0.01,0.54 -0.06,1.27 -0.21,2.2 -0.16,0.93 -0.34,1.64 -0.57,2.12 0.02,0.72 -0.06,1.42 -0.26,2.12 -0.19,0.69 -0.41,1.04 -0.64,1.05 -0.35,0.13 -0.51,1 -0.47,2.61 -0.02,1.49 -0.29,2.66 -0.8,3.52 -0.52,0.84 -1.13,1.28 -1.85,1.3 z m 16.13,-31.82 c 2.69,-1 4.56,-1.96 5.61,-2.88 1.22,-1.11 2.21,-2.28 2.95,-3.52 0.75,-1.24 1.1,-2.49 1.06,-3.75 -0.02,-0.95 -0.31,-1.81 -0.87,-2.57 -0.44,-0.65 -1.16,-0.96 -2.18,-0.93 -1.19,0.03 -2.6,0.48 -4.22,1.36 -1.62,0.88 -3.1,2.02 -4.43,3.43 -1.05,1.1 -1.96,2.67 -2.74,4.68 -0.78,2.02 -1.16,3.6 -1.13,4.73 0.02,0.66 0.21,0.98 0.56,0.97 0.92,-0.01 2.71,-0.52 5.39,-1.52 z"
   id="path60" />
</g>
<g
   id="g66"
   transform="translate(-44.062386,-69.21045)">
	<rect
   x="120.12"
   y="695.40997"
   class="st1"
   width="360.51001"
   height="5.9000001"
   id="rect64" />
</g>
<g
   id="g100"
   transform="translate(-44.062386,-69.21045)">
	<g
   id="g70">
		<path
   class="st1"
   d="m 440.18,723.55 h -279.6 c -0.19,0 -0.35,-0.15 -0.35,-0.35 v -49.69 c 0,-0.19 0.15,-0.35 0.35,-0.35 h 279.6 c 0.19,0 0.35,0.15 0.35,0.35 v 49.69 c -0.01,0.2 -0.16,0.35 -0.35,0.35 z"
   id="path68" />
	</g>
	<g
   id="g98">
		<path
   class="st0"
   d="m 189.64,709.78 c 0,0.44 -0.95,0.66 -2.83,0.66 -1.88,0 -2.91,-0.16 -3.07,-0.47 l -5.03,-9.87 v 9.84 c 0,0.38 -0.93,0.57 -2.79,0.57 -1.86,0 -2.79,-0.19 -2.79,-0.57 v -21.17 c 0,-0.31 0.79,-0.47 2.38,-0.47 0.62,0 1.35,0.06 2.19,0.17 0.83,0.12 1.34,0.33 1.52,0.65 l 4.82,9.75 v -9.94 c 0,-0.4 0.94,-0.6 2.81,-0.6 1.87,0 2.8,0.2 2.8,0.6 v 20.85 z"
   id="path72" />
		<path
   class="st0"
   d="m 203.98,710.79 c -2.82,0 -5.12,-0.97 -6.9,-2.91 -1.78,-1.94 -2.67,-4.77 -2.67,-8.5 0,-3.73 0.9,-6.55 2.7,-8.46 1.8,-1.92 4.12,-2.88 6.96,-2.88 2.84,0 5.14,0.94 6.89,2.83 1.75,1.89 2.62,4.75 2.62,8.57 0,3.83 -0.9,6.68 -2.69,8.55 -1.79,1.87 -4.09,2.8 -6.91,2.8 z m 0.01,-16.68 c -0.97,0 -1.78,0.47 -2.43,1.39 -0.65,0.93 -0.98,2.23 -0.98,3.91 0,1.67 0.31,2.96 0.94,3.86 0.62,0.9 1.44,1.35 2.46,1.35 1.01,0 1.84,-0.45 2.47,-1.36 0.63,-0.91 0.95,-2.21 0.95,-3.89 0,-1.68 -0.33,-2.99 -0.98,-3.89 -0.66,-0.92 -1.46,-1.37 -2.43,-1.37 z"
   id="path74" />
		<path
   class="st0"
   d="m 224.09,710.03 c 0,0.34 -0.95,0.51 -2.86,0.51 -1.93,0 -2.89,-0.16 -2.89,-0.48 v -20.64 c 0,-0.74 0.37,-1.1 1.11,-1.1 h 5.76 c 5.28,0 7.93,2.16 7.93,6.49 0,1.31 -0.24,2.49 -0.73,3.56 -0.48,1.07 -1.17,1.91 -2.05,2.55 l 3.8,6.64 c -0.16,0.51 -0.68,1.09 -1.57,1.74 -1.21,0.91 -2.2,1.36 -2.98,1.36 -0.78,0 -1.37,-0.3 -1.75,-0.89 l -2.83,-6.93 h -0.94 z m 0,-16.11 v 4.75 h 0.15 c 1.91,0 2.86,-0.83 2.86,-2.5 0,-0.76 -0.19,-1.32 -0.56,-1.69 -0.37,-0.37 -0.98,-0.55 -1.82,-0.55 h -0.63 z"
   id="path76" />
		<path
   class="st0"
   d="m 238.47,709.02 v -18.99 c 0,-0.53 0.13,-0.94 0.38,-1.25 0.25,-0.3 0.58,-0.46 0.98,-0.46 h 5.03 c 3.19,0 5.62,0.84 7.28,2.53 1.66,1.69 2.48,4.35 2.48,7.98 0,7.76 -3.16,11.65 -9.46,11.65 h -5.15 c -1.03,-0.01 -1.54,-0.49 -1.54,-1.46 z m 5.79,-14.69 v 9.46 c 0,0.44 0.03,0.72 0.09,0.84 0.06,0.11 0.24,0.17 0.54,0.17 1.1,0 1.94,-0.43 2.52,-1.3 0.57,-0.86 0.86,-2.31 0.86,-4.32 0,-2.01 -0.3,-3.33 -0.89,-3.94 -0.59,-0.61 -1.53,-0.92 -2.82,-0.92 h -0.3 z"
   id="path78" />
		<path
   class="st0"
   d="m 268.35,710.79 c -2.82,0 -5.12,-0.97 -6.9,-2.91 -1.78,-1.94 -2.67,-4.77 -2.67,-8.5 0,-3.73 0.9,-6.55 2.7,-8.46 1.8,-1.92 4.12,-2.88 6.96,-2.88 2.84,0 5.14,0.94 6.89,2.83 1.75,1.89 2.62,4.75 2.62,8.57 0,3.83 -0.9,6.68 -2.69,8.55 -1.78,1.86 -4.08,2.8 -6.91,2.8 z m 0.02,-16.68 c -0.97,0 -1.78,0.47 -2.43,1.39 -0.65,0.93 -0.98,2.23 -0.98,3.91 0,1.67 0.31,2.96 0.94,3.86 0.62,0.9 1.44,1.35 2.46,1.35 1.02,0 1.84,-0.45 2.47,-1.36 0.63,-0.91 0.95,-2.21 0.95,-3.89 0,-1.68 -0.33,-2.99 -0.98,-3.89 -0.66,-0.92 -1.47,-1.37 -2.43,-1.37 z"
   id="path80" />
		<path
   class="st0"
   d="m 297.51,694.05 c 0,2.19 -0.91,3.86 -2.71,5 0.98,0.38 1.81,1.03 2.47,1.96 0.66,0.93 0.99,2.24 0.99,3.94 0,1.7 -0.6,3.05 -1.79,4.04 -1.2,0.99 -2.91,1.49 -5.14,1.49 h -7.11 c -0.34,0 -0.62,-0.12 -0.84,-0.36 -0.22,-0.24 -0.33,-0.57 -0.33,-0.97 v -20.26 c 0,-0.23 0.03,-0.38 0.1,-0.46 0.07,-0.07 0.22,-0.11 0.44,-0.11 h 6.87 c 4.7,0 7.05,1.91 7.05,5.73 z m -8.68,-0.6 v 4.15 h 0.15 c 1.93,0 2.9,-0.67 2.9,-2.02 0,-0.74 -0.19,-1.28 -0.56,-1.62 -0.37,-0.34 -0.99,-0.51 -1.86,-0.51 z m 0,7.88 v 4.11 h 0.54 c 0.86,0 1.5,-0.17 1.9,-0.51 0.4,-0.34 0.6,-0.87 0.6,-1.61 0,-0.74 -0.19,-1.25 -0.56,-1.55 -0.37,-0.29 -0.99,-0.44 -1.86,-0.44 z"
   id="path82" />
		<path
   class="st0"
   d="m 312.77,697.12 c 0.38,0 0.58,0.74 0.58,2.22 0,0.44 -0.05,0.97 -0.14,1.57 -0.09,0.6 -0.26,0.9 -0.5,0.9 h -3.83 v 3.16 h 5.55 c 0.34,0 0.58,0.46 0.69,1.39 0.06,0.4 0.09,0.83 0.09,1.28 0,0.45 -0.06,1.04 -0.18,1.76 -0.12,0.72 -0.32,1.08 -0.6,1.08 h -10.31 c -0.76,0 -1.15,-0.33 -1.15,-0.98 v -20.35 c 0,-0.55 0.23,-0.82 0.69,-0.82 h 10.79 c 0.42,0 0.63,0.93 0.63,2.8 0,1.87 -0.21,2.8 -0.63,2.8 h -5.58 v 3.19 z"
   id="path84" />
		<path
   class="st0"
   d="m 325.94,710.03 c 0,0.34 -0.95,0.51 -2.86,0.51 -1.93,0 -2.9,-0.16 -2.9,-0.48 v -20.64 c 0,-0.74 0.38,-1.1 1.11,-1.1 h 5.76 c 5.29,0 7.93,2.16 7.93,6.49 0,1.31 -0.25,2.49 -0.73,3.56 -0.49,1.07 -1.17,1.91 -2.05,2.55 l 3.8,6.64 c -0.16,0.51 -0.69,1.09 -1.57,1.74 -1.21,0.91 -2.2,1.36 -2.99,1.36 -0.78,0 -1.37,-0.3 -1.75,-0.89 l -2.83,-6.93 h -0.93 v 7.19 z m 0,-16.11 v 4.75 h 0.15 c 1.91,0 2.86,-0.83 2.86,-2.5 0,-0.76 -0.19,-1.32 -0.56,-1.69 -0.37,-0.37 -0.98,-0.55 -1.82,-0.55 h -0.63 z"
   id="path86" />
		<path
   class="st0"
   d="m 342.94,710.54 c -1.83,0 -2.75,-0.21 -2.75,-0.63 V 689.4 c 0,-0.72 0.31,-1.08 0.93,-1.08 h 5.31 c 2.97,0 5.12,0.64 6.43,1.93 1.32,1.29 1.98,3.16 1.98,5.6 0,2.02 -0.62,3.88 -1.87,5.57 -0.62,0.85 -1.54,1.52 -2.75,2.02 -1.21,0.51 -2.61,0.76 -4.22,0.76 v 5.66 c 0,0.26 -0.38,0.43 -1.13,0.52 -0.75,0.11 -1.4,0.16 -1.93,0.16 z m 3.07,-16.72 v 5 h 0.4 c 0.7,0 1.3,-0.23 1.78,-0.7 0.48,-0.46 0.73,-1.12 0.73,-1.96 0,-0.84 -0.17,-1.44 -0.5,-1.8 -0.33,-0.36 -0.92,-0.54 -1.76,-0.54 z"
   id="path88" />
		<path
   class="st0"
   d="m 371.11,688.32 c 0.34,0 0.51,0.93 0.51,2.8 0,1.87 -0.17,2.8 -0.51,2.8 h -5.51 v 3.61 h 3.67 c 0.34,0 0.52,0.82 0.52,2.45 0,1.64 -0.16,2.46 -0.49,2.46 h -3.71 v 7.63 c 0,0.29 -0.38,0.49 -1.13,0.59 -0.75,0.09 -1.38,0.14 -1.88,0.14 l -1.42,-0.06 c -0.98,-0.13 -1.48,-0.34 -1.48,-0.63 v -20.95 c 0,-0.34 0.06,-0.56 0.19,-0.67 0.13,-0.1 0.33,-0.16 0.59,-0.16 h 10.65 z"
   id="path90" />
		<path
   class="st0"
   d="m 389.23,710.54 c -1.75,0 -2.69,-0.3 -2.83,-0.89 l -0.99,-4.08 h -4.79 l -0.87,3.92 c -0.12,0.65 -1.09,0.98 -2.9,0.98 -0.97,0 -1.68,-0.06 -2.14,-0.17 -0.46,-0.11 -0.69,-0.2 -0.69,-0.27 l 5.33,-21.43 c 0,-0.17 1.38,-0.25 4.13,-0.25 2.75,0 4.13,0.08 4.13,0.25 l 5.22,21.46 c 0,0.15 -0.46,0.27 -1.39,0.35 -0.94,0.08 -1.67,0.13 -2.21,0.13 z m -7.87,-8.99 h 3.17 L 383.17,695 h -0.18 z"
   id="path92" />
		<path
   class="st0"
   d="m 396.85,708.61 v -19.69 c 0,-0.44 1.02,-0.66 3.06,-0.66 2.04,0 3.06,0.22 3.06,0.66 v 15.51 h 4.65 c 0.36,0 0.61,0.5 0.75,1.49 0.06,0.49 0.09,0.98 0.09,1.49 0,0.51 -0.03,1.02 -0.09,1.55 -0.16,1.01 -0.42,1.52 -0.78,1.52 h -9.28 c -0.44,0 -0.79,-0.19 -1.05,-0.57 -0.28,-0.39 -0.41,-0.82 -0.41,-1.3 z"
   id="path94" />
		<path
   class="st0"
   d="m 413.41,694.08 c -0.34,0 -0.58,-0.49 -0.73,-1.46 -0.06,-0.4 -0.09,-0.84 -0.09,-1.33 0,-0.49 0.05,-0.99 0.15,-1.52 0.18,-0.97 0.49,-1.45 0.91,-1.45 h 11.15 c 1.22,0 2.02,1.17 2.38,3.51 0.08,0.51 0.12,0.87 0.12,1.11 l -7.05,11.23 h 5.51 c 0.02,0 0.04,0 0.06,0 0.44,0 0.75,0.51 0.93,1.52 0.08,0.49 0.12,0.99 0.12,1.52 0,0.53 -0.06,1.09 -0.18,1.68 -0.22,1.05 -0.56,1.58 -1.02,1.58 h -11.73 c -0.18,0 -0.51,-0.64 -0.98,-1.91 -0.47,-1.28 -0.71,-2.07 -0.71,-2.39 0,-0.31 0.03,-0.52 0.09,-0.6 l 7.05,-11.49 z"
   id="path96" />
	</g>
</g>
</svg>
