<svg version="1.1" xmlns="http://www.w3.org/2000/svg" viewBox="0 0 2548.333333333332 1063.333333333333" width="5096.666666666664" height="2126.666666666666">
  <!-- svg-source:excalidraw -->
  
  <defs>
    <style class="style-fonts">
      @font-face {
        font-family: "Virgil";
        src: url("https://excalidraw.com/Virgil.woff2");
      }
      @font-face {
        font-family: "Cascadia";
        src: url("https://excalidraw.com/Cascadia.woff2");
      }
    </style>
  </defs>
  <rect x="0" y="0" width="2548.333333333332" height="1063.333333333333" fill="#ffffff"></rect><g stroke-linecap="round" transform="translate(459.9999999999991 380) rotate(0 215 155)"><path d="M430 155 C430 158.69, 429.82 162.38, 429.45 166.06 C429.09 169.73, 428.54 173.41, 427.81 177.06 C427.08 180.71, 426.17 184.35, 425.09 187.95 C424 191.55, 422.73 195.13, 421.29 198.67 C419.85 202.21, 418.23 205.71, 416.44 209.17 C414.66 212.62, 412.69 216.04, 410.57 219.39 C408.45 222.74, 406.15 226.05, 403.7 229.28 C401.25 232.52, 398.63 235.7, 395.87 238.8 C393.11 241.9, 390.18 244.94, 387.12 247.89 C384.05 250.84, 380.83 253.72, 377.49 256.5 C374.14 259.29, 370.64 262, 367.03 264.6 C363.41 267.21, 359.66 269.73, 355.8 272.14 C351.93 274.55, 347.94 276.88, 343.84 279.08 C339.75 281.29, 335.54 283.4, 331.24 285.39 C326.94 287.39, 322.53 289.27, 318.04 291.04 C313.55 292.81, 308.96 294.46, 304.31 295.99 C299.66 297.52, 294.93 298.94, 290.13 300.23 C285.34 301.52, 280.48 302.68, 275.57 303.72 C270.67 304.76, 265.7 305.67, 260.7 306.46 C255.71 307.24, 250.66 307.9, 245.6 308.42 C240.54 308.95, 235.44 309.34, 230.34 309.61 C225.24 309.87, 220.11 310, 215 310 C209.89 310, 204.76 309.87, 199.66 309.61 C194.56 309.34, 189.46 308.95, 184.4 308.42 C179.34 307.9, 174.29 307.24, 169.3 306.46 C164.3 305.67, 159.33 304.76, 154.43 303.72 C149.52 302.68, 144.66 301.52, 139.87 300.23 C135.07 298.94, 130.34 297.52, 125.69 295.99 C121.04 294.46, 116.45 292.81, 111.96 291.04 C107.47 289.27, 103.06 287.39, 98.76 285.39 C94.46 283.4, 90.25 281.29, 86.16 279.08 C82.06 276.88, 78.07 274.55, 74.2 272.14 C70.34 269.73, 66.59 267.21, 62.97 264.6 C59.36 262, 55.86 259.29, 52.51 256.5 C49.17 253.72, 45.95 250.84, 42.88 247.89 C39.82 244.94, 36.89 241.9, 34.13 238.8 C31.37 235.7, 28.75 232.52, 26.3 229.28 C23.85 226.05, 21.55 222.74, 19.43 219.39 C17.31 216.04, 15.34 212.62, 13.56 209.17 C11.77 205.71, 10.15 202.21, 8.71 198.67 C7.27 195.13, 6 191.55, 4.91 187.95 C3.83 184.35, 2.92 180.71, 2.19 177.06 C1.46 173.41, 0.91 169.73, 0.55 166.06 C0.18 162.38, 0 158.69, 0 155 C0 151.31, 0.18 147.62, 0.55 143.94 C0.91 140.27, 1.46 136.59, 2.19 132.94 C2.92 129.29, 3.83 125.65, 4.91 122.05 C6 118.45, 7.27 114.87, 8.71 111.33 C10.15 107.79, 11.77 104.29, 13.56 100.83 C15.34 97.38, 17.31 93.96, 19.43 90.61 C21.55 87.26, 23.85 83.95, 26.3 80.72 C28.75 77.48, 31.37 74.3, 34.13 71.2 C36.89 68.1, 39.82 65.06, 42.88 62.11 C45.95 59.16, 49.17 56.28, 52.51 53.5 C55.86 50.71, 59.36 48, 62.97 45.4 C66.59 42.79, 70.34 40.27, 74.2 37.86 C78.07 35.45, 82.06 33.12, 86.16 30.92 C90.25 28.71, 94.46 26.6, 98.76 24.61 C103.06 22.61, 107.47 20.73, 111.96 18.96 C116.45 17.19, 121.04 15.54, 125.69 14.01 C130.34 12.48, 135.07 11.06, 139.87 9.77 C144.66 8.48, 149.52 7.32, 154.43 6.28 C159.33 5.24, 164.3 4.33, 169.3 3.54 C174.29 2.76, 179.34 2.1, 184.4 1.58 C189.46 1.05, 194.56 0.66, 199.66 0.39 C204.76 0.13, 209.89 0, 215 0 C220.11 0, 225.24 0.13, 230.34 0.39 C235.44 0.66, 240.54 1.05, 245.6 1.58 C250.66 2.1, 255.71 2.76, 260.7 3.54 C265.7 4.33, 270.67 5.24, 275.57 6.28 C280.48 7.32, 285.34 8.48, 290.13 9.77 C294.93 11.06, 299.66 12.48, 304.31 14.01 C308.96 15.54, 313.55 17.19, 318.04 18.96 C322.53 20.73, 326.94 22.61, 331.24 24.61 C335.54 26.6, 339.75 28.71, 343.84 30.92 C347.94 33.12, 351.93 35.45, 355.8 37.86 C359.66 40.27, 363.41 42.79, 367.03 45.4 C370.64 48, 374.14 50.71, 377.49 53.5 C380.83 56.28, 384.05 59.16, 387.12 62.11 C390.18 65.06, 393.11 68.1, 395.87 71.2 C398.63 74.3, 401.25 77.48, 403.7 80.72 C406.15 83.95, 408.45 87.26, 410.57 90.61 C412.69 93.96, 414.66 97.38, 416.44 100.83 C418.23 104.29, 419.85 107.79, 421.29 111.33 C422.73 114.87, 424 118.45, 425.09 122.05 C426.17 125.65, 427.08 129.29, 427.81 132.94 C428.54 136.59, 429.09 140.27, 429.45 143.94 C429.82 147.62, 430 151.31, 430 155" stroke="#000000" stroke-width="4" fill="none"></path></g><g transform="translate(538.8909873573912 514.1984489160851) rotate(0 136.0810546875 20.69999999999999)"><text x="136.0810546875" y="0" font-family="Helvetica, Segoe UI Emoji" font-size="36px" fill="#000000" text-anchor="middle" style="white-space: pre;" direction="ltr" dominant-baseline="text-before-edge">Send Notification</text></g><g mask="url(#mask-2OhLqvmD0lnOwIAzgzXrg)" stroke-linecap="round"><g transform="translate(856.6307758712383 446.693532291314) rotate(0 142.52448984270768 -106.68499824483362)"><path d="M0 0 C47.51 -35.56, 237.54 -177.81, 285.05 -213.37 M0 0 C47.51 -35.56, 237.54 -177.81, 285.05 -213.37" stroke="#000000" stroke-width="4" fill="none"></path></g><g transform="translate(856.6307758712383 446.693532291314) rotate(0 142.52448984270768 -106.68499824483362)"><path d="M285.05 -213.37 L277.96 -200.15 L270.37 -210.3 L285.05 -213.37" stroke="none" stroke-width="0" fill="#000000" fill-rule="evenodd"></path><path d="M285.05 -213.37 C282.4 -208.42, 279.75 -203.48, 277.96 -200.15 M285.05 -213.37 C282.4 -208.43, 279.75 -203.48, 277.96 -200.15 M277.96 -200.15 C275.27 -203.75, 272.58 -207.35, 270.37 -210.3 M277.96 -200.15 C275.6 -203.3, 273.24 -206.46, 270.37 -210.3 M270.37 -210.3 C274.64 -211.19, 278.91 -212.08, 285.05 -213.37 M270.37 -210.3 C275.48 -211.37, 280.59 -212.44, 285.05 -213.37 M285.05 -213.37 C285.05 -213.37, 285.05 -213.37, 285.05 -213.37 M285.05 -213.37 C285.05 -213.37, 285.05 -213.37, 285.05 -213.37" stroke="#000000" stroke-width="4" fill="none"></path></g></g><mask id="mask-2OhLqvmD0lnOwIAzgzXrg"><rect x="0" y="0" fill="#fff" width="1241.6797555566536" height="760.0635287809812"></rect><rect x="922.1279219639455" y="298.6085340464804" fill="#000" width="154.0546875" height="82.8" opacity="1"></rect></mask><g transform="translate(922.1279219639455 298.6085340464804) rotate(0 77.02734375000045 41.400000000000006)"><text x="77.02734375" y="0" font-family="Helvetica, Segoe UI Emoji" font-size="36px" fill="#000000" text-anchor="middle" style="white-space: pre;" direction="ltr" dominant-baseline="text-before-edge">onMail ( </text><text x="77.02734375" y="41.4" font-family="Helvetica, Segoe UI Emoji" font-size="36px" fill="#000000" text-anchor="middle" style="white-space: pre;" direction="ltr" dominant-baseline="text-before-edge">Address )</text></g><g mask="url(#mask-ERC3KC_qB2yPClb4ZVQIf)" stroke-linecap="round"><g transform="translate(891.666638616236 536.6666671893453) rotate(0 134.17847454838602 -2.9535565045009093)"><path d="M0 0 C44.73 -0.98, 223.63 -4.92, 268.36 -5.91 M0 0 C44.73 -0.98, 223.63 -4.92, 268.36 -5.91" stroke="#000000" stroke-width="4" fill="none"></path></g><g transform="translate(891.666638616236 536.6666671893453) rotate(0 134.17847454838602 -2.9535565045009093)"><path d="M268.36 -5.91 L254.91 0.73 L254.63 -11.95 L268.36 -5.91" stroke="none" stroke-width="0" fill="#000000" fill-rule="evenodd"></path><path d="M268.36 -5.91 C265.41 -4.45, 262.45 -2.99, 254.91 0.73 M268.36 -5.91 C263.72 -3.62, 259.09 -1.34, 254.91 0.73 M254.91 0.73 C254.84 -2.01, 254.78 -4.75, 254.63 -11.95 M254.91 0.73 C254.82 -3.3, 254.73 -7.33, 254.63 -11.95 M254.63 -11.95 C258.32 -10.32, 262.01 -8.7, 268.36 -5.91 M254.63 -11.95 C259.78 -9.68, 264.94 -7.41, 268.36 -5.91 M268.36 -5.91 C268.36 -5.91, 268.36 -5.91, 268.36 -5.91 M268.36 -5.91 C268.36 -5.91, 268.36 -5.91, 268.36 -5.91" stroke="#000000" stroke-width="4" fill="none"></path></g></g><mask id="mask-ERC3KC_qB2yPClb4ZVQIf"><rect x="0" y="0" fill="#fff" width="1260.023587713008" height="642.5737801983471"></rect><rect x="920.7982381646216" y="471.6131106848444" fill="#000" width="210.09375" height="124.19999999999999" opacity="1"></rect></mask><g transform="translate(920.7982381646216 471.6131106848445) rotate(0 105.04687500000045 62.099999999999966)"><text x="105.046875" y="0" font-family="Helvetica, Segoe UI Emoji" font-size="36px" fill="#000000" text-anchor="middle" style="white-space: pre;" direction="ltr" dominant-baseline="text-before-edge">onEmail ( </text><text x="105.046875" y="41.4" font-family="Helvetica, Segoe UI Emoji" font-size="36px" fill="#000000" text-anchor="middle" style="white-space: pre;" direction="ltr" dominant-baseline="text-before-edge">VerifiedEmail</text><text x="105.046875" y="82.8" font-family="Helvetica, Segoe UI Emoji" font-size="36px" fill="#000000" text-anchor="middle" style="white-space: pre;" direction="ltr" dominant-baseline="text-before-edge">)</text></g><g stroke-linecap="round" transform="translate(1121.6666666666652 10) rotate(0 215 155)"><path d="M430 155 C430 158.69, 429.82 162.38, 429.45 166.06 C429.09 169.73, 428.54 173.41, 427.81 177.06 C427.08 180.71, 426.17 184.35, 425.09 187.95 C424 191.55, 422.73 195.13, 421.29 198.67 C419.85 202.21, 418.23 205.71, 416.44 209.17 C414.66 212.62, 412.69 216.04, 410.57 219.39 C408.45 222.74, 406.15 226.05, 403.7 229.28 C401.25 232.52, 398.63 235.7, 395.87 238.8 C393.11 241.9, 390.18 244.94, 387.12 247.89 C384.05 250.84, 380.83 253.72, 377.49 256.5 C374.14 259.29, 370.64 262, 367.03 264.6 C363.41 267.21, 359.66 269.73, 355.8 272.14 C351.93 274.55, 347.94 276.88, 343.84 279.08 C339.75 281.29, 335.54 283.4, 331.24 285.39 C326.94 287.39, 322.53 289.27, 318.04 291.04 C313.55 292.81, 308.96 294.46, 304.31 295.99 C299.66 297.52, 294.93 298.94, 290.13 300.23 C285.34 301.52, 280.48 302.68, 275.57 303.72 C270.67 304.76, 265.7 305.67, 260.7 306.46 C255.71 307.24, 250.66 307.9, 245.6 308.42 C240.54 308.95, 235.44 309.34, 230.34 309.61 C225.24 309.87, 220.11 310, 215 310 C209.89 310, 204.76 309.87, 199.66 309.61 C194.56 309.34, 189.46 308.95, 184.4 308.42 C179.34 307.9, 174.29 307.24, 169.3 306.46 C164.3 305.67, 159.33 304.76, 154.43 303.72 C149.52 302.68, 144.66 301.52, 139.87 300.23 C135.07 298.94, 130.34 297.52, 125.69 295.99 C121.04 294.46, 116.45 292.81, 111.96 291.04 C107.47 289.27, 103.06 287.39, 98.76 285.39 C94.46 283.4, 90.25 281.29, 86.16 279.08 C82.06 276.88, 78.07 274.55, 74.2 272.14 C70.34 269.73, 66.59 267.21, 62.97 264.6 C59.36 262, 55.86 259.29, 52.51 256.5 C49.17 253.72, 45.95 250.84, 42.88 247.89 C39.82 244.94, 36.89 241.9, 34.13 238.8 C31.37 235.7, 28.75 232.52, 26.3 229.28 C23.85 226.05, 21.55 222.74, 19.43 219.39 C17.31 216.04, 15.34 212.62, 13.56 209.17 C11.77 205.71, 10.15 202.21, 8.71 198.67 C7.27 195.13, 6 191.55, 4.91 187.95 C3.83 184.35, 2.92 180.71, 2.19 177.06 C1.46 173.41, 0.91 169.73, 0.55 166.06 C0.18 162.38, 0 158.69, 0 155 C0 151.31, 0.18 147.62, 0.55 143.94 C0.91 140.27, 1.46 136.59, 2.19 132.94 C2.92 129.29, 3.83 125.65, 4.91 122.05 C6 118.45, 7.27 114.87, 8.71 111.33 C10.15 107.79, 11.77 104.29, 13.56 100.83 C15.34 97.38, 17.31 93.96, 19.43 90.61 C21.55 87.26, 23.85 83.95, 26.3 80.72 C28.75 77.48, 31.37 74.3, 34.13 71.2 C36.89 68.1, 39.82 65.06, 42.88 62.11 C45.95 59.16, 49.17 56.28, 52.51 53.5 C55.86 50.71, 59.36 48, 62.97 45.4 C66.59 42.79, 70.34 40.27, 74.2 37.86 C78.07 35.45, 82.06 33.12, 86.16 30.92 C90.25 28.71, 94.46 26.6, 98.76 24.61 C103.06 22.61, 107.47 20.73, 111.96 18.96 C116.45 17.19, 121.04 15.54, 125.69 14.01 C130.34 12.48, 135.07 11.06, 139.87 9.77 C144.66 8.48, 149.52 7.32, 154.43 6.28 C159.33 5.24, 164.3 4.33, 169.3 3.54 C174.29 2.76, 179.34 2.1, 184.4 1.58 C189.46 1.05, 194.56 0.66, 199.66 0.39 C204.76 0.13, 209.89 0, 215 0 C220.11 0, 225.24 0.13, 230.34 0.39 C235.44 0.66, 240.54 1.05, 245.6 1.58 C250.66 2.1, 255.71 2.76, 260.7 3.54 C265.7 4.33, 270.67 5.24, 275.57 6.28 C280.48 7.32, 285.34 8.48, 290.13 9.77 C294.93 11.06, 299.66 12.48, 304.31 14.01 C308.96 15.54, 313.55 17.19, 318.04 18.96 C322.53 20.73, 326.94 22.61, 331.24 24.61 C335.54 26.6, 339.75 28.71, 343.84 30.92 C347.94 33.12, 351.93 35.45, 355.8 37.86 C359.66 40.27, 363.41 42.79, 367.03 45.4 C370.64 48, 374.14 50.71, 377.49 53.5 C380.83 56.28, 384.05 59.16, 387.12 62.11 C390.18 65.06, 393.11 68.1, 395.87 71.2 C398.63 74.3, 401.25 77.48, 403.7 80.72 C406.15 83.95, 408.45 87.26, 410.57 90.61 C412.69 93.96, 414.66 97.38, 416.44 100.83 C418.23 104.29, 419.85 107.79, 421.29 111.33 C422.73 114.87, 424 118.45, 425.09 122.05 C426.17 125.65, 427.08 129.29, 427.81 132.94 C428.54 136.59, 429.09 140.27, 429.45 143.94 C429.82 147.62, 430 151.31, 430 155" stroke="#000000" stroke-width="4" fill="none"></path></g><g transform="translate(1256.5967165240572 144.1984489160851) rotate(0 80.0419921875 20.69999999999999)"><text x="80.0419921875" y="0" font-family="Helvetica, Segoe UI Emoji" font-size="36px" fill="#000000" text-anchor="middle" style="white-space: pre;" direction="ltr" dominant-baseline="text-before-edge">Send Mail</text></g><g stroke-linecap="round" transform="translate(1169.999999999999 371.66666666666674) rotate(0 215 155)"><path d="M430 155 C430 158.69, 429.82 162.38, 429.45 166.06 C429.09 169.73, 428.54 173.41, 427.81 177.06 C427.08 180.71, 426.17 184.35, 425.09 187.95 C424 191.55, 422.73 195.13, 421.29 198.67 C419.85 202.21, 418.23 205.71, 416.44 209.17 C414.66 212.62, 412.69 216.04, 410.57 219.39 C408.45 222.74, 406.15 226.05, 403.7 229.28 C401.25 232.52, 398.63 235.7, 395.87 238.8 C393.11 241.9, 390.18 244.94, 387.12 247.89 C384.05 250.84, 380.83 253.72, 377.49 256.5 C374.14 259.29, 370.64 262, 367.03 264.6 C363.41 267.21, 359.66 269.73, 355.8 272.14 C351.93 274.55, 347.94 276.88, 343.84 279.08 C339.75 281.29, 335.54 283.4, 331.24 285.39 C326.94 287.39, 322.53 289.27, 318.04 291.04 C313.55 292.81, 308.96 294.46, 304.31 295.99 C299.66 297.52, 294.93 298.94, 290.13 300.23 C285.34 301.52, 280.48 302.68, 275.57 303.72 C270.67 304.76, 265.7 305.67, 260.7 306.46 C255.71 307.24, 250.66 307.9, 245.6 308.42 C240.54 308.95, 235.44 309.34, 230.34 309.61 C225.24 309.87, 220.11 310, 215 310 C209.89 310, 204.76 309.87, 199.66 309.61 C194.56 309.34, 189.46 308.95, 184.4 308.42 C179.34 307.9, 174.29 307.24, 169.3 306.46 C164.3 305.67, 159.33 304.76, 154.43 303.72 C149.52 302.68, 144.66 301.52, 139.87 300.23 C135.07 298.94, 130.34 297.52, 125.69 295.99 C121.04 294.46, 116.45 292.81, 111.96 291.04 C107.47 289.27, 103.06 287.39, 98.76 285.39 C94.46 283.4, 90.25 281.29, 86.16 279.08 C82.06 276.88, 78.07 274.55, 74.2 272.14 C70.34 269.73, 66.59 267.21, 62.97 264.6 C59.36 262, 55.86 259.29, 52.51 256.5 C49.17 253.72, 45.95 250.84, 42.88 247.89 C39.82 244.94, 36.89 241.9, 34.13 238.8 C31.37 235.7, 28.75 232.52, 26.3 229.28 C23.85 226.05, 21.55 222.74, 19.43 219.39 C17.31 216.04, 15.34 212.62, 13.56 209.17 C11.77 205.71, 10.15 202.21, 8.71 198.67 C7.27 195.13, 6 191.55, 4.91 187.95 C3.83 184.35, 2.92 180.71, 2.19 177.06 C1.46 173.41, 0.91 169.73, 0.55 166.06 C0.18 162.38, 0 158.69, 0 155 C0 151.31, 0.18 147.62, 0.55 143.94 C0.91 140.27, 1.46 136.59, 2.19 132.94 C2.92 129.29, 3.83 125.65, 4.91 122.05 C6 118.45, 7.27 114.87, 8.71 111.33 C10.15 107.79, 11.77 104.29, 13.56 100.83 C15.34 97.38, 17.31 93.96, 19.43 90.61 C21.55 87.26, 23.85 83.95, 26.3 80.72 C28.75 77.48, 31.37 74.3, 34.13 71.2 C36.89 68.1, 39.82 65.06, 42.88 62.11 C45.95 59.16, 49.17 56.28, 52.51 53.5 C55.86 50.71, 59.36 48, 62.97 45.4 C66.59 42.79, 70.34 40.27, 74.2 37.86 C78.07 35.45, 82.06 33.12, 86.16 30.92 C90.25 28.71, 94.46 26.6, 98.76 24.61 C103.06 22.61, 107.47 20.73, 111.96 18.96 C116.45 17.19, 121.04 15.54, 125.69 14.01 C130.34 12.48, 135.07 11.06, 139.87 9.77 C144.66 8.48, 149.52 7.32, 154.43 6.28 C159.33 5.24, 164.3 4.33, 169.3 3.54 C174.29 2.76, 179.34 2.1, 184.4 1.58 C189.46 1.05, 194.56 0.66, 199.66 0.39 C204.76 0.13, 209.89 0, 215 0 C220.11 0, 225.24 0.13, 230.34 0.39 C235.44 0.66, 240.54 1.05, 245.6 1.58 C250.66 2.1, 255.71 2.76, 260.7 3.54 C265.7 4.33, 270.67 5.24, 275.57 6.28 C280.48 7.32, 285.34 8.48, 290.13 9.77 C294.93 11.06, 299.66 12.48, 304.31 14.01 C308.96 15.54, 313.55 17.19, 318.04 18.96 C322.53 20.73, 326.94 22.61, 331.24 24.61 C335.54 26.6, 339.75 28.71, 343.84 30.92 C347.94 33.12, 351.93 35.45, 355.8 37.86 C359.66 40.27, 363.41 42.79, 367.03 45.4 C370.64 48, 374.14 50.71, 377.49 53.5 C380.83 56.28, 384.05 59.16, 387.12 62.11 C390.18 65.06, 393.11 68.1, 395.87 71.2 C398.63 74.3, 401.25 77.48, 403.7 80.72 C406.15 83.95, 408.45 87.26, 410.57 90.61 C412.69 93.96, 414.66 97.38, 416.44 100.83 C418.23 104.29, 419.85 107.79, 421.29 111.33 C422.73 114.87, 424 118.45, 425.09 122.05 C426.17 125.65, 427.08 129.29, 427.81 132.94 C428.54 136.59, 429.09 140.27, 429.45 143.94 C429.82 147.62, 430 151.31, 430 155" stroke="#000000" stroke-width="4" fill="none"></path></g><g transform="translate(1286.9300498573912 505.86511558275186) rotate(0 98.0419921875 20.69999999999999)"><text x="98.0419921875" y="0" font-family="Helvetica, Segoe UI Emoji" font-size="36px" fill="#000000" text-anchor="middle" style="white-space: pre;" direction="ltr" dominant-baseline="text-before-edge">Send E-Mail</text></g><g stroke-linecap="round" transform="translate(1078.3333333333321 743.333333333333) rotate(0 215 155)"><path d="M430 155 C430 158.69, 429.82 162.38, 429.45 166.06 C429.09 169.73, 428.54 173.41, 427.81 177.06 C427.08 180.71, 426.17 184.35, 425.09 187.95 C424 191.55, 422.73 195.13, 421.29 198.67 C419.85 202.21, 418.23 205.71, 416.44 209.17 C414.66 212.62, 412.69 216.04, 410.57 219.39 C408.45 222.74, 406.15 226.05, 403.7 229.28 C401.25 232.52, 398.63 235.7, 395.87 238.8 C393.11 241.9, 390.18 244.94, 387.12 247.89 C384.05 250.84, 380.83 253.72, 377.49 256.5 C374.14 259.29, 370.64 262, 367.03 264.6 C363.41 267.21, 359.66 269.73, 355.8 272.14 C351.93 274.55, 347.94 276.88, 343.84 279.08 C339.75 281.29, 335.54 283.4, 331.24 285.39 C326.94 287.39, 322.53 289.27, 318.04 291.04 C313.55 292.81, 308.96 294.46, 304.31 295.99 C299.66 297.52, 294.93 298.94, 290.13 300.23 C285.34 301.52, 280.48 302.68, 275.57 303.72 C270.67 304.76, 265.7 305.67, 260.7 306.46 C255.71 307.24, 250.66 307.9, 245.6 308.42 C240.54 308.95, 235.44 309.34, 230.34 309.61 C225.24 309.87, 220.11 310, 215 310 C209.89 310, 204.76 309.87, 199.66 309.61 C194.56 309.34, 189.46 308.95, 184.4 308.42 C179.34 307.9, 174.29 307.24, 169.3 306.46 C164.3 305.67, 159.33 304.76, 154.43 303.72 C149.52 302.68, 144.66 301.52, 139.87 300.23 C135.07 298.94, 130.34 297.52, 125.69 295.99 C121.04 294.46, 116.45 292.81, 111.96 291.04 C107.47 289.27, 103.06 287.39, 98.76 285.39 C94.46 283.4, 90.25 281.29, 86.16 279.08 C82.06 276.88, 78.07 274.55, 74.2 272.14 C70.34 269.73, 66.59 267.21, 62.97 264.6 C59.36 262, 55.86 259.29, 52.51 256.5 C49.17 253.72, 45.95 250.84, 42.88 247.89 C39.82 244.94, 36.89 241.9, 34.13 238.8 C31.37 235.7, 28.75 232.52, 26.3 229.28 C23.85 226.05, 21.55 222.74, 19.43 219.39 C17.31 216.04, 15.34 212.62, 13.56 209.17 C11.77 205.71, 10.15 202.21, 8.71 198.67 C7.27 195.13, 6 191.55, 4.91 187.95 C3.83 184.35, 2.92 180.71, 2.19 177.06 C1.46 173.41, 0.91 169.73, 0.55 166.06 C0.18 162.38, 0 158.69, 0 155 C0 151.31, 0.18 147.62, 0.55 143.94 C0.91 140.27, 1.46 136.59, 2.19 132.94 C2.92 129.29, 3.83 125.65, 4.91 122.05 C6 118.45, 7.27 114.87, 8.71 111.33 C10.15 107.79, 11.77 104.29, 13.56 100.83 C15.34 97.38, 17.31 93.96, 19.43 90.61 C21.55 87.26, 23.85 83.95, 26.3 80.72 C28.75 77.48, 31.37 74.3, 34.13 71.2 C36.89 68.1, 39.82 65.06, 42.88 62.11 C45.95 59.16, 49.17 56.28, 52.51 53.5 C55.86 50.71, 59.36 48, 62.97 45.4 C66.59 42.79, 70.34 40.27, 74.2 37.86 C78.07 35.45, 82.06 33.12, 86.16 30.92 C90.25 28.71, 94.46 26.6, 98.76 24.61 C103.06 22.61, 107.47 20.73, 111.96 18.96 C116.45 17.19, 121.04 15.54, 125.69 14.01 C130.34 12.48, 135.07 11.06, 139.87 9.77 C144.66 8.48, 149.52 7.32, 154.43 6.28 C159.33 5.24, 164.3 4.33, 169.3 3.54 C174.29 2.76, 179.34 2.1, 184.4 1.58 C189.46 1.05, 194.56 0.66, 199.66 0.39 C204.76 0.13, 209.89 0, 215 0 C220.11 0, 225.24 0.13, 230.34 0.39 C235.44 0.66, 240.54 1.05, 245.6 1.58 C250.66 2.1, 255.71 2.76, 260.7 3.54 C265.7 4.33, 270.67 5.24, 275.57 6.28 C280.48 7.32, 285.34 8.48, 290.13 9.77 C294.93 11.06, 299.66 12.48, 304.31 14.01 C308.96 15.54, 313.55 17.19, 318.04 18.96 C322.53 20.73, 326.94 22.61, 331.24 24.61 C335.54 26.6, 339.75 28.71, 343.84 30.92 C347.94 33.12, 351.93 35.45, 355.8 37.86 C359.66 40.27, 363.41 42.79, 367.03 45.4 C370.64 48, 374.14 50.71, 377.49 53.5 C380.83 56.28, 384.05 59.16, 387.12 62.11 C390.18 65.06, 393.11 68.1, 395.87 71.2 C398.63 74.3, 401.25 77.48, 403.7 80.72 C406.15 83.95, 408.45 87.26, 410.57 90.61 C412.69 93.96, 414.66 97.38, 416.44 100.83 C418.23 104.29, 419.85 107.79, 421.29 111.33 C422.73 114.87, 424 118.45, 425.09 122.05 C426.17 125.65, 427.08 129.29, 427.81 132.94 C428.54 136.59, 429.09 140.27, 429.45 143.94 C429.82 147.62, 430 151.31, 430 155" stroke="#000000" stroke-width="4" fill="none"></path></g><g transform="translate(1207.2604535032242 877.5317822494183) rotate(0 86.044921875 20.700000000000045)"><text x="86.044921875" y="0" font-family="Helvetica, Segoe UI Emoji" font-size="36px" fill="#000000" text-anchor="middle" style="white-space: pre;" direction="ltr" dominant-baseline="text-before-edge">Send SMS</text></g><g mask="url(#mask-pQZR3sn6-mUf_SOwweQ09)" stroke-linecap="round"><g transform="translate(846.6666666666661 634.9999999999998) rotate(0 126.66666666666652 97.5)"><path d="M0 0 C42.22 32.5, 211.11 162.5, 253.33 195 M0 0 C42.22 32.5, 211.11 162.5, 253.33 195" stroke="#000000" stroke-width="4" fill="none"></path></g><g transform="translate(846.6666666666661 634.9999999999998) rotate(0 126.66666666666652 97.5)"><path d="M253.33 195 L238.69 191.73 L246.43 181.68 L253.33 195" stroke="none" stroke-width="0" fill="#000000" fill-rule="evenodd"></path><path d="M253.33 195 C250.36 194.34, 247.38 193.67, 238.69 191.73 M253.33 195 C247.74 193.75, 242.15 192.5, 238.69 191.73 M238.69 191.73 C241.26 188.39, 243.83 185.06, 246.43 181.68 M238.69 191.73 C240.45 189.46, 242.2 187.18, 246.43 181.68 M246.43 181.68 C248.12 184.95, 249.81 188.22, 253.33 195 M246.43 181.68 C248.04 184.8, 249.66 187.91, 253.33 195 M253.33 195 C253.33 195, 253.33 195, 253.33 195 M253.33 195 C253.33 195, 253.33 195, 253.33 195" stroke="#000000" stroke-width="4" fill="none"></path></g></g><mask id="mask-pQZR3sn6-mUf_SOwweQ09"><rect x="0" y="0" fill="#fff" width="1199.999999999999" height="929.9999999999998"></rect><rect x="873.2698567708321" y="670.3999999999999" fill="#000" width="200.126953125" height="124.19999999999999" opacity="1"></rect></mask><g transform="translate(873.2698567708321 670.3999999999997) rotate(0 100.06347656250045 62.10000000000002)"><text x="100.0634765625" y="0" font-family="Helvetica, Segoe UI Emoji" font-size="36px" fill="#000000" text-anchor="middle" style="white-space: pre;" direction="ltr" dominant-baseline="text-before-edge">onSms ( </text><text x="100.0634765625" y="41.4" font-family="Helvetica, Segoe UI Emoji" font-size="36px" fill="#000000" text-anchor="middle" style="white-space: pre;" direction="ltr" dominant-baseline="text-before-edge">PhoneNumb</text><text x="100.0634765625" y="82.8" font-family="Helvetica, Segoe UI Emoji" font-size="36px" fill="#000000" text-anchor="middle" style="white-space: pre;" direction="ltr" dominant-baseline="text-before-edge">er )</text></g><g mask="url(#mask-wQGTAInnX-JcJ6z5Dp6jd)" stroke-linecap="round"><g transform="translate(10 533.333333333333) rotate(0 223.33333333333303 2.5)"><path d="M0 0 C74.44 0.83, 372.22 4.17, 446.67 5 M0 0 C74.44 0.83, 372.22 4.17, 446.67 5" stroke="#000000" stroke-width="4" fill="none"></path></g><g transform="translate(10 533.333333333333) rotate(0 223.33333333333303 2.5)"><path d="M446.67 5 L433 11.19 L433.14 -1.49 L446.67 5" stroke="none" stroke-width="0" fill="#000000" fill-rule="evenodd"></path><path d="M446.67 5 C441.75 7.23, 436.82 9.46, 433 11.19 M446.67 5 C442.26 7, 437.84 8.99, 433 11.19 M433 11.19 C433.04 7.6, 433.08 4.02, 433.14 -1.49 M433 11.19 C433.04 8.19, 433.07 5.2, 433.14 -1.49 M433.14 -1.49 C437.99 0.84, 442.84 3.16, 446.67 5 M433.14 -1.49 C436.06 -0.09, 438.97 1.31, 446.67 5 M446.67 5 C446.67 5, 446.67 5, 446.67 5 M446.67 5 C446.67 5, 446.67 5, 446.67 5" stroke="#000000" stroke-width="4" fill="none"></path></g></g><mask id="mask-wQGTAInnX-JcJ6z5Dp6jd"><rect x="0" y="0" fill="#fff" width="556.6666666666661" height="638.333333333333"></rect><rect x="89.27180989583303" y="515.133333333333" fill="#000" width="288.123046875" height="41.4" opacity="1"></rect></mask><g transform="translate(89.27180989583303 515.133333333333) rotate(0 144.0615234375 20.700000000000045)"><text x="144.0615234375" y="0" font-family="Helvetica, Segoe UI Emoji" font-size="36px" fill="#000000" text-anchor="middle" style="white-space: pre;" direction="ltr" dominant-baseline="text-before-edge">( ContactMethod )</text></g><g mask="url(#mask-WIg4qPckym9K6ZUBsK8P6)" stroke-linecap="round"><g transform="translate(1548.3333333333321 151.66666666666657) rotate(0 249.01810764079073 190.75814259794785)"><path d="M0 0 C83.01 63.59, 415.03 317.93, 498.04 381.52 M0 0 C83.01 63.59, 415.03 317.93, 498.04 381.52" stroke="#000000" stroke-width="4" fill="none"></path></g></g><mask id="mask-WIg4qPckym9K6ZUBsK8P6"><rect x="0" y="0" fill="#fff" width="2146.3695486149136" height="633.1829518625623"></rect><rect x="1620.2781987866238" y="321.7248092646144" fill="#000" width="354.146484375" height="41.4" opacity="1"></rect></mask><g transform="translate(1620.2781987866229 321.7248092646144) rotate(0 177.0732421875 20.700000000000017)"><text x="177.0732421875" y="0" font-family="Helvetica, Segoe UI Emoji" font-size="36px" fill="#000000" text-anchor="middle" style="white-space: pre;" direction="ltr" dominant-baseline="text-before-edge">( Result&lt;unit, string&gt; )</text></g><g mask="url(#mask-jeJx66UNCJU82DHr0PuBP)" stroke-linecap="round"><g transform="translate(1602.5658122046643 531.019274513666) rotate(0 225.63507403447602 4.231996191322537)"><path d="M0 0 C75.21 1.41, 376.06 7.05, 451.27 8.46 M0 0 C75.21 1.41, 376.06 7.05, 451.27 8.46" stroke="#000000" stroke-width="4" fill="none"></path></g></g><mask id="mask-jeJx66UNCJU82DHr0PuBP"><rect x="0" y="0" fill="#fff" width="2153.8359602736164" height="639.4832668963111"></rect><rect x="1651.1276440516413" y="514.5512707049884" fill="#000" width="354.146484375" height="41.4" opacity="1"></rect></mask><g transform="translate(1651.1276440516394 514.5512707049885) rotate(0 177.0732421875 20.700000000000045)"><text x="177.0732421875" y="0" font-family="Helvetica, Segoe UI Emoji" font-size="36px" fill="#000000" text-anchor="middle" style="white-space: pre;" direction="ltr" dominant-baseline="text-before-edge">( Result&lt;unit, string&gt; )</text></g><g mask="url(#mask-AoyA4PwPbhlhdUE7WL0-h)" stroke-linecap="round"><g transform="translate(1518.2280755878419 912.942347367715) rotate(0 270.19325264057215 -182.60969394764209)"><path d="M0 0 C90.06 -60.87, 450.32 -304.35, 540.39 -365.22 M0 0 C90.06 -60.87, 450.32 -304.35, 540.39 -365.22" stroke="#000000" stroke-width="4" fill="none"></path></g></g><mask id="mask-AoyA4PwPbhlhdUE7WL0-h"><rect x="0" y="0" fill="#fff" width="2158.614580868986" height="1378.1617352629992"></rect><rect x="1611.3480860409145" y="709.6326534200728" fill="#000" width="354.146484375" height="41.4" opacity="1"></rect></mask><g transform="translate(1611.3480860409145 709.6326534200729) rotate(0 177.07324218749955 20.700000000000045)"><text x="177.0732421875" y="0" font-family="Helvetica, Segoe UI Emoji" font-size="36px" fill="#000000" text-anchor="middle" style="white-space: pre;" direction="ltr" dominant-baseline="text-before-edge">( Result&lt;unit, string&gt; )</text></g><g stroke-linecap="round" transform="translate(2126.666666666666 426.6666666666665) rotate(0 205.83333333333303 120.83333333333326)"><path d="M411.67 120.83 C411.67 123.84, 411.47 126.86, 411.09 129.86 C410.71 132.86, 410.13 135.87, 409.37 138.84 C408.6 141.82, 407.65 144.79, 406.51 147.72 C405.37 150.66, 404.03 153.57, 402.52 156.45 C401.01 159.33, 399.31 162.18, 397.44 164.98 C395.56 167.78, 393.51 170.55, 391.28 173.26 C389.06 175.97, 386.65 178.64, 384.09 181.25 C381.53 183.86, 378.79 186.41, 375.9 188.9 C373.01 191.39, 369.96 193.82, 366.76 196.17 C363.56 198.52, 360.21 200.81, 356.72 203.02 C353.23 205.23, 349.59 207.36, 345.84 209.41 C342.08 211.46, 338.18 213.43, 334.17 215.3 C330.16 217.18, 326.02 218.97, 321.78 220.67 C317.55 222.37, 313.19 223.97, 308.75 225.48 C304.31 226.98, 299.76 228.39, 295.14 229.7 C290.52 231.01, 285.81 232.21, 281.03 233.31 C276.26 234.41, 271.4 235.41, 266.5 236.3 C261.6 237.19, 256.63 237.97, 251.64 238.64 C246.64 239.31, 241.58 239.87, 236.51 240.32 C231.44 240.77, 226.33 241.1, 221.22 241.33 C216.1 241.55, 210.96 241.67, 205.83 241.67 C200.71 241.67, 195.56 241.55, 190.45 241.33 C185.34 241.1, 180.23 240.77, 175.16 240.32 C170.09 239.87, 165.03 239.31, 160.03 238.64 C155.03 237.97, 150.06 237.19, 145.16 236.3 C140.26 235.41, 135.41 234.41, 130.63 233.31 C125.86 232.21, 121.15 231.01, 116.53 229.7 C111.91 228.39, 107.36 226.98, 102.92 225.48 C98.48 223.97, 94.12 222.37, 89.88 220.67 C85.65 218.97, 81.51 217.18, 77.5 215.3 C73.49 213.43, 69.59 211.46, 65.83 209.41 C62.07 207.36, 58.43 205.23, 54.95 203.02 C51.46 200.81, 48.1 198.52, 44.91 196.17 C41.71 193.82, 38.65 191.39, 35.77 188.9 C32.88 186.41, 30.14 183.86, 27.58 181.25 C25.01 178.64, 22.61 175.97, 20.38 173.26 C18.16 170.55, 16.1 167.78, 14.23 164.98 C12.36 162.18, 10.66 159.33, 9.14 156.45 C7.63 153.57, 6.3 150.66, 5.16 147.72 C4.02 144.79, 3.06 141.82, 2.3 138.84 C1.53 135.87, 0.96 132.86, 0.58 129.86 C0.19 126.86, 0 123.84, 0 120.83 C0 117.82, 0.19 114.8, 0.58 111.8 C0.96 108.8, 1.53 105.8, 2.3 102.82 C3.06 99.85, 4.02 96.88, 5.16 93.95 C6.3 91.01, 7.63 88.09, 9.14 85.22 C10.66 82.34, 12.36 79.49, 14.23 76.69 C16.1 73.89, 18.16 71.12, 20.38 68.41 C22.61 65.69, 25.01 63.02, 27.58 60.42 C30.14 57.81, 32.88 55.25, 35.77 52.77 C38.65 50.28, 41.71 47.85, 44.91 45.49 C48.1 43.14, 51.46 40.85, 54.95 38.65 C58.43 36.44, 62.07 34.3, 65.83 32.26 C69.59 30.21, 73.49 28.24, 77.5 26.36 C81.51 24.49, 85.65 22.69, 89.88 21 C94.12 19.3, 98.48 17.69, 102.92 16.19 C107.36 14.68, 111.91 13.27, 116.53 11.97 C121.15 10.66, 125.86 9.45, 130.63 8.35 C135.41 7.25, 140.26 6.26, 145.16 5.37 C150.06 4.48, 155.03 3.7, 160.03 3.03 C165.03 2.36, 170.09 1.8, 175.16 1.35 C180.23 0.9, 185.34 0.56, 190.45 0.34 C195.56 0.11, 200.71 0, 205.83 0 C210.96 0, 216.1 0.11, 221.22 0.34 C226.33 0.56, 231.44 0.9, 236.51 1.35 C241.58 1.8, 246.64 2.36, 251.64 3.03 C256.63 3.7, 261.6 4.48, 266.5 5.37 C271.4 6.26, 276.26 7.25, 281.03 8.35 C285.81 9.45, 290.52 10.66, 295.14 11.97 C299.76 13.27, 304.31 14.68, 308.75 16.19 C313.19 17.69, 317.55 19.3, 321.78 21 C326.02 22.69, 330.16 24.49, 334.17 26.36 C338.18 28.24, 342.08 30.21, 345.84 32.26 C349.59 34.3, 353.23 36.44, 356.72 38.65 C360.21 40.85, 363.56 43.14, 366.76 45.49 C369.96 47.85, 373.01 50.28, 375.9 52.77 C378.79 55.25, 381.53 57.81, 384.09 60.42 C386.65 63.02, 389.06 65.69, 391.28 68.41 C393.51 71.12, 395.56 73.89, 397.44 76.69 C399.31 79.49, 401.01 82.34, 402.52 85.22 C404.03 88.09, 405.37 91.01, 406.51 93.95 C407.65 96.88, 408.6 99.85, 409.37 102.82 C410.13 105.8, 410.71 108.8, 411.09 111.8 C411.47 114.8, 411.67 117.82, 411.67 120.83" stroke="#000000" stroke-width="4" fill="none"></path></g><g stroke-linecap="round"><g transform="translate(2059.999999999999 536.6666666666665) rotate(0 30 1.6666666666666288)"><path d="M0 0 C10 0.56, 50 2.78, 60 3.33 M0 0 C10 0.56, 50 2.78, 60 3.33" stroke="#000000" stroke-width="4" fill="none"></path></g><g transform="translate(2059.999999999999 536.6666666666665) rotate(0 30 1.6666666666666288)"><path d="M31.28 12.01 C39.13 9.64, 46.97 7.27, 60 3.33 M31.28 12.01 C40.69 9.17, 50.1 6.33, 60 3.33" stroke="#000000" stroke-width="4" fill="none"></path></g><g transform="translate(2059.999999999999 536.6666666666665) rotate(0 30 1.6666666666666288)"><path d="M32.42 -8.48 C39.95 -5.25, 47.49 -2.02, 60 3.33 M32.42 -8.48 C41.46 -4.61, 50.49 -0.74, 60 3.33" stroke="#000000" stroke-width="4" fill="none"></path></g></g><mask></mask><g transform="translate(55 233.33333333333314) rotate(0 186.7587890625 103.5)"><text x="0" y="0" font-family="Helvetica, Segoe UI Emoji" font-size="36px" fill="#000000" text-anchor="start" style="white-space: pre;" direction="ltr" dominant-baseline="text-before-edge">ContactMethod</text><text x="0" y="41.4" font-family="Helvetica, Segoe UI Emoji" font-size="36px" fill="#000000" text-anchor="start" style="white-space: pre;" direction="ltr" dominant-baseline="text-before-edge">-------------------------</text><text x="0" y="82.8" font-family="Helvetica, Segoe UI Emoji" font-size="36px" fill="#000000" text-anchor="start" style="white-space: pre;" direction="ltr" dominant-baseline="text-before-edge">| Mail of Address</text><text x="0" y="124.19999999999999" font-family="Helvetica, Segoe UI Emoji" font-size="36px" fill="#000000" text-anchor="start" style="white-space: pre;" direction="ltr" dominant-baseline="text-before-edge">| Email of VerifiedEmail</text><text x="0" y="165.6" font-family="Helvetica, Segoe UI Emoji" font-size="36px" fill="#000000" text-anchor="start" style="white-space: pre;" direction="ltr" dominant-baseline="text-before-edge">| Sms of PhoneNumber</text></g></svg>