<svg version="1.1" xmlns="http://www.w3.org/2000/svg" viewBox="0 0 2782.923665364584 1568.3333333333333" width="5565.847330729168" height="3136.6666666666665">
  <!-- svg-source:excalidraw -->
  
  <defs>
    <style class="style-fonts">
      @font-face {
        font-family: "Virgil";
        src: url("https://excalidraw.com/Virgil.woff2");
      }
      @font-face {
        font-family: "Cascadia";
        src: url("https://excalidraw.com/Cascadia.woff2");
      }
    </style>
  </defs>
  <rect x="0" y="0" width="2782.923665364584" height="1568.3333333333333" fill="#ffffff"></rect><g stroke-linecap="round" transform="translate(49.88069661458576 230) rotate(0 97 89.5)"><path d="M32 0 M32 0 C73.42 0, 114.85 0, 162 0 M32 0 C63.27 0, 94.55 0, 162 0 M162 0 C183.33 0, 194 10.67, 194 32 M162 0 C183.33 0, 194 10.67, 194 32 M194 32 C194 58.91, 194 85.83, 194 147 M194 32 C194 76.55, 194 121.1, 194 147 M194 147 C194 168.33, 183.33 179, 162 179 M194 147 C194 168.33, 183.33 179, 162 179 M162 179 C128.17 179, 94.33 179, 32 179 M162 179 C128.03 179, 94.06 179, 32 179 M32 179 C10.67 179, 0 168.33, 0 147 M32 179 C10.67 179, 0 168.33, 0 147 M0 147 C0 114.31, 0 81.61, 0 32 M0 147 C0 111.21, 0 75.42, 0 32 M0 32 C0 10.67, 10.67 0, 32 0 M0 32 C0 10.67, 10.67 0, 32 0" stroke="#000000" stroke-width="4" fill="none"></path></g><g transform="translate(128.88069661458576 298.8) rotate(0 18 20.700000000000003)"><text x="18" y="0" font-family="Helvetica, Segoe UI Emoji" font-size="36px" fill="#000000" text-anchor="middle" style="white-space: pre;" direction="ltr" dominant-baseline="text-before-edge">UI</text></g><g stroke-linecap="round" transform="translate(1231.5473632812527 214.9999999999999) rotate(0 197.5 96)"><path d="M395 96 C395 98.51, 394.8 101.03, 394.39 103.53 C393.99 106.04, 393.38 108.54, 392.57 111.02 C391.76 113.5, 390.75 115.97, 389.54 118.41 C388.34 120.85, 386.93 123.28, 385.33 125.67 C383.74 128.05, 381.94 130.42, 379.97 132.74 C377.99 135.06, 375.82 137.35, 373.47 139.58 C371.13 141.82, 368.6 144.02, 365.9 146.16 C363.2 148.3, 360.32 150.4, 357.28 152.43 C354.24 154.46, 351.03 156.44, 347.68 158.35 C344.33 160.26, 340.81 162.11, 337.15 163.88 C333.5 165.66, 329.69 167.37, 325.77 169 C321.84 170.63, 317.77 172.19, 313.59 173.67 C309.41 175.14, 305.1 176.54, 300.69 177.85 C296.29 179.17, 291.77 180.4, 287.16 181.54 C282.56 182.68, 277.85 183.73, 273.08 184.69 C268.31 185.65, 263.44 186.53, 258.53 187.3 C253.62 188.08, 248.63 188.76, 243.61 189.35 C238.58 189.93, 233.5 190.43, 228.4 190.82 C223.29 191.21, 218.14 191.51, 213 191.7 C207.85 191.9, 202.67 192, 197.5 192 C192.33 192, 187.15 191.9, 182 191.7 C176.86 191.51, 171.71 191.21, 166.6 190.82 C161.5 190.43, 156.42 189.93, 151.39 189.35 C146.37 188.76, 141.38 188.08, 136.47 187.3 C131.56 186.53, 126.69 185.65, 121.92 184.69 C117.15 183.73, 112.44 182.68, 107.84 181.54 C103.23 180.4, 98.71 179.17, 94.31 177.85 C89.9 176.54, 85.59 175.14, 81.41 173.67 C77.23 172.19, 73.16 170.63, 69.23 169 C65.31 167.37, 61.5 165.66, 57.85 163.88 C54.19 162.11, 50.67 160.26, 47.32 158.35 C43.97 156.44, 40.76 154.46, 37.72 152.43 C34.68 150.4, 31.8 148.3, 29.1 146.16 C26.4 144.02, 23.87 141.82, 21.53 139.58 C19.18 137.35, 17.01 135.06, 15.03 132.74 C13.06 130.42, 11.26 128.05, 9.67 125.67 C8.07 123.28, 6.66 120.85, 5.46 118.41 C4.25 115.97, 3.24 113.5, 2.43 111.02 C1.62 108.54, 1.01 106.04, 0.61 103.53 C0.2 101.03, 0 98.51, 0 96 C0 93.49, 0.2 90.97, 0.61 88.47 C1.01 85.96, 1.62 83.46, 2.43 80.98 C3.24 78.5, 4.25 76.03, 5.46 73.59 C6.66 71.15, 8.07 68.72, 9.67 66.33 C11.26 63.95, 13.06 61.58, 15.03 59.26 C17.01 56.94, 19.18 54.65, 21.53 52.42 C23.87 50.18, 26.4 47.98, 29.1 45.84 C31.8 43.7, 34.68 41.6, 37.72 39.57 C40.76 37.54, 43.97 35.56, 47.32 33.65 C50.67 31.74, 54.19 29.89, 57.85 28.12 C61.5 26.34, 65.31 24.63, 69.23 23 C73.16 21.37, 77.23 19.81, 81.41 18.33 C85.59 16.86, 89.9 15.46, 94.31 14.15 C98.71 12.83, 103.23 11.6, 107.84 10.46 C112.44 9.32, 117.15 8.27, 121.92 7.31 C126.69 6.35, 131.56 5.47, 136.47 4.7 C141.38 3.92, 146.37 3.24, 151.39 2.65 C156.42 2.07, 161.5 1.57, 166.6 1.18 C171.71 0.79, 176.86 0.49, 182 0.3 C187.15 0.1, 192.33 0, 197.5 0 C202.67 0, 207.85 0.1, 213 0.3 C218.14 0.49, 223.29 0.79, 228.4 1.18 C233.5 1.57, 238.58 2.07, 243.61 2.65 C248.63 3.24, 253.62 3.92, 258.53 4.7 C263.44 5.47, 268.31 6.35, 273.08 7.31 C277.85 8.27, 282.56 9.32, 287.16 10.46 C291.77 11.6, 296.29 12.83, 300.69 14.15 C305.1 15.46, 309.41 16.86, 313.59 18.33 C317.77 19.81, 321.84 21.37, 325.77 23 C329.69 24.63, 333.5 26.34, 337.15 28.12 C340.81 29.89, 344.33 31.74, 347.68 33.65 C351.03 35.56, 354.24 37.54, 357.28 39.57 C360.32 41.6, 363.2 43.7, 365.9 45.84 C368.6 47.98, 371.13 50.18, 373.47 52.42 C375.82 54.65, 377.99 56.94, 379.97 59.26 C381.94 61.58, 383.74 63.95, 385.33 66.33 C386.93 68.72, 388.34 71.15, 389.54 73.59 C390.75 76.03, 391.76 78.5, 392.57 80.98 C393.38 83.46, 393.99 85.96, 394.39 88.47 C394.8 90.97, 395 93.49, 395 96" stroke="#000000" stroke-width="4" fill="none"></path></g><g transform="translate(1294.8517818094097 290.4177490060913) rotate(0 134.0419921875 20.700000000000003)"><text x="134.0419921875" y="0" font-family="Helvetica, Segoe UI Emoji" font-size="36px" fill="#000000" text-anchor="middle" style="white-space: pre;" direction="ltr" dominant-baseline="text-before-edge">Withdraw Money</text></g><g stroke-linecap="round" transform="translate(2486.214029947919 125.49999999999994) rotate(0 97 89.5)"><path d="M32 0 M32 0 C83.66 0, 135.32 0, 162 0 M32 0 C61.66 0, 91.31 0, 162 0 M162 0 C183.33 0, 194 10.67, 194 32 M162 0 C183.33 0, 194 10.67, 194 32 M194 32 C194 77.7, 194 123.4, 194 147 M194 32 C194 63.79, 194 95.59, 194 147 M194 147 C194 168.33, 183.33 179, 162 179 M194 147 C194 168.33, 183.33 179, 162 179 M162 179 C111.6 179, 61.2 179, 32 179 M162 179 C118.91 179, 75.83 179, 32 179 M32 179 C10.67 179, 0 168.33, 0 147 M32 179 C10.67 179, 0 168.33, 0 147 M0 147 C0 101.53, 0 56.06, 0 32 M0 147 C0 119.2, 0 91.41, 0 32 M0 32 C0 10.67, 10.67 0, 32 0 M0 32 C0 10.67, 10.67 0, 32 0" stroke="#000000" stroke-width="4" fill="none"></path></g><g transform="translate(2565.214029947919 194.29999999999995) rotate(0 18 20.700000000000003)"><text x="18" y="0" font-family="Helvetica, Segoe UI Emoji" font-size="36px" fill="#000000" text-anchor="middle" style="white-space: pre;" direction="ltr" dominant-baseline="text-before-edge">UI</text></g><g mask="url(#mask-scuVtF1lkvNY1kaAVtVkw)" stroke-linecap="round"><g transform="translate(244.88069661458576 314.7577128866447) rotate(0 491.6486124402063 -3.807727342150514)"><path d="M0 0 C163.88 -1.27, 819.41 -6.35, 983.3 -7.62 M0 0 C163.88 -1.27, 819.41 -6.35, 983.3 -7.62" stroke="#000000" stroke-width="4" fill="none"></path></g><g transform="translate(244.88069661458576 314.7577128866447) rotate(0 491.6486124402063 -3.807727342150514)"><path d="M955.19 2.86 C961.59 0.48, 967.99 -1.91, 983.3 -7.62 M955.19 2.86 C962.86 0, 970.54 -2.86, 983.3 -7.62" stroke="#000000" stroke-width="4" fill="none"></path></g><g transform="translate(244.88069661458576 314.7577128866447) rotate(0 491.6486124402063 -3.807727342150514)"><path d="M955.03 -17.66 C961.46 -15.37, 967.9 -13.08, 983.3 -7.62 M955.03 -17.66 C962.75 -14.92, 970.47 -12.17, 983.3 -7.62" stroke="#000000" stroke-width="4" fill="none"></path></g></g><mask id="mask-scuVtF1lkvNY1kaAVtVkw"><rect x="0" y="0" fill="#fff" width="1328.1779214949984" height="422.3731675709457"></rect><rect x="578.4668090547921" y="290.24998554449417" fill="#000" width="316.125" height="41.4" opacity="1"></rect></mask><g transform="translate(578.4668090547921 290.24998554449417) rotate(0 158.0625 20.69999999999999)"><text x="158.0625" y="0" font-family="Helvetica, Segoe UI Emoji" font-size="36px" fill="#000000" text-anchor="middle" style="white-space: pre;" direction="ltr" dominant-baseline="text-before-edge">( Amount, Session )</text></g><g mask="url(#mask-Q5vRwjBagbBIo-zAcBJPt)" stroke-linecap="round"><g transform="translate(1629.0059639231176 294.97846672142174) rotate(0 423.77069967906755 -39.43140298315792)"><path d="M0 0 C141.26 -13.14, 706.28 -65.72, 847.54 -78.86 M0 0 C141.26 -13.14, 706.28 -65.72, 847.54 -78.86" stroke="#000000" stroke-width="4" fill="none"></path></g><g transform="translate(1629.0059639231176 294.97846672142174) rotate(0 423.77069967906755 -39.43140298315792)"><path d="M820.42 -66.03 C826.54 -68.93, 832.67 -71.83, 847.54 -78.86 M820.42 -66.03 C827.86 -69.55, 835.29 -73.07, 847.54 -78.86" stroke="#000000" stroke-width="4" fill="none"></path></g><g transform="translate(1629.0059639231176 294.97846672142174) rotate(0 423.77069967906755 -39.43140298315792)"><path d="M818.52 -86.47 C825.07 -84.75, 831.62 -83.03, 847.54 -78.86 M818.52 -86.47 C826.48 -84.38, 834.44 -82.3, 847.54 -78.86" stroke="#000000" stroke-width="4" fill="none"></path></g></g><mask id="mask-Q5vRwjBagbBIo-zAcBJPt"><rect x="0" y="0" fill="#fff" width="2576.5473632812527" height="473.8412726877376"></rect><rect x="1949.733694852186" y="234.84706373826384" fill="#000" width="206.0859375" height="41.4" opacity="1"></rect></mask><g transform="translate(1949.7336948521852 234.84706373826384) rotate(0 103.04296875 20.699999999999974)"><text x="103.04296875" y="0" font-family="Helvetica, Segoe UI Emoji" font-size="36px" fill="#000000" text-anchor="middle" style="white-space: pre;" direction="ltr" dominant-baseline="text-before-edge">( Response )</text></g><g transform="translate(1944.8806966145858 10) rotate(0 149.853515625 82.79999999999998)"><text x="0" y="0" font-family="Helvetica, Segoe UI Emoji" font-size="36px" fill="#000000" text-anchor="start" style="white-space: pre;" direction="ltr" dominant-baseline="text-before-edge">Response</text><text x="0" y="41.4" font-family="Helvetica, Segoe UI Emoji" font-size="36px" fill="#000000" text-anchor="start" style="white-space: pre;" direction="ltr" dominant-baseline="text-before-edge">-------------------------</text><text x="0" y="82.8" font-family="Helvetica, Segoe UI Emoji" font-size="36px" fill="#000000" text-anchor="start" style="white-space: pre;" direction="ltr" dominant-baseline="text-before-edge">success: bool</text><text x="0" y="124.19999999999999" font-family="Helvetica, Segoe UI Emoji" font-size="36px" fill="#000000" text-anchor="start" style="white-space: pre;" direction="ltr" dominant-baseline="text-before-edge">messages: string*</text></g><g transform="translate(735.027180989583 17.199999999999932) rotate(0 149.853515625 82.8)"><text x="0" y="0" font-family="Helvetica, Segoe UI Emoji" font-size="36px" fill="#000000" text-anchor="start" style="white-space: pre;" direction="ltr" dominant-baseline="text-before-edge">Session</text><text x="0" y="41.4" font-family="Helvetica, Segoe UI Emoji" font-size="36px" fill="#000000" text-anchor="start" style="white-space: pre;" direction="ltr" dominant-baseline="text-before-edge">-------------------------</text><text x="0" y="82.8" font-family="Helvetica, Segoe UI Emoji" font-size="36px" fill="#000000" text-anchor="start" style="white-space: pre;" direction="ltr" dominant-baseline="text-before-edge">userId: Guid</text><text x="0" y="124.19999999999999" font-family="Helvetica, Segoe UI Emoji" font-size="36px" fill="#000000" text-anchor="start" style="white-space: pre;" direction="ltr" dominant-baseline="text-before-edge">token: string</text></g><g stroke-linecap="round" transform="translate(163.21402994791697 390.00000000000006) rotate(0 1278.3333333333321 584.1666666666665)"><path d="M2556.67 584.17 C2556.67 590.16, 2556.46 596.16, 2556.06 602.16 C2555.66 608.15, 2555.05 614.14, 2554.24 620.13 C2553.43 626.11, 2552.42 632.1, 2551.21 638.07 C2550 644.04, 2548.59 650, 2546.98 655.95 C2545.36 661.9, 2543.55 667.85, 2541.54 673.77 C2539.53 679.7, 2537.31 685.61, 2534.9 691.51 C2532.49 697.4, 2529.88 703.28, 2527.07 709.14 C2524.26 715, 2521.26 720.84, 2518.06 726.65 C2514.86 732.47, 2511.46 738.26, 2507.87 744.03 C2504.28 749.8, 2500.49 755.54, 2496.51 761.26 C2492.53 766.97, 2488.36 772.66, 2484 778.32 C2479.64 783.97, 2475.08 789.6, 2470.34 795.19 C2465.6 800.78, 2460.67 806.34, 2455.56 811.87 C2450.44 817.39, 2445.14 822.88, 2439.65 828.33 C2434.17 833.77, 2428.5 839.18, 2422.65 844.55 C2416.8 849.92, 2410.77 855.25, 2404.56 860.53 C2398.35 865.82, 2391.96 871.06, 2385.4 876.25 C2378.84 881.44, 2372.1 886.59, 2365.19 891.69 C2358.29 896.79, 2351.2 901.84, 2343.96 906.84 C2336.71 911.84, 2329.29 916.79, 2321.71 921.68 C2314.12 926.58, 2306.37 931.42, 2298.47 936.21 C2290.56 940.99, 2282.48 945.72, 2274.26 950.39 C2266.03 955.07, 2257.64 959.68, 2249.11 964.24 C2240.57 968.79, 2231.87 973.29, 2223.03 977.72 C2214.19 982.15, 2205.2 986.52, 2196.06 990.82 C2186.93 995.13, 2177.65 999.37, 2168.22 1003.55 C2158.8 1007.72, 2149.24 1011.83, 2139.54 1015.87 C2129.84 1019.91, 2120.01 1023.88, 2110.04 1027.79 C2100.08 1031.69, 2089.97 1035.52, 2079.75 1039.28 C2069.53 1043.04, 2059.17 1046.73, 2048.7 1050.34 C2038.23 1053.96, 2027.63 1057.5, 2016.92 1060.96 C2006.21 1064.43, 1995.38 1067.82, 1984.44 1071.13 C1973.5 1074.44, 1962.45 1077.68, 1951.29 1080.84 C1940.13 1083.99, 1928.86 1087.07, 1917.5 1090.07 C1906.14 1093.07, 1894.67 1095.99, 1883.1 1098.82 C1871.54 1101.66, 1859.88 1104.42, 1848.14 1107.09 C1836.39 1109.76, 1824.55 1112.36, 1812.63 1114.86 C1800.7 1117.37, 1788.69 1119.79, 1776.61 1122.13 C1764.53 1124.47, 1752.36 1126.72, 1740.12 1128.89 C1727.88 1131.05, 1715.57 1133.13, 1703.19 1135.13 C1690.82 1137.12, 1678.37 1139.03, 1665.86 1140.84 C1653.36 1142.66, 1640.79 1144.39, 1628.17 1146.03 C1615.54 1147.67, 1602.86 1149.23, 1590.14 1150.69 C1577.41 1152.15, 1564.63 1153.53, 1551.81 1154.81 C1538.99 1156.09, 1526.13 1157.28, 1513.23 1158.39 C1500.33 1159.49, 1487.39 1160.5, 1474.42 1161.42 C1461.45 1162.34, 1448.45 1163.17, 1435.43 1163.91 C1422.4 1164.64, 1409.35 1165.29, 1396.28 1165.84 C1383.22 1166.39, 1370.13 1166.86, 1357.03 1167.23 C1343.93 1167.59, 1330.82 1167.87, 1317.7 1168.06 C1304.58 1168.24, 1291.46 1168.33, 1278.33 1168.33 C1265.21 1168.33, 1252.08 1168.24, 1238.97 1168.06 C1225.85 1167.87, 1212.74 1167.59, 1199.64 1167.23 C1186.54 1166.86, 1173.45 1166.39, 1160.38 1165.84 C1147.32 1165.29, 1134.26 1164.64, 1121.24 1163.91 C1108.22 1163.17, 1095.21 1162.34, 1082.25 1161.42 C1069.28 1160.5, 1056.34 1159.49, 1043.44 1158.39 C1030.54 1157.28, 1017.67 1156.09, 1004.86 1154.81 C992.04 1153.53, 979.26 1152.15, 966.53 1150.69 C953.8 1149.23, 941.12 1147.67, 928.5 1146.03 C915.88 1144.39, 903.31 1142.66, 890.8 1140.84 C878.3 1139.03, 865.85 1137.12, 853.47 1135.13 C841.1 1133.13, 828.78 1131.05, 816.55 1128.89 C804.31 1126.72, 792.14 1124.47, 780.06 1122.13 C767.97 1119.79, 755.96 1117.37, 744.04 1114.86 C732.12 1112.36, 720.28 1109.76, 708.53 1107.09 C696.78 1104.42, 685.12 1101.66, 673.56 1098.82 C662 1095.99, 650.53 1093.07, 639.17 1090.07 C627.8 1087.07, 616.53 1083.99, 605.38 1080.84 C594.22 1077.68, 583.17 1074.44, 572.23 1071.13 C561.29 1067.82, 550.46 1064.43, 539.75 1060.96 C529.04 1057.5, 518.44 1053.96, 507.97 1050.34 C497.49 1046.73, 487.14 1043.04, 476.92 1039.28 C466.69 1035.52, 456.59 1031.69, 446.63 1027.79 C436.66 1023.88, 426.82 1019.91, 417.13 1015.87 C407.43 1011.83, 397.86 1007.72, 388.44 1003.55 C379.02 999.37, 369.74 995.13, 360.6 990.82 C351.47 986.52, 342.47 982.15, 333.63 977.72 C324.79 973.29, 316.1 968.79, 307.56 964.24 C299.02 959.68, 290.64 955.07, 282.41 950.39 C274.18 945.72, 266.11 940.99, 258.2 936.21 C250.29 931.42, 242.54 926.58, 234.96 921.68 C227.38 916.79, 219.96 911.84, 212.71 906.84 C205.46 901.84, 198.38 896.79, 191.47 891.69 C184.56 886.59, 177.83 881.44, 171.26 876.25 C164.7 871.06, 158.31 865.82, 152.11 860.53 C145.9 855.25, 139.87 849.92, 134.02 844.55 C128.17 839.18, 122.5 833.77, 117.01 828.33 C111.53 822.88, 106.22 817.39, 101.11 811.87 C95.99 806.34, 91.06 800.78, 86.32 795.19 C81.58 789.6, 77.03 783.97, 72.67 778.32 C68.31 772.66, 64.13 766.97, 60.16 761.26 C56.18 755.54, 52.39 749.8, 48.8 744.03 C45.21 738.26, 41.81 732.47, 38.61 726.65 C35.41 720.84, 32.4 715, 29.6 709.14 C26.79 703.28, 24.18 697.4, 21.77 691.51 C19.35 685.61, 17.14 679.7, 15.13 673.77 C13.12 667.85, 11.3 661.9, 9.69 655.95 C8.08 650, 6.66 644.04, 5.45 638.07 C4.24 632.1, 3.23 626.11, 2.42 620.13 C1.62 614.14, 1.01 608.15, 0.61 602.16 C0.2 596.16, 0 590.16, 0 584.17 C0 578.17, 0.2 572.17, 0.61 566.18 C1.01 560.18, 1.62 554.19, 2.42 548.2 C3.23 542.22, 4.24 536.24, 5.45 530.27 C6.66 524.3, 8.08 518.33, 9.69 512.38 C11.3 506.43, 13.12 500.49, 15.13 494.56 C17.14 488.63, 19.35 482.72, 21.77 476.83 C24.18 470.93, 26.79 465.05, 29.6 459.19 C32.4 453.34, 35.41 447.5, 38.61 441.68 C41.81 435.87, 45.21 430.07, 48.8 424.3 C52.39 418.53, 56.18 412.79, 60.16 407.07 C64.13 401.36, 68.31 395.67, 72.67 390.02 C77.03 384.36, 81.58 378.73, 86.32 373.14 C91.06 367.55, 95.99 361.99, 101.11 356.47 C106.22 350.94, 111.53 345.46, 117.01 340.01 C122.5 334.56, 128.17 329.15, 134.02 323.78 C139.87 318.41, 145.9 313.08, 152.11 307.8 C158.31 302.52, 164.7 297.28, 171.26 292.08 C177.83 286.89, 184.56 281.74, 191.47 276.64 C198.38 271.54, 205.46 266.49, 212.71 261.49 C219.96 256.49, 227.38 251.54, 234.96 246.65 C242.54 241.76, 250.29 236.91, 258.2 232.13 C266.11 227.34, 274.18 222.61, 282.41 217.94 C290.64 213.27, 299.02 208.65, 307.56 204.1 C316.1 199.54, 324.79 195.05, 333.63 190.62 C342.47 186.18, 351.47 181.81, 360.6 177.51 C369.74 173.2, 379.02 168.96, 388.44 164.79 C397.86 160.61, 407.43 156.5, 417.13 152.46 C426.82 148.42, 436.66 144.45, 446.63 140.55 C456.59 136.65, 466.69 132.81, 476.92 129.05 C487.14 125.29, 497.49 121.61, 507.97 117.99 C518.44 114.38, 529.04 110.84, 539.75 107.37 C550.46 103.91, 561.29 100.52, 572.23 97.2 C583.17 93.89, 594.22 90.65, 605.38 87.5 C616.53 84.34, 627.8 81.26, 639.17 78.26 C650.53 75.27, 662 72.35, 673.56 69.51 C685.12 66.67, 696.78 63.91, 708.53 61.24 C720.28 58.57, 732.12 55.98, 744.04 53.47 C755.96 50.97, 767.97 48.54, 780.06 46.2 C792.14 43.87, 804.31 41.61, 816.55 39.45 C828.78 37.28, 841.1 35.2, 853.47 33.21 C865.85 31.21, 878.3 29.31, 890.8 27.49 C903.31 25.67, 915.88 23.94, 928.5 22.3 C941.12 20.66, 953.8 19.11, 966.53 17.64 C979.26 16.18, 992.04 14.81, 1004.86 13.52 C1017.67 12.24, 1030.54 11.05, 1043.44 9.95 C1056.34 8.84, 1069.28 7.83, 1082.25 6.91 C1095.21 5.99, 1108.22 5.16, 1121.24 4.43 C1134.26 3.69, 1147.32 3.05, 1160.38 2.49 C1173.45 1.94, 1186.54 1.48, 1199.64 1.11 C1212.74 0.74, 1225.85 0.46, 1238.97 0.28 C1252.08 0.09, 1265.21 0, 1278.33 0 C1291.46 0, 1304.58 0.09, 1317.7 0.28 C1330.82 0.46, 1343.93 0.74, 1357.03 1.11 C1370.13 1.48, 1383.22 1.94, 1396.28 2.49 C1409.35 3.05, 1422.4 3.69, 1435.43 4.43 C1448.45 5.16, 1461.45 5.99, 1474.42 6.91 C1487.39 7.83, 1500.33 8.84, 1513.23 9.95 C1526.13 11.05, 1538.99 12.24, 1551.81 13.52 C1564.63 14.81, 1577.41 16.18, 1590.14 17.64 C1602.86 19.11, 1615.54 20.66, 1628.17 22.3 C1640.79 23.94, 1653.36 25.67, 1665.86 27.49 C1678.37 29.31, 1690.82 31.21, 1703.19 33.21 C1715.57 35.2, 1727.88 37.28, 1740.12 39.45 C1752.36 41.61, 1764.53 43.87, 1776.61 46.2 C1788.69 48.54, 1800.7 50.97, 1812.63 53.47 C1824.55 55.98, 1836.39 58.57, 1848.14 61.24 C1859.88 63.91, 1871.54 66.67, 1883.1 69.51 C1894.67 72.35, 1906.14 75.27, 1917.5 78.26 C1928.86 81.26, 1940.13 84.34, 1951.29 87.5 C1962.45 90.65, 1973.5 93.89, 1984.44 97.2 C1995.38 100.52, 2006.21 103.91, 2016.92 107.37 C2027.63 110.84, 2038.23 114.38, 2048.7 117.99 C2059.17 121.61, 2069.53 125.29, 2079.75 129.05 C2089.97 132.81, 2100.08 136.65, 2110.04 140.55 C2120.01 144.45, 2129.84 148.42, 2139.54 152.46 C2149.24 156.5, 2158.8 160.61, 2168.22 164.79 C2177.65 168.96, 2186.93 173.2, 2196.06 177.51 C2205.2 181.81, 2214.19 186.18, 2223.03 190.62 C2231.87 195.05, 2240.57 199.54, 2249.11 204.1 C2257.64 208.65, 2266.03 213.27, 2274.26 217.94 C2282.48 222.61, 2290.56 227.34, 2298.47 232.13 C2306.37 236.91, 2314.12 241.76, 2321.71 246.65 C2329.29 251.54, 2336.71 256.49, 2343.96 261.49 C2351.2 266.49, 2358.29 271.54, 2365.19 276.64 C2372.1 281.74, 2378.84 286.89, 2385.4 292.08 C2391.96 297.28, 2398.35 302.52, 2404.56 307.8 C2410.77 313.08, 2416.8 318.41, 2422.65 323.78 C2428.5 329.15, 2434.17 334.56, 2439.65 340.01 C2445.14 345.46, 2450.44 350.94, 2455.56 356.47 C2460.67 361.99, 2465.6 367.55, 2470.34 373.14 C2475.08 378.73, 2479.64 384.36, 2484 390.02 C2488.36 395.67, 2492.53 401.36, 2496.51 407.07 C2500.49 412.79, 2504.28 418.53, 2507.87 424.3 C2511.46 430.07, 2514.86 435.87, 2518.06 441.68 C2521.26 447.5, 2524.26 453.34, 2527.07 459.19 C2529.88 465.05, 2532.49 470.93, 2534.9 476.83 C2537.31 482.72, 2539.53 488.63, 2541.54 494.56 C2543.55 500.49, 2545.36 506.43, 2546.98 512.38 C2548.59 518.33, 2550 524.3, 2551.21 530.27 C2552.42 536.24, 2553.43 542.22, 2554.24 548.2 C2555.05 554.19, 2555.66 560.18, 2556.06 566.18 C2556.46 572.17, 2556.57 581.17, 2556.67 584.17 C2556.77 587.16, 2556.77 581.17, 2556.67 584.17" stroke="#000000" stroke-width="4" fill="none"></path></g><g mask="url(#mask-nc8fAB602EHW4ItGa8k0_)" stroke-linecap="round"><g transform="translate(10 639.9539512316006) rotate(0 206.61988580123443 16.810818540705995)"><path d="M0 0 C68.87 5.6, 344.37 28.02, 413.24 33.62 M0 0 C68.87 5.6, 344.37 28.02, 413.24 33.62" stroke="#000000" stroke-width="4" fill="none"></path></g><g transform="translate(10 639.9539512316006) rotate(0 206.61988580123443 16.810818540705995)"><path d="M384.31 41.56 C395.39 38.52, 406.47 35.48, 413.24 33.62 M384.31 41.56 C392.08 39.43, 399.85 37.3, 413.24 33.62" stroke="#000000" stroke-width="4" fill="none"></path></g><g transform="translate(10 639.9539512316006) rotate(0 206.61988580123443 16.810818540705995)"><path d="M385.97 21.11 C396.42 25.9, 406.86 30.69, 413.24 33.62 M385.97 21.11 C393.3 24.47, 400.62 27.83, 413.24 33.62" stroke="#000000" stroke-width="4" fill="none"></path></g></g><mask id="mask-nc8fAB602EHW4ItGa8k0_"><rect x="0" y="0" fill="#fff" width="523.2397716024689" height="773.5755883130126"></rect><rect x="58.55738580123489" y="636.0647697723066" fill="#000" width="316.125" height="41.4" opacity="1"></rect></mask><g transform="translate(58.55738580123489 636.0647697723066) rotate(0 158.06249999999955 20.699999999999974)"><text x="158.0625" y="0" font-family="Helvetica, Segoe UI Emoji" font-size="36px" fill="#000000" text-anchor="middle" style="white-space: pre;" direction="ltr" dominant-baseline="text-before-edge">( Amount, Session )</text></g><g stroke-linecap="round" transform="translate(423.21402994791606 653.3333333333333) rotate(0 20.833333333333485 19.166666666666686)"><path d="M9.58 0 M9.58 0 C17.87 0, 26.15 0, 32.08 0 M9.58 0 C14.49 0, 19.39 0, 32.08 0 M32.08 0 C38.47 0, 41.67 3.19, 41.67 9.58 M32.08 0 C38.47 0, 41.67 3.19, 41.67 9.58 M41.67 9.58 C41.67 13.66, 41.67 17.73, 41.67 28.75 M41.67 9.58 C41.67 16.09, 41.67 22.6, 41.67 28.75 M41.67 28.75 C41.67 35.14, 38.47 38.33, 32.08 38.33 M41.67 28.75 C41.67 35.14, 38.47 38.33, 32.08 38.33 M32.08 38.33 C26.23 38.33, 20.38 38.33, 9.58 38.33 M32.08 38.33 C27.2 38.33, 22.32 38.33, 9.58 38.33 M9.58 38.33 C3.19 38.33, 0 35.14, 0 28.75 M9.58 38.33 C3.19 38.33, 0 35.14, 0 28.75 M0 28.75 C0 23.17, 0 17.58, 0 9.58 M0 28.75 C0 22.69, 0 16.63, 0 9.58 M0 9.58 C0 3.19, 3.19 0, 9.58 0 M0 9.58 C0 3.19, 3.19 0, 9.58 0" stroke="#000000" stroke-width="4" fill="none"></path></g><g mask="url(#mask-ZF1lz3jr0QFtvQ_czcbJQ)" stroke-linecap="round"><g transform="translate(443.21402994791606 693.3333333333333) rotate(0 11.666666666666515 53.33333333333337)"><path d="M0 0 C3.89 17.78, 19.44 88.89, 23.33 106.67 M0 0 C3.89 17.78, 19.44 88.89, 23.33 106.67" stroke="#000000" stroke-width="4" fill="none"></path></g><g transform="translate(443.21402994791606 693.3333333333333) rotate(0 11.666666666666515 53.33333333333337)"><path d="M7.29 81.32 C12.32 89.27, 17.35 97.22, 23.33 106.67 M7.29 81.32 C12.55 89.64, 17.82 97.96, 23.33 106.67" stroke="#000000" stroke-width="4" fill="none"></path></g><g transform="translate(443.21402994791606 693.3333333333333) rotate(0 11.666666666666515 53.33333333333337)"><path d="M27.33 76.93 C26.08 86.26, 24.82 95.59, 23.33 106.67 M27.33 76.93 C26.02 86.7, 24.71 96.46, 23.33 106.67" stroke="#000000" stroke-width="4" fill="none"></path></g></g><mask id="mask-ZF1lz3jr0QFtvQ_czcbJQ"><rect x="0" y="0" fill="#fff" width="566.5473632812491" height="900"></rect><rect x="390.84358723958303" y="725.9666666666667" fill="#000" width="128.07421875" height="41.4" opacity="1"></rect></mask><g transform="translate(390.84358723958303 725.9666666666665) rotate(0 64.03710937499955 20.69999999999999)"><text x="64.037109375" y="0" font-family="Helvetica, Segoe UI Emoji" font-size="36px" fill="#000000" text-anchor="middle" style="white-space: pre;" direction="ltr" dominant-baseline="text-before-edge">Session</text></g><g stroke-linecap="round" transform="translate(272.38069661458303 800.6666666666665) rotate(0 197.5 96)"><path d="M395 96 C395 98.51, 394.8 101.03, 394.39 103.53 C393.99 106.04, 393.38 108.54, 392.57 111.02 C391.76 113.5, 390.75 115.97, 389.54 118.41 C388.34 120.85, 386.93 123.28, 385.33 125.67 C383.74 128.05, 381.94 130.42, 379.97 132.74 C377.99 135.06, 375.82 137.35, 373.47 139.58 C371.13 141.82, 368.6 144.02, 365.9 146.16 C363.2 148.3, 360.32 150.4, 357.28 152.43 C354.24 154.46, 351.03 156.44, 347.68 158.35 C344.33 160.26, 340.81 162.11, 337.15 163.88 C333.5 165.66, 329.69 167.37, 325.77 169 C321.84 170.63, 317.77 172.19, 313.59 173.67 C309.41 175.14, 305.1 176.54, 300.69 177.85 C296.29 179.17, 291.77 180.4, 287.16 181.54 C282.56 182.68, 277.85 183.73, 273.08 184.69 C268.31 185.65, 263.44 186.53, 258.53 187.3 C253.62 188.08, 248.63 188.76, 243.61 189.35 C238.58 189.93, 233.5 190.43, 228.4 190.82 C223.29 191.21, 218.14 191.51, 213 191.7 C207.85 191.9, 202.67 192, 197.5 192 C192.33 192, 187.15 191.9, 182 191.7 C176.86 191.51, 171.71 191.21, 166.6 190.82 C161.5 190.43, 156.42 189.93, 151.39 189.35 C146.37 188.76, 141.38 188.08, 136.47 187.3 C131.56 186.53, 126.69 185.65, 121.92 184.69 C117.15 183.73, 112.44 182.68, 107.84 181.54 C103.23 180.4, 98.71 179.17, 94.31 177.85 C89.9 176.54, 85.59 175.14, 81.41 173.67 C77.23 172.19, 73.16 170.63, 69.23 169 C65.31 167.37, 61.5 165.66, 57.85 163.88 C54.19 162.11, 50.67 160.26, 47.32 158.35 C43.97 156.44, 40.76 154.46, 37.72 152.43 C34.68 150.4, 31.8 148.3, 29.1 146.16 C26.4 144.02, 23.87 141.82, 21.53 139.58 C19.18 137.35, 17.01 135.06, 15.03 132.74 C13.06 130.42, 11.26 128.05, 9.67 125.67 C8.07 123.28, 6.66 120.85, 5.46 118.41 C4.25 115.97, 3.24 113.5, 2.43 111.02 C1.62 108.54, 1.01 106.04, 0.61 103.53 C0.2 101.03, 0 98.51, 0 96 C0 93.49, 0.2 90.97, 0.61 88.47 C1.01 85.96, 1.62 83.46, 2.43 80.98 C3.24 78.5, 4.25 76.03, 5.46 73.59 C6.66 71.15, 8.07 68.72, 9.67 66.33 C11.26 63.95, 13.06 61.58, 15.03 59.26 C17.01 56.94, 19.18 54.65, 21.53 52.42 C23.87 50.18, 26.4 47.98, 29.1 45.84 C31.8 43.7, 34.68 41.6, 37.72 39.57 C40.76 37.54, 43.97 35.56, 47.32 33.65 C50.67 31.74, 54.19 29.89, 57.85 28.12 C61.5 26.34, 65.31 24.63, 69.23 23 C73.16 21.37, 77.23 19.81, 81.41 18.33 C85.59 16.86, 89.9 15.46, 94.31 14.15 C98.71 12.83, 103.23 11.6, 107.84 10.46 C112.44 9.32, 117.15 8.27, 121.92 7.31 C126.69 6.35, 131.56 5.47, 136.47 4.7 C141.38 3.92, 146.37 3.24, 151.39 2.65 C156.42 2.07, 161.5 1.57, 166.6 1.18 C171.71 0.79, 176.86 0.49, 182 0.3 C187.15 0.1, 192.33 0, 197.5 0 C202.67 0, 207.85 0.1, 213 0.3 C218.14 0.49, 223.29 0.79, 228.4 1.18 C233.5 1.57, 238.58 2.07, 243.61 2.65 C248.63 3.24, 253.62 3.92, 258.53 4.7 C263.44 5.47, 268.31 6.35, 273.08 7.31 C277.85 8.27, 282.56 9.32, 287.16 10.46 C291.77 11.6, 296.29 12.83, 300.69 14.15 C305.1 15.46, 309.41 16.86, 313.59 18.33 C317.77 19.81, 321.84 21.37, 325.77 23 C329.69 24.63, 333.5 26.34, 337.15 28.12 C340.81 29.89, 344.33 31.74, 347.68 33.65 C351.03 35.56, 354.24 37.54, 357.28 39.57 C360.32 41.6, 363.2 43.7, 365.9 45.84 C368.6 47.98, 371.13 50.18, 373.47 52.42 C375.82 54.65, 377.99 56.94, 379.97 59.26 C381.94 61.58, 383.74 63.95, 385.33 66.33 C386.93 68.72, 388.34 71.15, 389.54 73.59 C390.75 76.03, 391.76 78.5, 392.57 80.98 C393.38 83.46, 393.99 85.96, 394.39 88.47 C394.8 90.97, 395 93.49, 395 96" stroke="#000000" stroke-width="4" fill="none"></path></g><g transform="translate(342.99761514273996 876.084415672758) rotate(0 126.7294921875 20.69999999999999)"><text x="126.7294921875" y="0" font-family="Helvetica, Segoe UI Emoji" font-size="36px" fill="#000000" text-anchor="middle" style="white-space: pre;" direction="ltr" dominant-baseline="text-before-edge">Is Session Valid</text></g><g mask="url(#mask-hg1UIxkXvpYvReyrls1G4)" stroke-linecap="round"><g transform="translate(656.5473632812491 865.4166666666665) rotate(0 202.26464887452403 -5.529765681926051)"><path d="M0 0 C67.42 -1.84, 337.11 -9.22, 404.53 -11.06 M0 0 C67.42 -1.84, 337.11 -9.22, 404.53 -11.06" stroke="#000000" stroke-width="4" fill="none"></path></g><g transform="translate(656.5473632812491 865.4166666666665) rotate(0 202.26464887452403 -5.529765681926051)"><path d="M376.63 -0.03 C384.17 -3.01, 391.71 -5.99, 404.53 -11.06 M376.63 -0.03 C386.57 -3.96, 396.5 -7.89, 404.53 -11.06" stroke="#000000" stroke-width="4" fill="none"></path></g><g transform="translate(656.5473632812491 865.4166666666665) rotate(0 202.26464887452403 -5.529765681926051)"><path d="M376.07 -20.55 C383.76 -17.98, 391.45 -15.42, 404.53 -11.06 M376.07 -20.55 C386.2 -17.17, 396.34 -13.79, 404.53 -11.06" stroke="#000000" stroke-width="4" fill="none"></path></g></g><mask id="mask-hg1UIxkXvpYvReyrls1G4"><rect x="0" y="0" fill="#fff" width="1161.0766610302971" height="976.4761980305186"></rect><rect x="705.0825199682731" y="839.1869009847405" fill="#000" width="307.458984375" height="41.4" opacity="1"></rect></mask><g transform="translate(705.0825199682731 839.1869009847403) rotate(0 153.7294921875 20.69999999999999)"><text x="153.7294921875" y="0" font-family="Helvetica, Segoe UI Emoji" font-size="36px" fill="#000000" text-anchor="middle" style="white-space: pre;" direction="ltr" dominant-baseline="text-before-edge">Valid( userId: Guid)</text></g><g mask="url(#mask-ucski5nXgn3wp092sps1T)" stroke-linecap="round"><g transform="translate(546.5396792320107 986.4591852761221) rotate(0 647.2552790163613 167.9703648401303)"><path d="M0 0 C120.83 40.81, 509.26 188.88, 725.01 244.87 C940.76 300.86, 1199.59 320.76, 1294.51 335.94 M0 0 C120.83 40.81, 509.26 188.88, 725.01 244.87 C940.76 300.86, 1199.59 320.76, 1294.51 335.94" stroke="#000000" stroke-width="4" fill="none"></path></g><g transform="translate(546.5396792320107 986.4591852761221) rotate(0 647.2552790163613 167.9703648401303)"><path d="M1265.25 342.56 C1272.08 341.02, 1278.92 339.47, 1294.51 335.94 M1265.25 342.56 C1276 340.13, 1286.76 337.7, 1294.51 335.94" stroke="#000000" stroke-width="4" fill="none"></path></g><g transform="translate(546.5396792320107 986.4591852761221) rotate(0 647.2552790163613 167.9703648401303)"><path d="M1267.84 322.21 C1274.07 325.41, 1280.3 328.62, 1294.51 335.94 M1267.84 322.21 C1277.64 327.25, 1287.44 332.3, 1294.51 335.94" stroke="#000000" stroke-width="4" fill="none"></path></g></g><mask id="mask-ucski5nXgn3wp092sps1T"><rect x="0" y="0" fill="#fff" width="1941.0502372647334" height="1422.3999149563826"></rect><rect x="1116.473144531251" y="1210.633333333333" fill="#000" width="310.1484375" height="41.4" opacity="1"></rect></mask><g transform="translate(1116.473144531251 1210.633333333333) rotate(0 77.32181371712113 -56.20378321708063)"><text x="155.07421875" y="0" font-family="Helvetica, Segoe UI Emoji" font-size="36px" fill="#000000" text-anchor="middle" style="white-space: pre;" direction="ltr" dominant-baseline="text-before-edge">Invalid( Response )</text></g><g stroke-linecap="round"><g transform="translate(1061.54736328125 643) rotate(0 -0.8333333333334849 121.66666666666663)"><path d="M0 0 C-0.28 40.56, -1.39 202.78, -1.67 243.33 M0 0 C-0.28 40.56, -1.39 202.78, -1.67 243.33" stroke="#000000" stroke-width="4" fill="none"></path></g></g><mask></mask><g mask="url(#mask-Sb69ez25Pg21FsdDIadQJ)" stroke-linecap="round"><g transform="translate(464.8806966145821 676.6666666666665) rotate(0 294.3333333333335 5.999999999999886)"><path d="M0 0 C98.11 2, 490.56 10, 588.67 12 M0 0 C98.11 2, 490.56 10, 588.67 12" stroke="#000000" stroke-width="4" fill="none"></path></g><g transform="translate(464.8806966145821 676.6666666666665) rotate(0 294.3333333333335 5.999999999999886)"><path d="M560.27 21.68 C569.9 18.4, 579.52 15.12, 588.67 12 M560.27 21.68 C570.51 18.19, 580.75 14.7, 588.67 12" stroke="#000000" stroke-width="4" fill="none"></path></g><g transform="translate(464.8806966145821 676.6666666666665) rotate(0 294.3333333333335 5.999999999999886)"><path d="M560.69 1.17 C570.17 4.84, 579.66 8.51, 588.67 12 M560.69 1.17 C570.78 5.07, 580.87 8.98, 588.67 12" stroke="#000000" stroke-width="4" fill="none"></path></g></g><mask id="mask-Sb69ez25Pg21FsdDIadQJ"><rect x="0" y="0" fill="#fff" width="1153.547363281249" height="788.6666666666663"></rect><rect x="675.1905924479152" y="661.9666666666664" fill="#000" width="168.046875" height="41.4" opacity="1"></rect></mask><g transform="translate(675.1905924479152 661.9666666666665) rotate(0 84.02343750000045 20.69999999999999)"><text x="84.0234375" y="0" font-family="Helvetica, Segoe UI Emoji" font-size="36px" fill="#000000" text-anchor="middle" style="white-space: pre;" direction="ltr" dominant-baseline="text-before-edge">( Amount )</text></g><g stroke-linecap="round" transform="translate(1277.7140299479179 525.75) rotate(0 177 90)"><path d="M354 90 C354 92.48, 353.8 94.96, 353.4 97.43 C352.99 99.9, 352.39 102.37, 351.59 104.81 C350.78 107.26, 349.78 109.69, 348.58 112.09 C347.39 114.5, 345.99 116.88, 344.41 119.22 C342.83 121.57, 341.05 123.88, 339.09 126.15 C337.13 128.42, 334.99 130.66, 332.67 132.84 C330.35 135.01, 327.84 137.15, 325.18 139.23 C322.51 141.3, 319.67 143.32, 316.68 145.28 C313.69 147.23, 310.52 149.13, 307.22 150.96 C303.92 152.78, 300.46 154.54, 296.88 156.22 C293.29 157.89, 289.56 159.5, 285.72 161.02 C281.87 162.54, 277.89 163.99, 273.81 165.34 C269.73 166.7, 265.53 167.97, 261.24 169.15 C256.96 170.33, 252.56 171.42, 248.1 172.42 C243.64 173.41, 239.08 174.32, 234.47 175.12 C229.86 175.93, 225.17 176.64, 220.45 177.25 C215.73 177.85, 210.94 178.36, 206.13 178.77 C201.33 179.18, 196.47 179.49, 191.62 179.69 C186.76 179.9, 181.87 180, 177 180 C172.13 180, 167.24 179.9, 162.38 179.69 C157.53 179.49, 152.67 179.18, 147.87 178.77 C143.06 178.36, 138.27 177.85, 133.55 177.25 C128.83 176.64, 124.14 175.93, 119.53 175.12 C114.92 174.32, 110.36 173.41, 105.9 172.42 C101.44 171.42, 97.04 170.33, 92.76 169.15 C88.47 167.97, 84.27 166.7, 80.19 165.34 C76.11 163.99, 72.13 162.54, 68.28 161.02 C64.44 159.5, 60.71 157.89, 57.12 156.22 C53.54 154.54, 50.08 152.78, 46.78 150.96 C43.48 149.13, 40.31 147.23, 37.32 145.28 C34.33 143.32, 31.49 141.3, 28.82 139.23 C26.16 137.15, 23.65 135.01, 21.33 132.84 C19.01 130.66, 16.87 128.42, 14.91 126.15 C12.95 123.88, 11.17 121.57, 9.59 119.22 C8.01 116.88, 6.61 114.5, 5.42 112.09 C4.22 109.69, 3.22 107.26, 2.41 104.81 C1.61 102.37, 1.01 99.9, 0.6 97.43 C0.2 94.96, 0 92.48, 0 90 C0 87.52, 0.2 85.04, 0.6 82.57 C1.01 80.1, 1.61 77.63, 2.41 75.19 C3.22 72.74, 4.22 70.31, 5.42 67.91 C6.61 65.5, 8.01 63.12, 9.59 60.78 C11.17 58.43, 12.95 56.12, 14.91 53.85 C16.87 51.58, 19.01 49.34, 21.33 47.16 C23.65 44.99, 26.16 42.85, 28.82 40.77 C31.49 38.7, 34.33 36.68, 37.32 34.72 C40.31 32.77, 43.48 30.87, 46.78 29.04 C50.08 27.22, 53.54 25.46, 57.12 23.78 C60.71 22.11, 64.44 20.5, 68.28 18.98 C72.13 17.46, 76.11 16.01, 80.19 14.66 C84.27 13.3, 88.47 12.03, 92.76 10.85 C97.04 9.67, 101.44 8.58, 105.9 7.58 C110.36 6.59, 114.92 5.68, 119.53 4.88 C124.14 4.07, 128.83 3.36, 133.55 2.75 C138.27 2.15, 143.06 1.64, 147.87 1.23 C152.67 0.82, 157.53 0.51, 162.38 0.31 C167.24 0.1, 172.13 0, 177 0 C181.87 0, 186.76 0.1, 191.62 0.31 C196.47 0.51, 201.33 0.82, 206.13 1.23 C210.94 1.64, 215.73 2.15, 220.45 2.75 C225.17 3.36, 229.86 4.07, 234.47 4.88 C239.08 5.68, 243.64 6.59, 248.1 7.58 C252.56 8.58, 256.96 9.67, 261.24 10.85 C265.53 12.03, 269.73 13.3, 273.81 14.66 C277.89 16.01, 281.87 17.46, 285.72 18.98 C289.56 20.5, 293.29 22.11, 296.88 23.78 C300.46 25.46, 303.92 27.22, 307.22 29.04 C310.52 30.87, 313.69 32.77, 316.68 34.72 C319.67 36.68, 322.51 38.7, 325.18 40.77 C327.84 42.85, 330.35 44.99, 332.67 47.16 C334.99 49.34, 337.13 51.58, 339.09 53.85 C341.05 56.12, 342.83 58.43, 344.41 60.78 C345.99 63.12, 347.39 65.5, 348.58 67.91 C349.78 70.31, 350.78 72.74, 351.59 75.19 C352.39 77.63, 352.99 80.1, 353.4 82.57 C353.8 85.04, 354 87.52, 354 90" stroke="#000000" stroke-width="4" fill="none"></path></g><g transform="translate(1389.5082781153988 574.2103896932107) rotate(0 65.0478515625 41.400000000000006)"><text x="65.0478515625" y="0" font-family="Helvetica, Segoe UI Emoji" font-size="36px" fill="#000000" text-anchor="middle" style="white-space: pre;" direction="ltr" dominant-baseline="text-before-edge">Check </text><text x="65.0478515625" y="41.4" font-family="Helvetica, Segoe UI Emoji" font-size="36px" fill="#000000" text-anchor="middle" style="white-space: pre;" direction="ltr" dominant-baseline="text-before-edge">Balance</text></g><g stroke-linecap="round" transform="translate(2122.380696614584 651.6666666666667) rotate(0 187.5 95.5)"><path d="M375 95.5 C375 98, 374.81 100.5, 374.42 102.99 C374.04 105.48, 373.46 107.97, 372.69 110.44 C371.92 112.91, 370.96 115.37, 369.82 117.79 C368.67 120.22, 367.34 122.64, 365.82 125.01 C364.31 127.39, 362.6 129.74, 360.73 132.05 C358.85 134.35, 356.79 136.63, 354.56 138.86 C352.34 141.08, 349.93 143.27, 347.37 145.4 C344.81 147.53, 342.07 149.61, 339.19 151.63 C336.31 153.65, 333.26 155.62, 330.08 157.52 C326.89 159.42, 323.55 161.26, 320.08 163.03 C316.62 164.79, 313 166.5, 309.27 168.12 C305.54 169.74, 301.68 171.29, 297.71 172.76 C293.74 174.23, 289.65 175.62, 285.47 176.93 C281.29 178.23, 276.99 179.46, 272.62 180.59 C268.25 181.73, 263.78 182.77, 259.25 183.73 C254.72 184.69, 250.1 185.55, 245.44 186.33 C240.78 187.1, 236.04 187.78, 231.27 188.36 C226.5 188.94, 221.67 189.43, 216.83 189.82 C211.99 190.21, 207.1 190.51, 202.21 190.71 C197.32 190.9, 192.4 191, 187.5 191 C182.6 191, 177.68 190.9, 172.79 190.71 C167.9 190.51, 163.01 190.21, 158.17 189.82 C153.33 189.43, 148.5 188.94, 143.73 188.36 C138.96 187.78, 134.22 187.1, 129.56 186.33 C124.9 185.55, 120.28 184.69, 115.75 183.73 C111.22 182.77, 106.75 181.73, 102.38 180.59 C98.01 179.46, 93.71 178.23, 89.53 176.93 C85.35 175.62, 81.26 174.23, 77.29 172.76 C73.32 171.29, 69.46 169.74, 65.73 168.12 C62 166.5, 58.38 164.79, 54.92 163.03 C51.45 161.26, 48.11 159.42, 44.92 157.52 C41.74 155.62, 38.69 153.65, 35.81 151.63 C32.93 149.61, 30.19 147.53, 27.63 145.4 C25.07 143.27, 22.66 141.08, 20.44 138.86 C18.21 136.63, 16.15 134.35, 14.27 132.05 C12.4 129.74, 10.69 127.39, 9.18 125.01 C7.66 122.64, 6.33 120.22, 5.18 117.79 C4.04 115.37, 3.08 112.91, 2.31 110.44 C1.54 107.97, 0.96 105.48, 0.58 102.99 C0.19 100.5, 0 98, 0 95.5 C0 93, 0.19 90.5, 0.58 88.01 C0.96 85.52, 1.54 83.03, 2.31 80.56 C3.08 78.09, 4.04 75.63, 5.18 73.21 C6.33 70.78, 7.66 68.36, 9.18 65.99 C10.69 63.61, 12.4 61.26, 14.27 58.95 C16.15 56.65, 18.21 54.37, 20.44 52.14 C22.66 49.92, 25.07 47.73, 27.63 45.6 C30.19 43.47, 32.93 41.39, 35.81 39.37 C38.69 37.35, 41.74 35.38, 44.92 33.48 C48.11 31.58, 51.45 29.74, 54.92 27.97 C58.38 26.21, 62 24.5, 65.73 22.88 C69.46 21.26, 73.32 19.71, 77.29 18.24 C81.26 16.77, 85.35 15.38, 89.53 14.07 C93.71 12.77, 98.01 11.54, 102.38 10.41 C106.75 9.27, 111.22 8.23, 115.75 7.27 C120.28 6.31, 124.9 5.45, 129.56 4.67 C134.22 3.9, 138.96 3.22, 143.73 2.64 C148.5 2.06, 153.33 1.57, 158.17 1.18 C163.01 0.79, 167.9 0.49, 172.79 0.29 C177.68 0.1, 182.6 0, 187.5 0 C192.4 0, 197.32 0.1, 202.21 0.29 C207.1 0.49, 211.99 0.79, 216.83 1.18 C221.67 1.57, 226.5 2.06, 231.27 2.64 C236.04 3.22, 240.78 3.9, 245.44 4.67 C250.1 5.45, 254.72 6.31, 259.25 7.27 C263.78 8.23, 268.25 9.27, 272.62 10.41 C276.99 11.54, 281.29 12.77, 285.47 14.07 C289.65 15.38, 293.74 16.77, 297.71 18.24 C301.68 19.71, 305.54 21.26, 309.27 22.88 C313 24.5, 316.62 26.21, 320.08 27.97 C323.55 29.74, 326.89 31.58, 330.08 33.48 C333.26 35.38, 336.31 37.35, 339.19 39.37 C342.07 41.39, 344.81 43.47, 347.37 45.6 C349.93 47.73, 352.34 49.92, 354.56 52.14 C356.79 54.37, 358.85 56.65, 360.73 58.95 C362.6 61.26, 364.31 63.61, 365.82 65.99 C367.34 68.36, 368.67 70.78, 369.82 73.21 C370.96 75.63, 371.92 78.09, 372.69 80.56 C373.46 83.03, 374.04 85.52, 374.42 88.01 C374.81 90.5, 375 93, 375 95.5" stroke="#000000" stroke-width="4" fill="none"></path></g><g transform="translate(2244.7503235796066 705.7379690633516) rotate(0 65.0478515625 41.400000000000006)"><text x="65.0478515625" y="0" font-family="Helvetica, Segoe UI Emoji" font-size="36px" fill="#000000" text-anchor="middle" style="white-space: pre;" direction="ltr" dominant-baseline="text-before-edge">Update </text><text x="65.0478515625" y="41.4" font-family="Helvetica, Segoe UI Emoji" font-size="36px" fill="#000000" text-anchor="middle" style="white-space: pre;" direction="ltr" dominant-baseline="text-before-edge">Balance</text></g><g mask="url(#mask-gGuSrz5cSKmJk-tC0wpqF)" stroke-linecap="round"><g transform="translate(1631.32854573861 644.28800875414) rotate(0 268.2604663284087 17.770677577981203)"><path d="M0 0 C89.42 5.92, 447.1 29.62, 536.52 35.54 M0 0 C89.42 5.92, 447.1 29.62, 536.52 35.54" stroke="#000000" stroke-width="4" fill="none"></path></g><g transform="translate(1631.32854573861 644.28800875414) rotate(0 268.2604663284087 17.770677577981203)"><path d="M507.71 43.92 C516.91 41.24, 526.11 38.57, 536.52 35.54 M507.71 43.92 C516.81 41.27, 525.91 38.63, 536.52 35.54" stroke="#000000" stroke-width="4" fill="none"></path></g><g transform="translate(1631.32854573861 644.28800875414) rotate(0 268.2604663284087 17.770677577981203)"><path d="M509.07 23.44 C517.83 27.3, 526.6 31.17, 536.52 35.54 M509.07 23.44 C517.74 27.26, 526.41 31.08, 536.52 35.54" stroke="#000000" stroke-width="4" fill="none"></path></g></g><mask id="mask-gGuSrz5cSKmJk-tC0wpqF"><rect x="0" y="0" fill="#fff" width="2267.8494783954275" height="779.8293639101024"></rect><rect x="1694.4698714420183" y="620.6586863321212" fill="#000" width="410.23828125" height="82.8" opacity="1"></rect></mask><g transform="translate(1694.4698714420192 620.6586863321211) rotate(0 205.11914062500045 41.40000000000002)"><text x="205.119140625" y="0" font-family="Helvetica, Segoe UI Emoji" font-size="36px" fill="#000000" text-anchor="middle" style="white-space: pre;" direction="ltr" dominant-baseline="text-before-edge">Enough( Amount, userId: </text><text x="205.119140625" y="41.4" font-family="Helvetica, Segoe UI Emoji" font-size="36px" fill="#000000" text-anchor="middle" style="white-space: pre;" direction="ltr" dominant-baseline="text-before-edge">Guid )</text></g><g mask="url(#mask-lWOdl16PpiTGTEqHuOUUu)" stroke-linecap="round"><g transform="translate(1509.5117908787515 708.8592411662335) rotate(0 205.63992230075291 258.9088928742424)"><path d="M0 0 C28.89 39.48, 104.82 150.59, 173.37 236.89 C241.92 323.19, 371.63 471, 411.28 517.82 M0 0 C28.89 39.48, 104.82 150.59, 173.37 236.89 C241.92 323.19, 371.63 471, 411.28 517.82" stroke="#000000" stroke-width="4" fill="none"></path></g><g transform="translate(1509.5117908787515 708.8592411662335) rotate(0 205.63992230075291 258.9088928742424)"><path d="M385.12 503.14 C392.93 507.52, 400.74 511.9, 411.28 517.82 M385.12 503.14 C391.65 506.8, 398.18 510.46, 411.28 517.82" stroke="#000000" stroke-width="4" fill="none"></path></g><g transform="translate(1509.5117908787515 708.8592411662335) rotate(0 205.63992230075291 258.9088928742424)"><path d="M400.68 489.75 C403.84 498.13, 407.01 506.51, 411.28 517.82 M400.68 489.75 C403.32 496.76, 405.97 503.76, 411.28 517.82" stroke="#000000" stroke-width="4" fill="none"></path></g></g><mask id="mask-lWOdl16PpiTGTEqHuOUUu"><rect x="0" y="0" fill="#fff" width="2020.7916354802574" height="1326.6770269147182"></rect><rect x="1576.8142903645858" y="904.3500000000001" fill="#000" width="212.1328125" height="82.8" opacity="1"></rect></mask><g transform="translate(1576.8142903645867 904.35) rotate(0 138.33742281491868 63.41813404047582)"><text x="106.06640625" y="0" font-family="Helvetica, Segoe UI Emoji" font-size="36px" fill="#000000" text-anchor="middle" style="white-space: pre;" direction="ltr" dominant-baseline="text-before-edge">NotEnough(  </text><text x="106.06640625" y="41.4" font-family="Helvetica, Segoe UI Emoji" font-size="36px" fill="#000000" text-anchor="middle" style="white-space: pre;" direction="ltr" dominant-baseline="text-before-edge">Response )</text></g><g mask="url(#mask-OcuRiYoWEXZyUAG_glxt1)" stroke-linecap="round"><g transform="translate(2169.137648865796 803.7043831102774) rotate(0 -66.02279906892045 200.7609770534213)"><path d="M0 0 C-9.87 32.12, -37.23 125.77, -59.24 192.69 C-81.25 259.61, -119.91 366.72, -132.05 401.52 M0 0 C-9.87 32.12, -37.23 125.77, -59.24 192.69 C-81.25 259.61, -119.91 366.72, -132.05 401.52" stroke="#000000" stroke-width="4" fill="none"></path></g><g transform="translate(2169.137648865796 803.7043831102774) rotate(0 -66.02279906892045 200.7609770534213)"><path d="M-132.31 371.52 C-132.22 382.31, -132.12 393.1, -132.05 401.52 M-132.31 371.52 C-132.22 382, -132.13 392.49, -132.05 401.52" stroke="#000000" stroke-width="4" fill="none"></path></g><g transform="translate(2169.137648865796 803.7043831102774) rotate(0 -66.02279906892045 200.7609770534213)"><path d="M-112.97 378.37 C-119.83 386.7, -126.69 395.02, -132.05 401.52 M-112.97 378.37 C-119.63 386.46, -126.3 394.55, -132.05 401.52" stroke="#000000" stroke-width="4" fill="none"></path></g></g><mask id="mask-OcuRiYoWEXZyUAG_glxt1"><rect x="0" y="0" fill="#fff" width="2401.183247003637" height="1305.22633721712"></rect><rect x="2006.8540836824595" y="975.6970070649292" fill="#000" width="206.0859375" height="41.4" opacity="1"></rect></mask><g transform="translate(2006.8540836824604 975.6970070649293) rotate(0 96.26076611441613 28.768353098769524)"><text x="103.04296875" y="0" font-family="Helvetica, Segoe UI Emoji" font-size="36px" fill="#000000" text-anchor="middle" style="white-space: pre;" direction="ltr" dominant-baseline="text-before-edge">( Response )</text></g><g stroke-linecap="round" transform="translate(1850.3806966145848 1209.4166666666656) rotate(0 197.5 96)"><path d="M395 96 C395 98.51, 394.8 101.03, 394.39 103.53 C393.99 106.04, 393.38 108.54, 392.57 111.02 C391.76 113.5, 390.75 115.97, 389.54 118.41 C388.34 120.85, 386.93 123.28, 385.33 125.67 C383.74 128.05, 381.94 130.42, 379.97 132.74 C377.99 135.06, 375.82 137.35, 373.47 139.58 C371.13 141.82, 368.6 144.02, 365.9 146.16 C363.2 148.3, 360.32 150.4, 357.28 152.43 C354.24 154.46, 351.03 156.44, 347.68 158.35 C344.33 160.26, 340.81 162.11, 337.15 163.88 C333.5 165.66, 329.69 167.37, 325.77 169 C321.84 170.63, 317.77 172.19, 313.59 173.67 C309.41 175.14, 305.1 176.54, 300.69 177.85 C296.29 179.17, 291.77 180.4, 287.16 181.54 C282.56 182.68, 277.85 183.73, 273.08 184.69 C268.31 185.65, 263.44 186.53, 258.53 187.3 C253.62 188.08, 248.63 188.76, 243.61 189.35 C238.58 189.93, 233.5 190.43, 228.4 190.82 C223.29 191.21, 218.14 191.51, 213 191.7 C207.85 191.9, 202.67 192, 197.5 192 C192.33 192, 187.15 191.9, 182 191.7 C176.86 191.51, 171.71 191.21, 166.6 190.82 C161.5 190.43, 156.42 189.93, 151.39 189.35 C146.37 188.76, 141.38 188.08, 136.47 187.3 C131.56 186.53, 126.69 185.65, 121.92 184.69 C117.15 183.73, 112.44 182.68, 107.84 181.54 C103.23 180.4, 98.71 179.17, 94.31 177.85 C89.9 176.54, 85.59 175.14, 81.41 173.67 C77.23 172.19, 73.16 170.63, 69.23 169 C65.31 167.37, 61.5 165.66, 57.85 163.88 C54.19 162.11, 50.67 160.26, 47.32 158.35 C43.97 156.44, 40.76 154.46, 37.72 152.43 C34.68 150.4, 31.8 148.3, 29.1 146.16 C26.4 144.02, 23.87 141.82, 21.53 139.58 C19.18 137.35, 17.01 135.06, 15.03 132.74 C13.06 130.42, 11.26 128.05, 9.67 125.67 C8.07 123.28, 6.66 120.85, 5.46 118.41 C4.25 115.97, 3.24 113.5, 2.43 111.02 C1.62 108.54, 1.01 106.04, 0.61 103.53 C0.2 101.03, 0 98.51, 0 96 C0 93.49, 0.2 90.97, 0.61 88.47 C1.01 85.96, 1.62 83.46, 2.43 80.98 C3.24 78.5, 4.25 76.03, 5.46 73.59 C6.66 71.15, 8.07 68.72, 9.67 66.33 C11.26 63.95, 13.06 61.58, 15.03 59.26 C17.01 56.94, 19.18 54.65, 21.53 52.42 C23.87 50.18, 26.4 47.98, 29.1 45.84 C31.8 43.7, 34.68 41.6, 37.72 39.57 C40.76 37.54, 43.97 35.56, 47.32 33.65 C50.67 31.74, 54.19 29.89, 57.85 28.12 C61.5 26.34, 65.31 24.63, 69.23 23 C73.16 21.37, 77.23 19.81, 81.41 18.33 C85.59 16.86, 89.9 15.46, 94.31 14.15 C98.71 12.83, 103.23 11.6, 107.84 10.46 C112.44 9.32, 117.15 8.27, 121.92 7.31 C126.69 6.35, 131.56 5.47, 136.47 4.7 C141.38 3.92, 146.37 3.24, 151.39 2.65 C156.42 2.07, 161.5 1.57, 166.6 1.18 C171.71 0.79, 176.86 0.49, 182 0.3 C187.15 0.1, 192.33 0, 197.5 0 C202.67 0, 207.85 0.1, 213 0.3 C218.14 0.49, 223.29 0.79, 228.4 1.18 C233.5 1.57, 238.58 2.07, 243.61 2.65 C248.63 3.24, 253.62 3.92, 258.53 4.7 C263.44 5.47, 268.31 6.35, 273.08 7.31 C277.85 8.27, 282.56 9.32, 287.16 10.46 C291.77 11.6, 296.29 12.83, 300.69 14.15 C305.1 15.46, 309.41 16.86, 313.59 18.33 C317.77 19.81, 321.84 21.37, 325.77 23 C329.69 24.63, 333.5 26.34, 337.15 28.12 C340.81 29.89, 344.33 31.74, 347.68 33.65 C351.03 35.56, 354.24 37.54, 357.28 39.57 C360.32 41.6, 363.2 43.7, 365.9 45.84 C368.6 47.98, 371.13 50.18, 373.47 52.42 C375.82 54.65, 377.99 56.94, 379.97 59.26 C381.94 61.58, 383.74 63.95, 385.33 66.33 C386.93 68.72, 388.34 71.15, 389.54 73.59 C390.75 76.03, 391.76 78.5, 392.57 80.98 C393.38 83.46, 393.99 85.96, 394.39 88.47 C394.8 90.97, 395 93.49, 395 96" stroke="#000000" stroke-width="4" fill="none"></path></g><g transform="translate(1919.6353104552409 1284.834415672757) rotate(0 128.091796875 20.69999999999999)"><text x="128.091796875" y="0" font-family="Helvetica, Segoe UI Emoji" font-size="36px" fill="#000000" text-anchor="middle" style="white-space: pre;" direction="ltr" dominant-baseline="text-before-edge">Send Response</text></g><g mask="url(#mask-EhN68DGLrheYMVHmb7sWm)" stroke-linecap="round"><g transform="translate(2133.2378690682954 1204.3481757729464) rotate(0 268.3214137731443 -448.2127429132448)"><path d="M0 0 C89.44 -95.78, 459.81 -425.28, 536.64 -574.68 C613.48 -724.09, 473.61 -842.8, 461.01 -896.43 M0 0 C89.44 -95.78, 459.81 -425.28, 536.64 -574.68 C613.48 -724.09, 473.61 -842.8, 461.01 -896.43" stroke="#000000" stroke-width="4" fill="none"></path></g><g transform="translate(2133.2378690682954 1204.3481757729464) rotate(0 268.3214137731443 -448.2127429132448)"><path d="M483.75 -876.86 C477.83 -881.95, 471.92 -887.04, 461.01 -896.43 M483.75 -876.86 C477.95 -881.85, 472.15 -886.84, 461.01 -896.43" stroke="#000000" stroke-width="4" fill="none"></path></g><g transform="translate(2133.2378690682954 1204.3481757729464) rotate(0 268.3214137731443 -448.2127429132448)"><path d="M465.85 -866.82 C464.59 -874.52, 463.33 -882.22, 461.01 -896.43 M465.85 -866.82 C464.62 -874.37, 463.38 -881.92, 461.01 -896.43" stroke="#000000" stroke-width="4" fill="none"></path></g></g><mask id="mask-EhN68DGLrheYMVHmb7sWm"><rect x="0" y="0" fill="#fff" width="2769.880696614584" height="2200.7736615994363"></rect><rect x="2566.837727864584" y="608.9666666666662" fill="#000" width="206.0859375" height="41.4" opacity="1"></rect></mask><g transform="translate(2566.837727864585 608.9666666666662) rotate(0 -153.81507179216578 147.1687661930353)"><text x="103.04296875" y="0" font-family="Helvetica, Segoe UI Emoji" font-size="36px" fill="#000000" text-anchor="middle" style="white-space: pre;" direction="ltr" dominant-baseline="text-before-edge">( Response )</text></g><g stroke-linecap="round"><g transform="translate(1065.547363281249 768.6666666666661) rotate(0 103.5194947931177 -72.10270205987058)"><path d="M0 0 C34.51 -24.03, 172.53 -120.17, 207.04 -144.21 M0 0 C34.51 -24.03, 172.53 -120.17, 207.04 -144.21" stroke="#000000" stroke-width="4" fill="none"></path></g><g transform="translate(1065.547363281249 768.6666666666661) rotate(0 103.5194947931177 -72.10270205987058)"><path d="M189.77 -119.67 C194.57 -126.49, 199.37 -133.32, 207.04 -144.21 M189.77 -119.67 C195.65 -128.02, 201.52 -136.36, 207.04 -144.21" stroke="#000000" stroke-width="4" fill="none"></path></g><g transform="translate(1065.547363281249 768.6666666666661) rotate(0 103.5194947931177 -72.10270205987058)"><path d="M178.04 -136.51 C186.1 -138.65, 194.17 -140.79, 207.04 -144.21 M178.04 -136.51 C187.91 -139.13, 197.77 -141.75, 207.04 -144.21" stroke="#000000" stroke-width="4" fill="none"></path></g></g><mask></mask></svg>